<svg width="30" height="30" viewBox="0 0 30 30" fill="none" xmlns="http://www.w3.org/2000/svg">
<path d="M15 10.6954C12.6265 10.6954 10.6954 12.6265 10.6954 15C10.6954 17.3735 12.6265 19.3045 15 19.3045C17.3735 19.3045 19.3045 17.3735 19.3045 15C19.3045 12.6265 17.3735 10.6954 15 10.6954Z" fill="#D3D3D3"/>
<path d="M19.5173 5H10.4827C7.45953 5 5 7.45953 5 10.4827V19.5173C5 22.5405 7.45953 25 10.4827 25H19.5173C22.5405 25 25 22.5405 25 19.5173V10.4827C25 7.45953 22.5405 5 19.5173 5ZM15 20.4856C11.9752 20.4856 9.51441 18.0248 9.51441 15C9.51441 11.9752 11.9752 9.51445 15 9.51445C18.0248 9.51445 20.4856 11.9752 20.4856 15C20.4856 18.0248 18.0248 20.4856 15 20.4856ZM20.8137 10.853C19.8947 10.853 19.1471 10.1053 19.1471 9.18633C19.1471 8.26734 19.8947 7.51965 20.8137 7.51965C21.7327 7.51965 22.4804 8.2673 22.4804 9.18629C22.4804 10.1053 21.7327 10.853 20.8137 10.853Z" fill="#D3D3D3"/>
</svg>
