<svg width="71" height="33" viewBox="0 0 71 33" fill="none" xmlns="http://www.w3.org/2000/svg">
<path d="M69.3047 16.7953L64.6779 16.9917L60.4454 16.7953C60.4454 16.7953 58.674 16.7953 57.394 16.6962C56.1139 16.597 55.032 16.7953 55.032 16.7953C55.032 16.7953 53.851 17.2871 52.1767 17.0908C50.5023 16.8945 50.3062 17.19 49.6166 17.0908C48.9271 16.9917 47.8452 16.7953 47.8452 16.7953C47.8452 16.7953 47.0585 17.19 46.2699 16.9917C45.4812 16.7934 44.7937 16.597 44.7937 16.597L41.0526 16.8925C41.0526 16.8925 39.6755 16.4979 38.8869 16.6962C38.0982 16.8945 37.0164 16.7953 37.0164 16.7953C37.0164 16.7953 36.3268 16.3036 35.1458 16.5991C33.9649 16.8945 33.1762 17.4854 32.2905 17.19C31.4047 16.8945 31.4048 16.6982 29.5342 16.6982C27.6637 16.6982 27.7628 16.5991 26.8771 16.6982C25.9913 16.7974 26.6809 16.7974 24.9074 16.7974C23.1339 16.7974 22.9378 16.6011 21.8559 16.6011C20.7741 16.6011 20.7741 16.8965 19.7893 16.8965C18.8045 16.8965 18.4122 17.0928 17.2292 16.8965C16.0462 16.7002 16.0482 16.5019 14.8672 16.6011C13.6863 16.7002 12.4063 16.9957 11.2253 16.7974C10.0443 16.5991 10.4386 16.6011 8.86335 16.6982C7.28806 16.7953 6.40234 16.8945 5.41753 16.8945C4.43272 16.8945 2.6613 16.7953 2.6613 16.7953L1.28418 16.4008C1.28418 16.4008 2.46518 16.2045 3.3509 16.2045C4.23662 16.2045 4.33565 15.909 5.6157 15.909C6.89575 15.909 7.09192 16.0082 8.56812 16.0082C10.0443 16.0082 10.4387 15.909 12.5054 15.909C14.5721 15.909 14.7702 15.8099 15.9512 15.8099H18.3131H21.4636C21.4636 15.8099 23.6294 16.0062 24.8103 16.0062C25.9913 16.0062 31.2592 16.0972 32.5635 16.1498C33.8678 16.2025 35.6392 16.0062 36.9172 16.0062C38.1952 16.0062 38.5896 16.0062 40.7553 15.907C40.7553 15.907 43.2164 15.5124 43.7078 15.6116C44.1991 15.7107 45.7744 15.7107 47.0544 15.7107C48.3345 15.7107 50.4012 16.1053 51.6813 16.0062C52.9613 15.907 54.4375 15.7107 55.1271 15.7107C55.8167 15.7107 58.3747 15.907 59.3595 16.0062C60.3443 16.1053 61.6244 16.4008 62.5101 16.3016C63.3958 16.2025 64.7749 16.1053 65.5615 16.1053C66.3482 16.1053 67.5312 16.2045 68.0226 16.2045C68.514 16.2045 70.7789 16.4008 70.7789 16.4008L69.3026 16.7953H69.3047Z" fill="#C33D3D"/>
<path d="M28.1043 9.67662C28.2115 10.1643 28.3754 11.516 28.3754 11.516L28.808 13.1389C28.808 13.1389 28.8627 13.7338 28.9153 14.5453C28.9678 15.3567 28.9698 15.1948 29.0224 16.0589C29.077 16.925 29.077 17.3034 28.8607 18.3293C28.6443 19.3572 28.8607 20.2213 28.8607 20.2213C28.8607 20.2213 28.5897 21.14 28.5371 21.8442C28.4825 22.5464 28.3208 23.3578 28.3208 23.3578L28.1589 25.3044L27.7808 22.1133L27.5644 19.679L27.4573 17.4086V15.1908L27.7282 13.3514C27.7282 13.3514 27.621 12.2688 27.6736 11.6213C27.7282 10.9717 28.1064 9.67459 28.1064 9.67459L28.1043 9.67662Z" fill="#C33D3D"/>
<path d="M27.6718 32.6074C27.51 32.5001 27.2046 32.0853 26.5373 31.4175C25.9973 30.8772 25.8356 30.1731 25.0247 29.309C24.2138 28.4429 24.052 28.2264 23.5121 27.3624C22.9722 26.4963 22.9176 25.9013 22.6466 25.0919C22.3757 24.2825 22.4849 24.1733 22.1067 23.3618C21.7286 22.5504 21.4576 21.739 21.4576 21.739L20.9176 20.1161L20.7013 18.4406C20.7013 18.4406 20.8631 17.1961 20.5395 15.6825C20.216 14.1688 20.5395 14.5999 20.5941 13.1409C20.6487 11.6819 20.7558 11.6273 20.9722 10.1117C21.1886 8.59605 21.134 8.48879 21.3504 7.51547C21.5667 6.54214 21.6739 6.3256 21.9995 5.67605C22.323 5.02649 22.5395 4.64808 22.8104 4.00055C23.0814 3.35099 23.5667 2.27046 23.5667 2.27046L24.1612 1.13523L24.8103 0C24.8103 0 24.1613 0.594933 23.7285 0.973336C23.2958 1.35174 22.5394 2.05595 22.5394 2.05595L21.5667 3.56956C21.5667 3.56956 21.2432 4.16445 20.9176 4.70474C20.594 5.24502 20.7012 5.8946 20.3777 6.59677C20.0541 7.29894 19.676 7.89384 19.676 7.89384C19.676 7.89384 19.405 8.70532 19.1887 10.1117C18.9723 11.518 18.9177 11.2469 18.8651 12.3821C18.8125 13.5173 18.8651 13.0316 18.758 14.1122C18.6508 15.1948 18.5962 14.9783 18.7034 15.7877C18.8105 16.5971 18.6487 17.7344 18.8651 18.7623C19.0815 19.7903 19.405 20.709 19.405 20.709C19.405 20.709 19.5122 21.6823 19.7286 22.3318C19.9449 22.9814 20.5394 23.5217 20.9176 24.6569C21.2957 25.7921 21.3504 26.387 21.7285 26.9273C22.1067 27.4676 22.5394 28.1172 22.5394 28.1172C22.5394 28.1172 23.0268 28.7667 23.5121 29.2523C23.9994 29.74 24.3231 30.2803 24.6466 30.5495C24.9702 30.8186 25.781 31.5774 25.8902 31.7393C25.9994 31.9012 27.6738 32.6054 27.6738 32.6054L27.6718 32.6074Z" fill="#C33D3D"/>
<path d="M14.1069 27.848C14.1069 27.848 13.1342 26.9293 12.5943 26.6035C12.0543 26.2798 11.8379 26.2251 11.5124 25.7921C11.1888 25.359 11.1342 25.0899 10.5943 24.9806C10.0544 24.8714 9.94521 24.8187 9.72884 24.4929C9.51246 24.1692 8.97249 23.7908 8.97249 23.7908C8.97249 23.7908 8.27083 23.3577 8.10703 22.9247C7.94324 22.4917 7.83607 22.437 7.45792 22.2751C7.07977 22.1133 6.97052 22.2752 6.64697 21.8421C6.32342 21.4091 6.59233 21.6802 5.94522 21.1925C5.2961 20.7049 5.56716 20.543 4.91803 20.2192C4.26891 19.8955 5.18902 20.6523 4.26892 19.8955C3.35084 19.1387 3.18703 18.5437 3.18703 18.5437L2.37608 17.7869C2.37608 17.7869 2.05258 17.8415 1.61983 17.3539C1.18708 16.8662 1.24163 16.759 0.918083 16.5971C0.594532 16.4352 0.32361 16.3259 0.161835 16.1094L0 15.8929C0 15.8929 0.70172 15.1361 1.08189 14.865C1.46206 14.5938 2.21631 13.7297 2.21631 13.7297C2.21631 13.7297 2.97263 12.811 3.29821 12.5945C3.62378 12.378 3.78561 12.2161 4.16376 11.9449C4.54191 11.6738 4.70364 11.5119 5.02922 11.2428C5.35479 10.9737 5.24564 11.0263 5.78556 10.5406C6.32549 10.0529 6.65104 10.0003 6.97459 9.67454C7.29814 9.35077 7.08172 9.07961 7.78544 8.7012C8.48714 8.3228 8.54178 7.99908 9.1909 7.83517C9.84003 7.67126 10.0018 7.29488 10.4872 6.96909C10.9725 6.6433 11.1888 5.9411 11.7833 5.67197C12.3778 5.40081 12.4325 5.1843 13.1342 5.02242C13.8359 4.86053 15.0795 3.88724 15.0795 3.88724C15.0795 3.88724 14.0522 4.91518 13.7287 5.1317C13.4051 5.34822 13.1342 5.45547 12.5943 5.94314C12.0543 6.43081 11.8925 6.64533 11.5124 7.02575C11.1322 7.40618 10.9724 7.72788 10.6468 7.9444C10.3212 8.16092 9.99773 8.64659 9.5124 8.97238C9.02505 9.29614 8.97246 9.78384 8.53971 10.055C8.10696 10.3261 8.21621 10.4334 7.78346 10.9211C7.35072 11.4087 7.56704 11.4087 7.02712 11.8944C6.48719 12.38 5.73096 12.8677 5.73096 12.8677C5.73096 12.8677 5.5691 13.3007 5.13635 13.6245C4.7036 13.9483 4.3255 14.4359 4.3255 14.4359L3.51464 15.302L2.92003 15.7897C2.92003 15.7897 3.56921 16.4919 3.78559 16.763C4.00196 17.0342 4.05657 17.3033 4.75827 18.0075C5.45997 18.7096 5.40733 18.7643 6.10903 19.3592C6.81073 19.9542 6.92001 20.2253 7.35276 20.5491C7.78551 20.8728 8.05443 20.9821 8.48718 21.577C8.91993 22.172 8.86535 22.4431 9.45987 22.9287C10.0544 23.4164 10.4325 23.6309 10.8106 24.064C11.1888 24.497 11.8379 25.2538 11.8379 25.2538L12.6489 26.0652L14.1088 27.85L14.1069 27.848Z" fill="#C33D3D"/>
<path d="M62.4311 19.0901C61.9256 19.0901 61.9761 18.5842 61.5717 18.6348C61.1673 18.6854 61.0156 18.4325 60.9145 18.2301C60.8134 18.0277 60.6112 18.2301 60.4595 17.7242C60.3078 17.2183 60.7366 17.2871 60.4454 16.7974C60.1542 16.3077 60.1036 16.2571 60.2067 15.901C60.3099 15.5449 60.2573 15.4963 60.3584 15.041C60.4595 14.5857 60.6112 14.3833 60.8134 14.181C61.0156 13.9786 60.6617 13.7763 61.2684 13.6751C61.875 13.5739 61.875 13.5739 62.1784 13.4727C62.4817 13.3716 62.5828 13.0174 62.9872 13.321C63.3917 13.6245 63.3411 13.6751 63.695 13.8269C64.0489 13.9786 64.3017 13.6751 64.605 13.9786C64.9083 14.2822 65.1105 14.2316 65.2622 14.5351C65.4139 14.8386 65.3633 15.2433 65.3633 15.2433L65.5595 16.1074C65.5595 16.1074 65.8689 16.3057 65.6161 16.9654C65.3633 17.6251 65.8689 17.1677 65.3633 17.623C64.8578 18.0783 65.3633 17.9772 64.5039 18.3819C63.6444 18.7866 63.5939 18.8877 63.3917 18.8877C63.1895 18.8877 62.4311 19.0901 62.4311 19.0901Z" fill="#C33D3D"/>
</svg>
