<svg width="20" height="1048" viewBox="0 0 20 1048" fill="none" xmlns="http://www.w3.org/2000/svg">
<path d="M18.2993 0C18.2993 0 18.8157 7.72707 18.8157 9.97206C18.8157 12.2171 19.2353 16.0148 19.2353 19.0081C19.2353 22.0014 19.2353 22.1891 19.2353 25.9283C19.2353 29.67 18.7165 33.4116 18.8902 37.7139C19.0638 42.0162 19.0638 40.895 19.0638 45.5702C19.0638 50.2454 19.0638 53.4265 19.0638 53.4265C19.0638 53.4265 19.2375 66.1456 19.2375 69.5144C19.2375 72.8831 19.2375 76.2493 19.2375 76.2493L18.8925 84.8539L19.2375 93.6462C19.2375 93.6462 19.2375 106.18 19.4111 111.977C19.5847 117.773 19.5847 116.279 19.4111 122.078C19.2375 127.877 18.7188 126.38 18.7188 131.243C18.7188 136.106 19.2375 148.077 19.2375 151.819C19.2375 155.56 19.5824 160.05 19.5824 160.05C19.5824 160.05 19.0639 175.763 19.4089 180.065C19.7539 184.367 19.5824 189.043 19.5824 189.043C19.5824 189.043 19.7561 193.157 19.5824 197.274C19.4088 201.391 19.2375 207.375 19.4089 211.302C19.5825 215.232 20.1011 217.289 19.9275 221.591C19.7539 225.894 19.4089 230.569 19.4089 230.569C19.4089 230.569 19.4089 239.361 19.4089 242.915C19.4089 246.469 19.7539 248.339 19.7539 252.08C19.7539 255.822 19.0616 260.312 19.2353 265.36C19.4089 270.411 18.8902 271.159 19.2353 274.338C19.5803 277.516 19.4089 281.821 19.4089 281.821L19.5824 289.865C19.5824 289.865 19.5824 295.664 19.5824 300.154C19.5824 304.644 19.2375 309.131 19.4089 312.688C19.5825 316.242 19.5824 320.356 19.5824 320.356C19.5824 320.356 19.4088 328.4 19.5824 331.767C19.7561 335.133 19.4088 340.371 19.5824 346.17C19.7561 351.969 19.7561 356.271 19.7561 356.271L18.8902 365.624L19.2353 372.359C19.2353 372.359 19.2353 380.403 19.2353 386.202C19.2353 392.001 19.4089 394.059 19.4089 397.612C19.4089 401.166 19.4089 400.793 19.2353 405.656C19.0616 410.519 19.5803 418.19 19.4089 421.181C19.2353 424.175 19.7539 424.362 19.4089 431.47C19.0639 438.578 19.5824 450.737 19.5824 450.737C19.5824 450.737 19.7562 451.485 19.4089 462.147C19.0639 472.809 19.5824 484.031 19.5824 484.031L19.7561 494.506C19.7561 494.506 19.9297 500.865 19.5824 505.728C19.2374 510.591 19.4088 519.008 19.5824 523.125C19.7561 527.24 19.4089 532.666 19.4089 532.666C19.4089 532.666 19.5824 550.435 19.5824 555.486C19.5824 560.537 19.7561 559.228 19.5824 565.96C19.4088 572.693 19.2375 589.341 19.2375 589.341C19.2375 589.341 20.2747 590.838 19.9297 596.449L19.4111 604.866C19.4111 604.866 18.7188 617.212 19.0661 620.954C19.4111 624.696 19.7584 624.508 19.7584 628.623C19.7584 632.737 19.4133 636.479 19.4133 636.479C19.4133 636.479 19.5869 652.567 19.4133 656.869C19.2397 661.171 19.2398 658.739 19.2398 665.286C19.2398 671.833 19.2398 683.431 19.2398 686.61C19.2398 689.788 19.4134 688.294 19.2398 696.15C19.0661 704.007 19.5847 713.359 19.5847 720.843C19.5847 728.326 19.5847 726.081 19.4111 730.756C19.2375 735.432 19.5847 749.65 19.5847 754.325C19.5847 759 19.4111 763.49 19.4111 763.49L19.0661 772.656C19.0661 772.656 19.7584 775.088 19.7584 781.821C19.7584 788.556 19.2398 797.346 19.2398 802.772C19.2398 808.195 19.2398 813.061 19.2398 813.061C19.2398 813.061 19.0661 814.557 19.0661 820.356C19.0661 826.155 18.7211 834.199 18.8925 839.25C19.0639 844.3 19.5937 843.013 19.4223 849C19.2487 854.987 18.7211 869.181 19.2398 873.107C19.7584 877.034 19.251 880.596 19.3367 883.579C19.5148 889.761 18.7211 896.864 19.2398 903.036C19.7584 909.208 19.5847 913.137 19.5847 913.137L19.2398 919.497C19.2398 919.497 19.4133 929.037 19.4133 933.525C19.4133 938.015 19.0683 938.948 19.0683 942.129C19.0683 945.31 18.8947 949.613 19.242 955.409C19.5892 961.206 19.7606 961.396 19.5869 964.95C19.4133 968.504 19.242 977.484 19.242 982.159C19.242 986.834 19.4156 988.706 19.242 991.512C19.0683 994.318 19.0683 994.878 19.0683 996.936C19.0683 998.993 19.0683 1005.73 19.0683 1008.35C19.0683 1010.96 19.242 1014.33 19.242 1014.33L18.897 1019.01C18.897 1019.01 18.897 1024.06 19.0706 1027.42C19.2443 1030.79 19.4156 1031.17 19.2442 1033.6C19.0728 1036.03 19.0706 1035.84 19.0706 1038.09C19.0706 1040.33 19.0706 1042.2 18.897 1042.95C18.7234 1043.7 18.3783 1048 18.3783 1048C18.3783 1048 18.4775 1044.17 18.3061 1042.39C18.1348 1040.62 18.3918 1034.94 18.1347 1032.61C17.8754 1030.28 17.9633 1021.98 17.8754 1018.44C17.7897 1014.9 18.0468 1015.27 17.9611 1012.66C17.8754 1010.05 17.6161 1010.33 17.7018 1007.81C17.7874 1005.3 17.8731 1001.57 17.7874 998.308C17.7017 995.046 17.7017 995.232 17.7874 992.156C17.8731 989.079 17.8732 989.267 17.9589 986.471C18.0446 983.675 17.8732 979.388 17.8732 974.542C17.8732 969.696 17.9589 969.508 17.9589 966.993C17.9589 964.477 17.9589 961.028 17.9589 961.028C17.9589 961.028 17.9589 959.258 17.9589 955.902C17.9589 952.545 18.0446 952.36 17.9589 950.122C17.8732 947.885 17.7875 949.284 17.9589 945.462C18.1302 941.64 17.9588 937.259 18.0445 934.278C18.1302 931.297 18.2159 931.39 18.1302 929.525C18.0445 927.66 17.7852 927.009 17.7852 925.61C17.7852 924.211 17.8709 921.322 17.8709 921.322C17.8709 921.322 18.3016 914.985 18.1302 910.977C17.9588 906.97 17.8709 904.267 17.8709 904.267L17.9566 899.887V889.727L18.0423 884.135C18.0423 884.135 17.9566 882.178 17.8709 879.755C17.7852 877.332 17.6116 870.341 17.6116 870.341V865.961C17.4402 863.723 17.7829 854.777 17.7829 854.777L17.8687 848.72L17.9543 840.61C17.9543 840.61 17.695 837.441 17.6093 834.365L17.7807 829.612L17.4357 824.112L17.6071 810.318L17.7784 804.912C17.7784 804.912 17.8641 803.981 17.7784 800.439C17.6927 796.897 17.8642 787.11 17.8642 787.11L17.9498 780.027C17.9498 780.027 17.9499 777.043 17.8642 774.342C17.7785 771.639 17.5191 763.81 17.7784 759.617C18.0377 755.422 18.0378 758.033 17.9498 753.279C17.8641 748.526 17.6048 742.561 17.6905 738.274C17.7762 733.986 17.8619 733.986 17.7762 731.19C17.6905 728.394 17.6905 726.157 17.6905 726.157L17.5191 714.132C17.5191 714.132 17.4334 710.498 17.5191 706.21C17.6048 701.922 17.3478 696.238 17.6049 691.95C17.8642 687.663 17.9498 684.959 17.9498 684.959L17.7784 671.446L17.6927 661.939C17.6927 661.939 17.8642 650.383 17.8642 646.095C17.8642 641.807 17.6049 644.696 17.6049 640.316C17.6049 635.935 17.6906 637.52 17.6049 633.79C17.5192 630.063 17.6049 618.97 17.6049 618.97C17.6049 618.97 17.6906 615.708 17.6049 611.794C17.5192 607.879 17.5191 603.779 17.5191 603.779L18.0355 591.662C18.0355 591.662 17.6049 588.213 17.6049 584.671C17.6049 581.129 17.6905 572.927 17.6905 570.319C17.6905 567.71 18.4662 568.454 18.0355 565.938C17.6048 563.423 17.6049 562.862 17.6049 562.862C17.6049 562.862 17.6048 561.743 17.8642 559.878C18.1235 558.014 17.7784 556.244 17.7784 552.98C17.7784 549.719 18.2092 549.904 17.9498 548.32C17.6905 546.735 17.2598 546.828 17.5191 545.151C17.7784 543.474 17.9498 542.635 17.9498 542.635L17.8642 540.305L17.7784 536.017C17.7784 536.017 18.2092 533.221 18.0378 531.357C17.8664 529.492 17.5213 529.492 17.6927 527.907C17.8641 526.323 18.2091 523.993 18.2091 523.993L17.6049 518.121L17.9498 513.926L17.6905 510.476L17.9498 502.274C17.9498 502.274 18.1212 499.944 17.9498 498.64C17.7785 497.336 17.5191 497.613 17.7784 496.124C18.0377 494.632 18.0378 492.955 18.0378 492.955L17.6927 489.228L17.7784 485.221L17.5191 476.273L17.7784 471.427L18.0378 468.165L17.6927 462.293L17.6071 455.49C17.6071 455.49 18.1234 453.625 17.952 451.668C17.7807 449.71 17.7807 448.592 17.7807 448.592C17.7807 448.592 17.8663 446.727 17.952 444.957C18.0377 443.188 17.7807 438.059 17.7807 438.059C17.7807 438.059 18.04 434.797 17.952 432.747C17.8663 430.697 17.6928 431.07 17.7807 429.02C17.8664 426.97 18.04 417.091 18.04 417.091C18.04 417.091 18.4707 413.176 18.1257 411.685C17.7807 410.193 17.7807 408.143 17.7807 408.143V404.321L17.8664 396.026C17.8664 396.026 18.0377 392.391 17.952 390.619C17.8663 388.849 17.952 388.009 17.952 386.519C17.952 385.027 17.8664 380.927 17.8664 380.927C17.8664 380.927 17.9521 373.378 17.8664 370.117C17.7807 366.855 17.952 366.017 17.952 364.245C17.952 362.475 17.7807 361.076 17.952 359.584C18.1234 358.092 18.2971 351.382 18.1235 347.933C17.9521 344.483 17.8642 343.272 17.8642 343.272L18.0355 339.545L18.1212 335.723L18.0355 324.725C18.0355 324.725 18.1212 321.183 18.0355 318.76C17.9498 316.337 17.8642 313.914 17.8642 313.914C17.8642 313.914 18.1234 307.203 18.0355 303.008C17.9476 298.813 17.9498 298.908 17.9498 297.324C17.9498 295.74 18.0355 293.502 18.0355 293.502C18.0355 293.502 18.1212 284.088 17.9498 283.062C17.7785 282.036 17.8642 277.843 17.8642 277.843C17.8642 277.843 17.9498 275.327 17.9498 273.743V269.363L17.6905 260.229C17.6905 260.229 18.2069 255.569 18.1212 254.545C18.0355 253.519 18.1212 251.469 18.1212 251.469C18.1212 251.469 18.1212 244.292 18.2069 239.912C18.2926 235.532 18.4662 235.997 18.2926 233.855C18.1212 231.712 18.464 232.085 18.2069 229.66C17.9476 227.237 17.6905 218.569 17.6905 218.569L17.8619 213.535C17.8619 213.535 17.7762 210.086 17.7762 208.409C17.7762 206.732 17.6905 199.275 17.6905 199.275C17.6905 199.275 18.1212 194.895 18.0355 191.819C17.9498 188.743 17.4312 185.389 17.6049 180.913C17.7762 176.44 17.5191 177.091 17.5191 174.483C17.5191 171.875 17.0027 171.595 17.1741 169.264C17.3455 166.934 17.2598 167.214 17.2598 165.35C17.2598 163.485 17.4312 156.216 17.4312 156.216L17.5169 149.318V145.218C17.5169 143.633 17.5169 141.21 17.5169 141.21C17.5169 141.21 16.9126 136.269 17.2576 132.077C17.6026 127.882 17.6025 127.416 17.6025 125.647C17.6025 123.877 17.2576 124.342 17.4312 121.451C17.6026 118.563 17.6905 108.684 17.6905 108.684C17.6905 108.684 17.6049 104.769 17.6049 102.438C17.6049 100.108 17.6905 100.669 17.5191 98.8967C17.3477 97.1271 17.5191 93.7705 17.5191 93.7705C17.5191 93.7705 16.7434 87.8984 17.0884 83.2378C17.4335 78.5772 17.6928 78.9502 17.6049 76.4346C17.5192 73.919 17.5191 74.1969 17.5191 71.4937C17.5191 68.7904 17.6048 68.883 17.5191 66.7404C17.4334 64.5978 17.6049 55.8348 17.6049 55.8348C17.6049 55.8348 17.7762 52.9463 17.6905 50.4283C17.6048 47.9127 17.5192 48.2856 17.4312 46.2332C17.3455 44.1832 17.3454 41.8529 17.3454 41.8529C17.3454 41.8529 17.5169 35.9808 17.2598 31.7858C17.0005 27.5908 17.3454 24.6096 17.3454 24.6096C17.3454 24.6096 17.5169 22.6523 17.5169 20.9752C17.5169 19.2982 17.6882 17.2482 17.6882 17.2482C17.6882 17.2482 17.5169 9.60643 17.5169 8.58021C17.5169 7.554 17.8619 5.41139 17.8619 5.41139L18.2993 0Z" fill="#C33D3D"/>
<path d="M2.87781 986.995C2.87781 986.432 3.04598 981.176 3.04598 979.674C3.04598 978.172 3.38231 976.482 3.38231 974.042C3.38231 971.601 3.55047 971.601 3.55047 968.973C3.55047 966.345 3.71864 964.28 3.71864 964.28L3.04598 958.648L3.21414 951.89C3.21414 951.89 3.21415 945.32 3.38231 941.941C3.55047 938.561 2.87781 931.803 2.87781 931.803C2.87781 931.803 3.38231 928.049 3.38231 924.482C3.38231 920.915 3.71863 922.417 3.38231 919.413C3.04598 916.409 3.21414 913.218 3.21414 913.218C3.21414 913.218 3.3823 900.453 3.21414 897.449C3.04598 894.445 3.04598 890.691 3.04598 890.691V884.684L2.87781 878.864L3.04598 870.979C3.04598 870.979 2.87781 860.654 3.04598 857.839C3.21414 855.023 3.21414 856.149 3.21414 852.394C3.21414 848.64 3.38231 845.824 3.38231 845.824C3.38231 845.824 3.38231 842.633 3.38231 840.38C3.38231 838.127 3.88681 832.683 3.88681 832.683L3.38231 821.232L3.55047 815.224V810.343C3.55047 810.343 3.38231 801.145 3.38231 797.015C3.38231 792.885 2.87782 793.26 3.38231 790.82C3.88679 788.379 3.71864 786.502 3.71864 786.502C3.71864 786.502 3.8868 782.184 3.71864 779.744C3.55048 777.303 3.55047 774.3 3.55047 774.3C3.55047 774.3 3.38231 771.859 3.38231 769.982C3.38231 768.105 3.38231 766.227 3.38231 766.227C3.38231 766.227 3.71864 764.35 3.55047 762.473C3.38231 760.596 2.87781 758.718 2.87781 758.718C2.87781 758.718 3.3823 760.783 3.21414 754.776C3.04598 748.769 3.71864 740.884 3.71864 740.884L3.55047 735.252V729.996L3.38231 723.801C3.38231 723.801 3.8868 721.736 3.71864 719.859C3.55048 717.981 3.38231 715.353 3.38231 715.353C3.38231 715.353 3.55047 708.971 3.55047 704.09C3.55047 699.209 3.55047 696.581 3.55047 696.581C3.55047 696.581 3.71864 694.328 3.55047 691.324C3.38231 688.321 3.21414 688.508 3.04598 685.692C2.87781 682.876 2.87781 681.562 2.87781 681.562L3.38231 676.306L3.55047 664.479L2.70964 657.533L3.04598 651.714L3.21414 647.771C3.21414 647.771 3.3823 639.136 3.04598 634.443C2.70965 629.75 3.04598 629.374 3.04598 626.746C3.04598 624.118 3.21414 622.428 3.21414 622.428L2.70964 617.547C2.70964 617.547 3.55047 608.912 3.38231 605.345C3.21415 601.778 3.21414 598.775 3.21414 598.775V592.955V587.135C3.21414 587.135 2.37333 578.875 3.04598 573.807C3.71862 568.738 4.22313 569.677 3.88681 566.861C3.55048 564.045 3.55047 564.984 3.38231 561.417C3.21415 557.85 3.04598 554.095 3.21414 552.969C3.3823 551.843 2.87781 545.272 3.04598 538.326C3.21414 531.38 3.55047 530.254 3.55047 530.254L3.88681 525.373L3.55047 517.488C3.55047 517.488 3.38231 508.853 3.38231 504.347C3.38231 499.842 3.3823 498.903 3.21414 495.337C3.04598 491.77 3.21414 488.766 3.21414 488.766L3.55047 482.008C3.55047 482.008 3.04597 480.694 2.87781 472.246C2.70965 463.798 3.21414 460.795 3.21414 460.795C3.21414 460.795 3.71863 457.04 3.38231 454.037C3.04598 451.033 3.04598 447.842 3.04598 447.842C3.04598 447.842 3.71863 438.267 3.21414 433.386C2.70966 428.506 3.21414 424.939 3.21414 424.939L3.88681 419.682C3.88681 419.682 3.38231 416.866 3.38231 413.675C3.38231 410.484 2.37332 407.856 2.87781 402.787C3.38229 397.718 4.39129 397.906 3.71864 395.841C3.04599 393.776 2.03699 396.404 2.70964 392.837C3.38229 389.271 4.39129 389.646 3.71864 387.393C3.04599 385.14 3.8868 381.011 3.55047 376.317C3.21415 371.624 3.71864 371.436 3.55047 368.808C3.38231 366.18 4.39129 366.555 3.71864 362.801C3.04599 359.046 3.04598 354.541 3.21414 350.974C3.3823 347.407 3.55047 343.277 3.55047 343.277L3.21414 338.021C3.04598 335.393 2.70964 332.201 2.70964 332.201L3.55047 324.505L3.38231 316.057L2.87781 307.046L3.21414 301.039C3.21414 301.039 3.3823 291.089 3.21414 286.959C3.04598 282.829 2.70964 279.074 2.70964 279.074L3.55047 272.879L3.21414 258.049C3.21414 258.049 3.71864 252.605 3.71864 250.164C3.71864 247.724 3.55047 244.72 3.55047 244.72L3.04598 227.637L3.71864 218.063L3.38231 212.056C3.38231 212.056 3.71863 208.301 3.38231 205.485C3.04598 202.669 3.04598 191.593 3.04598 191.593C3.04598 191.593 4.39129 188.965 3.88681 183.897C3.38232 178.828 3.38231 176.951 3.38231 176.951V170.38C3.38231 167.564 2.70964 156.676 2.70964 156.676C2.70964 156.676 3.71864 151.795 3.55047 147.853C3.38231 143.911 3.21414 140.907 3.21414 140.907L3.38231 133.21L3.21414 126.076C3.21414 126.076 3.55047 121.383 3.55047 118.38C3.55047 115.376 3.55047 112.372 3.55047 112.372L3.71864 105.99C3.71864 105.99 3.38231 94.9137 3.38231 92.4732C3.38231 90.0328 3.38231 87.0291 3.38231 87.0291C3.38231 87.0291 3.8868 84.0255 3.71864 82.5237C3.55048 81.0218 3.71864 80.8341 3.55047 78.7691C3.38231 76.7041 3.21414 75.7655 3.21414 74.0759C3.21414 72.3864 2.54148 71.26 2.70964 69.5705C2.8778 67.8809 2.20514 63 2.20514 63L1.70065 67.6932C1.70065 67.6932 1.02798 72.9496 1.02798 75.0146C1.02798 77.0796 0.859814 81.2096 0.859814 81.2096C0.859814 81.2096 -0.212449 82.7333 0.575947 85.7248C1.36434 88.7187 -0.149171 91.91 0.355315 96.6032C0.859801 101.296 0.859814 102.235 0.859814 104.3C0.859814 106.365 0.691648 109.181 0.691648 109.181C0.691648 109.181 0.355315 117.253 0.355315 119.881C0.355315 122.51 0.0189871 128.705 0.187149 132.835C0.355311 136.965 0.355315 141.095 0.355315 141.095C0.355315 141.095 0.523481 143.911 0.523481 146.726C0.523481 149.542 0.523481 151.795 0.523481 151.795L0.691648 156.676C0.691648 156.676 0.859814 173.008 0.859814 176.39C0.859814 179.769 0.355328 180.144 0.859814 182.773C1.3643 185.401 1.19615 187.09 1.19615 187.09C1.19615 187.09 0.691652 190.657 0.859814 192.91C1.02798 195.163 1.53247 196.289 1.02798 197.979C0.523494 199.668 0.691648 201.17 0.691648 201.17L1.19615 205.3L0.859814 208.491C0.859814 208.491 0.523481 220.13 0.523481 222.946C0.523481 225.762 0.523486 225.575 0.691648 228.203C0.85981 230.831 0.859814 232.896 0.859814 232.896C0.859814 232.896 0.523481 237.777 0.523481 241.907C0.523481 246.037 0.859818 242.282 1.02798 247.914C1.19614 253.546 1.19615 255.611 1.19615 255.611L0.859814 258.051L0.691648 262.369L0.187149 272.506L0.859814 278.701C0.859814 278.701 0.52349 281.142 0.859814 283.019C1.19614 284.896 1.70064 284.146 1.36431 286.586C1.02799 289.026 0.691648 295.597 0.691648 295.597L0.859814 301.792L0.355315 306.861C0.355315 306.861 0.523486 314.182 0.691648 316.622C0.85981 319.063 1.19615 321.316 1.19615 321.316C1.19615 321.316 0.187153 324.695 0.355315 327.323C0.523477 329.951 0.691648 334.644 0.691648 334.644C0.691648 334.644 0.523486 338.399 0.691648 344.031C0.85981 349.662 1.02798 354.919 1.02798 354.919C1.02798 354.919 0.355315 360.175 0.355315 363.742C0.355315 367.309 0.523481 371.063 0.523481 371.063C0.523481 371.063 0.0189956 375.569 0.523481 379.323C1.02797 383.078 0.355315 385.706 0.355315 390.399C0.355315 393.528 0.411374 396.219 0.523481 398.472C0.691643 401.851 1.02798 399.41 1.02798 404.479C1.02798 409.548 0.691652 416.118 0.859814 420.06C1.02798 424.003 1.02798 423.252 1.02798 425.88C1.02798 428.508 0.691648 435.266 0.691648 439.208C0.691648 443.151 0.859814 447.093 0.859814 447.093L1.02798 453.1C1.02798 453.1 0.187158 463.989 0.523481 468.494C0.859805 472.999 1.02798 477.129 1.02798 477.129C1.02798 477.129 1.19615 479.945 1.19615 483.512C1.19615 487.079 0.187158 491.584 0.523481 496.653C0.859805 501.722 0.859814 505.852 0.859814 505.852C0.859814 505.852 0.52349 506.978 0.859814 510.92C1.19614 514.863 1.02798 525.751 1.02798 528.755C1.02798 531.758 1.02798 534.199 1.02798 534.199L0.691648 539.455C0.691648 539.455 0.523481 545.65 0.523481 548.466C0.523481 551.282 0.691648 554.473 0.691648 556.914V562.546C0.691648 562.546 0.691648 562.358 0.691648 566.863C0.691648 571.369 0.691648 577.188 0.691648 581.131C0.691648 585.073 0.691648 589.203 0.691648 589.203C0.691648 589.203 1.19614 591.08 1.02798 594.084C0.859818 597.087 1.02798 607.037 1.02798 609.477C1.02798 611.918 1.19615 616.236 1.19615 616.236C1.19615 616.236 0.859818 617.362 1.02798 622.055C1.19614 626.748 0.859814 635.759 0.859814 635.759C0.859814 635.759 1.53247 640.828 1.36431 643.644C1.19615 646.46 1.19614 655.658 1.02798 659.225C0.859818 662.792 1.02798 661.478 1.02798 666.171C1.02798 670.864 1.02798 684.005 1.02798 687.762C1.02798 691.519 1.36431 692.268 1.19615 695.271C1.02798 698.275 1.36431 696.773 1.36431 700.528C1.36431 704.282 1.53247 708.037 1.02798 711.979C0.523494 715.921 0.355315 716.86 0.355315 719.3C0.355315 721.741 0.523481 726.059 0.523481 726.059C0.523481 726.059 1.02798 726.81 1.19615 731.878C1.36431 736.947 0.35532 738.449 0.523481 743.705C0.691643 748.961 0.859814 748.961 0.859814 751.402C0.859814 753.842 0.691648 756.658 0.691648 756.658C0.691648 756.658 0.691648 766.608 0.691648 770.362C0.691648 774.117 1.02798 775.431 1.02798 777.684C1.02798 779.937 0.859814 781.626 0.859814 781.626C0.859814 781.626 0.35532 790.637 0.523481 793.641C0.691643 796.644 1.02798 796.457 1.02798 799.836C1.02798 803.215 1.02798 805.092 1.02798 805.092C1.02798 805.092 0.859814 816.543 0.859814 819.172C0.859814 821.8 1.19614 824.24 1.02798 826.117C0.859818 827.995 0.691648 830.247 0.691648 830.247C0.691648 830.247 0.85981 835.691 0.691648 839.446C0.523486 843.201 0.85981 844.515 0.691648 847.331C0.523486 850.147 0.523486 853.901 0.691648 856.529C0.85981 859.158 -0.149179 854.84 0.0189828 860.284C0.187145 865.728 0.523481 869.107 0.523481 869.107V875.49C0.523481 875.49 0.0189913 878.493 0.355315 881.122C0.691639 883.75 -0.149175 888.818 0.187149 893.887C0.523473 898.956 0.35532 901.396 0.523481 904.212C0.691643 907.028 0.187158 905.714 0.523481 909.844C0.859805 913.974 0.85981 920.544 0.691648 925.801C0.523486 931.057 0.691648 933.498 0.691648 935.563C0.691648 937.628 0.355315 940.819 0.355315 940.819C0.355315 940.819 0.523481 952.834 0.523481 956.213C0.523481 959.592 0.691648 961.281 0.691648 962.971C0.691648 964.66 0.523486 964.473 0.691648 966.538C0.85981 968.603 1.02798 969.729 1.19615 971.231C1.36431 972.733 2.03697 974.985 1.86881 976.863C1.70065 978.74 2.20514 980.054 2.20514 981.744C2.20514 983.433 2.87781 987 2.87781 987V986.995Z" fill="#C33D3D"/>
</svg>
