<svg width="217" height="23" viewBox="0 0 217 23" fill="none" xmlns="http://www.w3.org/2000/svg">
<path d="M2.46562 9.78004C3.64281 10.05 4.63462 9.98004 5.57082 10.18C6.50701 10.38 8.98189 10.85 8.98189 10.85C8.98189 10.85 11.7163 10.45 13.1994 10.65C14.6825 10.85 18.418 10.85 19.5952 10.85C20.7723 10.85 23.9424 10.98 26.0558 10.92C28.1692 10.86 30.8944 11.12 32.637 11.05C34.3796 10.98 37.6702 10.85 38.9122 10.85C40.1543 10.85 43.2595 10.52 45.4285 10.65C47.5975 10.78 49.5255 10.92 51.7038 10.92C53.882 10.92 57.979 10.72 58.9709 10.72C59.9627 10.72 68.1567 10.59 70.5852 10.65C73.0137 10.71 76.7307 10.58 76.7307 10.58C77.6576 10.51 81.4487 10.65 81.4487 10.65C81.4487 10.65 86.417 10.85 88.7714 10.85C91.1258 10.85 89.8281 10.72 94.1105 10.65C98.3929 10.58 101.683 10.65 103.111 10.72C104.538 10.79 110.248 10.52 113.539 10.59C116.829 10.66 118.507 10.72 120.991 10.72C123.475 10.72 126.451 10.92 129.936 10.79C133.421 10.66 137.694 10.59 138.751 10.59C139.808 10.59 143.534 10.79 148.002 10.72C152.47 10.65 157.067 10.59 157.568 10.65C158.068 10.71 166.448 10.58 168.867 10.65C171.286 10.72 171.907 10.85 175.819 10.72C179.73 10.59 184.328 10.72 184.949 10.72C185.57 10.72 188.925 10.39 192.031 10.52C195.136 10.65 195.877 10.99 197.926 10.99C199.974 10.99 202.273 10.99 203.701 11.12C205.128 11.25 207.056 11.19 209.29 11.19C211.524 11.19 212.701 11.06 213.702 10.99C214.703 10.92 216.492 10.86 216.492 10.86C216.492 10.86 214.629 10.26 213.202 10.26C211.774 10.26 210.532 10.19 209.29 9.99004C208.048 9.79004 206.685 9.39004 206.685 9.39004C206.685 9.39004 202.894 8.65004 201.281 8.72004C199.669 8.79004 194.329 8.65004 192.958 8.65004C191.586 8.65004 186.126 8.58004 182.53 8.58004C178.933 8.58004 175.643 8.45004 173.965 8.45004C172.287 8.45004 165.836 8.25004 164.649 8.25004C163.463 8.25004 154.592 8.12004 151.608 8.25004C148.623 8.38004 140.614 8.25004 139.752 8.25004C138.89 8.25004 129.575 8.05004 126.525 8.12004C123.475 8.19004 116.533 8.12004 114.67 8.19004C112.807 8.26004 108.024 8.12004 104.548 8.19004C101.072 8.26004 96.6039 8.06004 95.1116 8.12004C93.6192 8.18004 84.4983 8.05004 82.3849 8.12004C80.2716 8.19004 73.3845 8.25004 72.8191 8.25004C72.2537 8.25004 64.1894 7.98004 61.3994 8.12004C58.6094 8.26004 51.5277 8.19004 50.6007 8.19004C49.6738 8.19004 48.4317 8.32004 43.6488 8.39004C38.8659 8.46004 33.7771 8.19004 31.3578 8.32004C28.9385 8.45004 24.2205 8.39004 22.5428 8.39004C20.865 8.39004 17.0183 8.46004 15.6557 8.39004C14.2932 8.32004 11.809 8.19004 10.7523 8.19004C9.69562 8.19004 8.38866 8.12004 7.58224 8.19004C6.77582 8.26004 4.66242 8.52004 4.04139 8.52004C3.42035 8.52004 2.05778 8.79004 1.67774 8.92004C1.2977 9.05004 0 9.25004 0 9.25004L2.48416 9.79004L2.46562 9.78004Z" fill="#C33D3D"/>
<path d="M11.4012 9.38C11.4661 9.18 11.5217 7.71 11.5217 6.9C11.5217 6.09 11.4012 4.49 11.4012 4.09C11.4012 3.69 10.6596 3.29 10.6596 2.68C10.6596 2.07 10.4742 1.74 10.4742 1.41C10.4742 1.08 9.78834 0 9.78834 0C9.78834 0 9.28779 1.47 9.23218 2.14C9.17656 2.81 9.11168 5.29 9.23218 6.02C9.35268 6.75 9.11167 9.3 9.16728 9.5C9.2229 9.7 9.23217 14.46 9.28779 15.33C9.3434 16.2 9.40829 18.68 9.40829 18.68C9.40829 18.68 10.0942 19.22 10.0942 19.68C10.0942 20.14 10.465 20.48 10.5299 20.95C10.5947 21.42 10.7801 22.09 10.7801 22.09C10.7801 22.09 11.0304 20.48 11.2158 19.88C11.4012 19.28 11.2807 17.07 11.3363 16.87C11.3919 16.67 11.1509 14.26 11.3363 13.59C11.5217 12.92 11.4012 9.37 11.4012 9.37V9.38Z" fill="#C33D3D"/>
<path d="M202.635 19.91C202.635 19.91 202.848 19.25 203.024 18.69C203.2 18.13 203.413 16.67 203.589 15.83C203.766 14.99 203.589 13.86 203.543 13.49C203.497 13.12 203.589 10.58 203.589 10.16C203.589 9.74002 203.413 8.33002 203.589 7.39002C203.766 6.45002 203.636 5.09002 203.543 4.77002C203.45 4.45002 203.061 4.49002 203.061 3.88002C203.061 3.27002 202.579 2.71002 202.579 2.71002C202.579 2.71002 202.014 4.49002 201.967 4.68002C201.921 4.87002 201.532 6.65002 201.485 7.02002C201.439 7.39002 201.226 9.88002 201.402 10.44C201.578 11 201.448 13.86 201.532 14.38C201.615 14.9 201.708 16.82 201.661 17.05C201.615 17.28 201.967 17.28 202.051 17.57C202.134 17.86 202.394 18.6 202.394 18.6L202.607 19.91H202.635Z" fill="#C33D3D"/>
</svg>
