<svg width="20" height="1025" viewBox="0 0 20 1025" fill="none" xmlns="http://www.w3.org/2000/svg">
<path d="M1.70068 0C1.70068 0 1.18427 7.55749 1.18427 9.75321C1.18427 11.9489 0.764749 15.6633 0.764749 18.5909C0.764749 21.5186 0.764749 21.7021 0.764749 25.3593C0.764749 29.0188 1.28347 32.6784 1.10983 36.8863C0.936194 41.0941 0.93619 39.9975 0.93619 44.5701C0.93619 49.1427 0.93619 52.2539 0.93619 52.2539C0.93619 52.2539 0.762547 64.694 0.762547 67.9888C0.762547 71.2835 0.762547 74.5759 0.762547 74.5759L1.10752 82.9917L0.762547 91.591C0.762547 91.591 0.762543 103.85 0.588905 109.519C0.415267 115.188 0.415267 113.727 0.588905 119.399C0.762543 125.07 1.28116 123.607 1.28116 128.363C1.28116 133.119 0.762547 144.827 0.762547 148.487C0.762547 152.146 0.417575 156.538 0.417575 156.538C0.417575 156.538 0.936128 171.905 0.591107 176.113C0.246086 180.321 0.417575 184.894 0.417575 184.894C0.417575 184.894 0.243937 188.918 0.417575 192.945C0.591213 196.971 0.76249 202.824 0.591107 206.665C0.417469 210.508 -0.101146 212.52 0.0724922 216.728C0.24613 220.936 0.591107 225.509 0.591107 225.509C0.591107 225.509 0.591107 234.108 0.591107 237.584C0.591107 241.06 0.246135 242.889 0.246135 246.548C0.246135 250.208 0.938387 254.599 0.764749 259.536C0.591111 264.476 1.10977 265.208 0.764749 268.317C0.419729 271.426 0.591107 275.636 0.591107 275.636L0.417575 283.503C0.417575 283.503 0.417575 289.175 0.417575 293.567C0.417575 297.958 0.76249 302.347 0.591107 305.825C0.417469 309.301 0.417575 313.326 0.417575 313.326C0.417575 313.326 0.591213 321.193 0.417575 324.486C0.243937 327.778 0.591213 332.901 0.417575 338.573C0.243937 344.245 0.243932 348.453 0.243932 348.453L1.10983 357.6L0.764749 364.187C0.764749 364.187 0.764749 372.055 0.764749 377.726C0.764749 383.398 0.591107 385.41 0.591107 388.886C0.591107 392.362 0.591111 391.997 0.764749 396.754C0.938387 401.51 0.419724 409.013 0.591107 411.938C0.764745 414.865 0.246086 415.049 0.591107 422.001C0.936128 428.953 0.417575 440.845 0.417575 440.845C0.417575 440.845 0.243831 441.576 0.591107 452.004C0.936128 462.432 0.417575 473.409 0.417575 473.409L0.243932 483.653C0.243932 483.653 0.0702989 489.873 0.417575 494.629C0.762596 499.385 0.591213 507.617 0.417575 511.644C0.243937 515.668 0.591107 520.975 0.591107 520.975C0.591107 520.975 0.417575 538.355 0.417575 543.295C0.417575 548.235 0.243937 546.955 0.417575 553.539C0.591213 560.124 0.762547 576.407 0.762547 576.407C0.762547 576.407 -0.274731 577.871 0.07029 583.359L0.588905 591.591C0.588905 591.591 1.28115 603.667 0.933877 607.326C0.588856 610.986 0.24162 610.802 0.24162 614.826C0.24162 618.851 0.586703 622.51 0.586703 622.51C0.586703 622.51 0.413065 638.245 0.586703 642.453C0.760341 646.661 0.760235 644.282 0.760235 650.685C0.760235 657.089 0.760235 668.432 0.760235 671.541C0.760235 674.65 0.586597 673.188 0.760235 680.872C0.933873 688.556 0.415263 697.704 0.415263 705.023C0.415263 712.342 0.415267 710.146 0.588905 714.719C0.762543 719.291 0.415263 733.198 0.415263 737.77C0.415263 742.343 0.588905 746.734 0.588905 746.734L0.933877 755.698C0.933877 755.698 0.24162 758.078 0.24162 764.663C0.24162 771.25 0.760235 779.847 0.760235 785.154C0.760235 790.458 0.760235 795.217 0.760235 795.217C0.760235 795.217 0.933877 796.681 0.933877 802.352C0.933877 808.024 1.2789 815.891 1.10752 820.831C0.936137 825.771 0.406291 824.512 0.577674 830.367C0.751312 836.223 1.27889 850.105 0.760235 853.946C0.241576 857.786 0.74903 861.27 0.663339 864.188C0.485191 870.234 1.27889 877.181 0.760235 883.217C0.241576 889.254 0.415263 893.097 0.415263 893.097L0.760235 899.317C0.760235 899.317 0.586703 908.648 0.586703 913.037C0.586703 917.429 0.931675 918.342 0.931675 921.453C0.931675 924.564 1.10531 928.772 0.758033 934.441C0.410757 940.111 0.239422 940.297 0.41306 943.773C0.586698 947.249 0.758033 956.031 0.758033 960.604C0.758033 965.177 0.584395 967.008 0.758033 969.752C0.931671 972.496 0.931675 973.044 0.931675 975.056C0.931675 977.068 0.931675 983.656 0.931675 986.216C0.931675 988.777 0.758033 992.071 0.758033 992.071L1.10301 996.644C1.10301 996.644 1.103 1001.58 0.929363 1004.88C0.755725 1008.17 0.584448 1008.54 0.755831 1010.91C0.927214 1013.29 0.929363 1013.11 0.929363 1015.3C0.929363 1017.5 0.929367 1019.33 1.10301 1020.06C1.27664 1020.79 1.62173 1025 1.62173 1025C1.62173 1025 1.52247 1021.25 1.69385 1019.52C1.86523 1017.79 1.60822 1012.22 1.86529 1009.94C2.12462 1007.67 2.03665 999.553 2.1246 996.088C2.21029 992.624 1.95324 992.989 2.03893 990.436C2.12463 987.883 2.38393 988.157 2.29824 985.696C2.21255 983.236 2.12689 979.588 2.21258 976.399C2.29827 973.209 2.29827 973.39 2.21258 970.381C2.12689 967.372 2.12683 967.556 2.04114 964.821C1.95544 962.087 2.1268 957.893 2.1268 953.154C2.1268 948.414 2.04114 948.231 2.04114 945.77C2.04114 943.31 2.04114 939.937 2.04114 939.937C2.04114 939.937 2.04114 938.206 2.04114 934.923C2.04114 931.64 1.95544 931.459 2.04114 929.27C2.12683 927.082 2.21252 928.45 2.04114 924.712C1.86975 920.974 2.04116 916.69 1.95547 913.774C1.86978 910.858 1.78411 910.949 1.86981 909.125C1.9555 907.301 2.21478 906.665 2.21478 905.296C2.21478 903.928 2.12911 901.103 2.12911 901.103C2.12911 901.103 1.69842 894.904 1.86981 890.985C2.04119 887.065 2.12911 884.421 2.12911 884.421L2.04345 880.137V870.2L1.95767 864.731C1.95767 864.731 2.04342 862.817 2.12911 860.447C2.21481 858.077 2.38842 851.24 2.38842 851.24V846.956C2.5598 844.767 2.21709 836.018 2.21709 836.018L2.13132 830.093L2.04565 822.161C2.04565 822.161 2.30504 819.062 2.39073 816.053L2.21929 811.405L2.56427 806.026L2.39294 792.535L2.22161 787.247C2.22161 787.247 2.13591 786.336 2.22161 782.872C2.3073 779.408 2.13583 769.836 2.13583 769.836L2.05017 762.908C2.05017 762.908 2.05014 759.99 2.13583 757.348C2.22152 754.704 2.48094 747.047 2.22161 742.946C1.96228 738.843 1.96222 741.396 2.05017 736.748C2.13586 732.099 2.39516 726.265 2.30947 722.071C2.22378 717.878 2.13812 717.878 2.22381 715.143C2.3095 712.409 2.30947 710.22 2.30947 710.22L2.48091 698.459C2.48091 698.459 2.5666 694.905 2.48091 690.711C2.39522 686.518 2.65221 680.958 2.39514 676.764C2.13581 672.571 2.05017 669.927 2.05017 669.927L2.22161 656.71L2.30727 647.412C2.30727 647.412 2.13583 636.109 2.13583 631.915C2.13583 627.722 2.39514 630.547 2.39514 626.263C2.39514 621.979 2.30945 623.528 2.39514 619.881C2.48083 616.235 2.39514 605.386 2.39514 605.386C2.39514 605.386 2.30945 602.196 2.39514 598.367C2.48083 594.538 2.48091 590.528 2.48091 590.528L1.9645 578.677C1.9645 578.677 2.39514 575.303 2.39514 571.839C2.39514 568.375 2.30947 560.353 2.30947 557.802C2.30947 555.251 1.53379 555.978 1.9645 553.518C2.39521 551.058 2.39514 550.509 2.39514 550.509C2.39514 550.509 2.39516 549.415 2.13583 547.591C1.8765 545.767 2.22161 544.036 2.22161 540.844C2.22161 537.654 1.79084 537.835 2.05017 536.286C2.30949 534.736 2.74024 534.827 2.48091 533.187C2.22158 531.546 2.05017 530.726 2.05017 530.726L2.13583 528.447L2.22161 524.253C2.22161 524.253 1.79081 521.519 1.96219 519.695C2.13357 517.871 2.47865 517.871 2.30727 516.322C2.13589 514.772 1.79086 512.493 1.79086 512.493L2.39514 506.75L2.05017 502.647L2.30947 499.273L2.05017 491.251C2.05017 491.251 1.87878 488.972 2.05017 487.696C2.22155 486.421 2.48094 486.693 2.22161 485.236C1.96228 483.777 1.96219 482.137 1.96219 482.137L2.30727 478.491L2.22161 474.572L2.48091 465.82L2.22161 461.081L1.96219 457.891L2.30727 452.147L2.39294 445.494C2.39294 445.494 1.87658 443.67 2.04796 441.755C2.21935 439.841 2.21929 438.747 2.21929 438.747C2.21929 438.747 2.13365 436.923 2.04796 435.192C1.96227 433.461 2.21929 428.445 2.21929 428.445C2.21929 428.445 1.96002 425.255 2.04796 423.25C2.13365 421.245 2.30724 421.61 2.21929 419.605C2.1336 417.6 1.95999 407.937 1.95999 407.937C1.95999 407.937 1.5293 404.109 1.87432 402.649C2.21934 401.19 2.21929 399.185 2.21929 399.185V395.447L2.13363 387.334C2.13363 387.334 1.96227 383.78 2.04796 382.046C2.13365 380.316 2.04796 379.493 2.04796 378.036C2.04796 376.577 2.13363 372.567 2.13363 372.567C2.13363 372.567 2.04794 365.184 2.13363 361.994C2.21932 358.804 2.04796 357.984 2.04796 356.251C2.04796 354.52 2.21935 353.152 2.04796 351.692C1.87658 350.233 1.70289 343.67 1.87652 340.297C2.04791 336.923 2.13583 335.738 2.13583 335.738L1.9645 332.093L1.87884 328.355L1.9645 317.598C1.9645 317.598 1.87881 314.134 1.9645 311.764C2.05019 309.394 2.13583 307.025 2.13583 307.025C2.13583 307.025 1.87655 300.461 1.9645 296.358C2.05245 292.255 2.05017 292.348 2.05017 290.799C2.05017 289.249 1.9645 287.06 1.9645 287.06C1.9645 287.06 1.87878 277.853 2.05017 276.85C2.22155 275.846 2.13583 271.745 2.13583 271.745C2.13583 271.745 2.05017 269.285 2.05017 267.735V263.451L2.30947 254.518C2.30947 254.518 1.79314 249.96 1.87884 248.958C1.96453 247.955 1.87884 245.95 1.87884 245.95C1.87884 245.95 1.87875 238.931 1.79306 234.647C1.70737 230.363 1.53376 230.818 1.7074 228.722C1.87878 226.627 1.53599 226.992 1.79306 224.619C2.05239 222.25 2.30947 213.772 2.30947 213.772L2.13814 208.849C2.13814 208.849 2.22381 205.475 2.22381 203.835C2.22381 202.195 2.30947 194.902 2.30947 194.902C2.30947 194.902 1.87881 190.618 1.9645 187.609C2.05019 184.601 2.56878 181.32 2.39514 176.943C2.22375 172.568 2.48091 173.205 2.48091 170.654C2.48091 168.103 2.99727 167.829 2.82589 165.549C2.6545 163.27 2.74022 163.544 2.74022 161.721C2.74022 159.897 2.56878 152.788 2.56878 152.788L2.48312 146.041V142.031C2.48312 140.481 2.48312 138.111 2.48312 138.111C2.48312 138.111 3.08744 133.279 2.74242 129.178C2.3974 125.075 2.39745 124.62 2.39745 122.889C2.39745 121.158 2.74242 121.614 2.56878 118.786C2.3974 115.961 2.30947 106.298 2.30947 106.298C2.30947 106.298 2.39514 102.469 2.39514 100.19C2.39514 97.9112 2.30953 98.4595 2.48091 96.7263C2.6523 94.9954 2.48091 91.7126 2.48091 91.7126C2.48091 91.7126 3.25657 85.9694 2.91155 81.411C2.56653 76.8527 2.30719 77.2175 2.39514 74.7571C2.48083 72.2968 2.48091 72.5685 2.48091 69.9246C2.48091 67.2807 2.39522 67.3713 2.48091 65.2757C2.5666 63.1801 2.39514 54.6094 2.39514 54.6094C2.39514 54.6094 2.22378 51.7843 2.30947 49.3215C2.39516 46.8612 2.48083 47.2259 2.56878 45.2186C2.65447 43.2136 2.65456 40.9344 2.65456 40.9344C2.65456 40.9344 2.48315 35.1912 2.74022 31.0882C2.99955 26.9852 2.65456 24.0695 2.65456 24.0695C2.65456 24.0695 2.48312 22.1551 2.48312 20.5149C2.48312 18.8746 2.31179 16.8696 2.31179 16.8696C2.31179 16.8696 2.48312 9.3956 2.48312 8.39191C2.48312 7.38822 2.13814 5.29262 2.13814 5.29262L1.70068 0Z" fill="#C33D3D"/>
<path d="M17.1222 979.995C17.1222 979.432 16.954 974.176 16.954 972.674C16.954 971.172 16.6177 969.482 16.6177 967.042C16.6177 964.601 16.4495 964.601 16.4495 961.973C16.4495 959.345 16.2814 957.28 16.2814 957.28L16.954 951.648L16.7859 944.89C16.7859 944.89 16.7859 938.32 16.6177 934.941C16.4495 931.561 17.1222 924.803 17.1222 924.803C17.1222 924.803 16.6177 921.049 16.6177 917.482C16.6177 913.915 16.2814 915.417 16.6177 912.413C16.954 909.409 16.7859 906.218 16.7859 906.218C16.7859 906.218 16.6177 893.453 16.7859 890.449C16.954 887.445 16.954 883.691 16.954 883.691V877.684L17.1222 871.864L16.954 863.979C16.954 863.979 17.1222 853.654 16.954 850.839C16.7859 848.023 16.7859 849.149 16.7859 845.394C16.7859 841.64 16.6177 838.824 16.6177 838.824C16.6177 838.824 16.6177 835.633 16.6177 833.38C16.6177 831.127 16.1132 825.683 16.1132 825.683L16.6177 814.232L16.4495 808.224V803.343C16.4495 803.343 16.6177 794.145 16.6177 790.015C16.6177 785.885 17.1222 786.26 16.6177 783.82C16.1132 781.379 16.2814 779.502 16.2814 779.502C16.2814 779.502 16.1132 775.184 16.2814 772.744C16.4495 770.303 16.4495 767.3 16.4495 767.3C16.4495 767.3 16.6177 764.859 16.6177 762.982C16.6177 761.105 16.6177 759.227 16.6177 759.227C16.6177 759.227 16.2814 757.35 16.4495 755.473C16.6177 753.596 17.1222 751.718 17.1222 751.718C17.1222 751.718 16.6177 753.783 16.7859 747.776C16.954 741.769 16.2814 733.884 16.2814 733.884L16.4495 728.252V722.996L16.6177 716.801C16.6177 716.801 16.1132 714.736 16.2814 712.859C16.4495 710.981 16.6177 708.353 16.6177 708.353C16.6177 708.353 16.4495 701.971 16.4495 697.09C16.4495 692.209 16.4495 689.581 16.4495 689.581C16.4495 689.581 16.2814 687.328 16.4495 684.324C16.6177 681.321 16.7859 681.508 16.954 678.692C17.1222 675.876 17.1222 674.562 17.1222 674.562L16.6177 669.306L16.4495 657.479L17.2904 650.533L16.954 644.714L16.7859 640.771C16.7859 640.771 16.6177 632.136 16.954 627.443C17.2903 622.75 16.954 622.374 16.954 619.746C16.954 617.118 16.7859 615.428 16.7859 615.428L17.2904 610.547C17.2904 610.547 16.4495 601.912 16.6177 598.345C16.7859 594.778 16.7859 591.775 16.7859 591.775V585.955V580.135C16.7859 580.135 17.6267 571.875 16.954 566.807C16.2814 561.738 15.7769 562.677 16.1132 559.861C16.4495 557.045 16.4495 557.984 16.6177 554.417C16.7859 550.85 16.954 547.095 16.7859 545.969C16.6177 544.843 17.1222 538.272 16.954 531.326C16.7859 524.38 16.4495 523.254 16.4495 523.254L16.1132 518.373L16.4495 510.488C16.4495 510.488 16.6177 501.853 16.6177 497.347C16.6177 492.842 16.6177 491.903 16.7859 488.337C16.954 484.77 16.7859 481.766 16.7859 481.766L16.4495 475.008C16.4495 475.008 16.954 473.694 17.1222 465.246C17.2904 456.798 16.7859 453.795 16.7859 453.795C16.7859 453.795 16.2814 450.04 16.6177 447.037C16.954 444.033 16.954 440.842 16.954 440.842C16.954 440.842 16.2814 431.267 16.7859 426.386C17.2903 421.506 16.7859 417.939 16.7859 417.939L16.1132 412.682C16.1132 412.682 16.6177 409.866 16.6177 406.675C16.6177 403.484 17.6267 400.856 17.1222 395.787C16.6177 390.718 15.6087 390.906 16.2814 388.841C16.954 386.776 17.963 389.404 17.2904 385.837C16.6177 382.271 15.6087 382.646 16.2814 380.393C16.954 378.14 16.1132 374.011 16.4495 369.317C16.7859 364.624 16.2814 364.436 16.4495 361.808C16.6177 359.18 15.6087 359.555 16.2814 355.801C16.954 352.046 16.954 347.541 16.7859 343.974C16.6177 340.407 16.4495 336.277 16.4495 336.277L16.7859 331.021C16.954 328.393 17.2904 325.201 17.2904 325.201L16.4495 317.505L16.6177 309.057L17.1222 300.046L16.7859 294.039C16.7859 294.039 16.6177 284.089 16.7859 279.959C16.954 275.829 17.2904 272.074 17.2904 272.074L16.4495 265.879L16.7859 251.049C16.7859 251.049 16.2814 245.605 16.2814 243.164C16.2814 240.724 16.4495 237.72 16.4495 237.72L16.954 220.637L16.2814 211.063L16.6177 205.056C16.6177 205.056 16.2814 201.301 16.6177 198.485C16.954 195.669 16.954 184.593 16.954 184.593C16.954 184.593 15.6087 181.965 16.1132 176.897C16.6177 171.828 16.6177 169.951 16.6177 169.951V163.38C16.6177 160.564 17.2904 149.676 17.2904 149.676C17.2904 149.676 16.2814 144.795 16.4495 140.853C16.6177 136.911 16.7859 133.907 16.7859 133.907L16.6177 126.21L16.7859 119.076C16.7859 119.076 16.4495 114.383 16.4495 111.38C16.4495 108.376 16.4495 105.372 16.4495 105.372L16.2814 98.9896C16.2814 98.9896 16.6177 87.9137 16.6177 85.4732C16.6177 83.0328 16.6177 80.0291 16.6177 80.0291C16.6177 80.0291 16.1132 77.0255 16.2814 75.5237C16.4495 74.0218 16.2814 73.8341 16.4495 71.7691C16.6177 69.7041 16.7859 68.7655 16.7859 67.0759C16.7859 65.3864 17.4585 64.26 17.2904 62.5705C17.1222 60.8809 17.7949 56 17.7949 56L18.2994 60.6932C18.2994 60.6932 18.972 65.9496 18.972 68.0146C18.972 70.0796 19.1402 74.2096 19.1402 74.2096C19.1402 74.2096 20.2124 75.7333 19.4241 78.7248C18.6357 81.7187 20.1492 84.91 19.6447 89.6032C19.1402 94.2964 19.1402 95.2351 19.1402 97.3001C19.1402 99.3651 19.3084 102.181 19.3084 102.181C19.3084 102.181 19.6447 110.253 19.6447 112.881C19.6447 115.51 19.981 121.705 19.8129 125.835C19.6447 129.965 19.6447 134.095 19.6447 134.095C19.6447 134.095 19.4765 136.911 19.4765 139.726C19.4765 142.542 19.4765 144.795 19.4765 144.795L19.3084 149.676C19.3084 149.676 19.1402 166.008 19.1402 169.39C19.1402 172.769 19.6447 173.144 19.1402 175.773C18.6357 178.401 18.8039 180.09 18.8039 180.09C18.8039 180.09 19.3083 183.657 19.1402 185.91C18.972 188.163 18.4675 189.289 18.972 190.979C19.4765 192.668 19.3084 194.17 19.3084 194.17L18.8039 198.3L19.1402 201.491C19.1402 201.491 19.4765 213.13 19.4765 215.946C19.4765 218.762 19.4765 218.575 19.3084 221.203C19.1402 223.831 19.1402 225.896 19.1402 225.896C19.1402 225.896 19.4765 230.777 19.4765 234.907C19.4765 239.037 19.1402 235.282 18.972 240.914C18.8039 246.546 18.8039 248.611 18.8039 248.611L19.1402 251.051L19.3084 255.369L19.8129 265.506L19.1402 271.701C19.1402 271.701 19.4765 274.142 19.1402 276.019C18.8039 277.896 18.2994 277.146 18.6357 279.586C18.972 282.026 19.3084 288.597 19.3084 288.597L19.1402 294.792L19.6447 299.861C19.6447 299.861 19.4765 307.182 19.3084 309.622C19.1402 312.063 18.8039 314.316 18.8039 314.316C18.8039 314.316 19.8128 317.695 19.6447 320.323C19.4765 322.951 19.3084 327.644 19.3084 327.644C19.3084 327.644 19.4765 331.399 19.3084 337.031C19.1402 342.662 18.972 347.919 18.972 347.919C18.972 347.919 19.6447 353.175 19.6447 356.742C19.6447 360.309 19.4765 364.063 19.4765 364.063C19.4765 364.063 19.981 368.569 19.4765 372.323C18.972 376.078 19.6447 378.706 19.6447 383.399C19.6447 386.528 19.5886 389.219 19.4765 391.472C19.3084 394.851 18.972 392.41 18.972 397.479C18.972 402.548 19.3083 409.118 19.1402 413.06C18.972 417.003 18.972 416.252 18.972 418.88C18.972 421.508 19.3084 428.266 19.3084 432.208C19.3084 436.151 19.1402 440.093 19.1402 440.093L18.972 446.1C18.972 446.1 19.8128 456.989 19.4765 461.494C19.1402 465.999 18.972 470.129 18.972 470.129C18.972 470.129 18.8039 472.945 18.8039 476.512C18.8039 480.079 19.8128 484.584 19.4765 489.653C19.1402 494.722 19.1402 498.852 19.1402 498.852C19.1402 498.852 19.4765 499.978 19.1402 503.92C18.8039 507.863 18.972 518.751 18.972 521.755C18.972 524.758 18.972 527.199 18.972 527.199L19.3084 532.455C19.3084 532.455 19.4765 538.65 19.4765 541.466C19.4765 544.282 19.3084 547.473 19.3084 549.914V555.546C19.3084 555.546 19.3084 555.358 19.3084 559.863C19.3084 564.369 19.3084 570.188 19.3084 574.131C19.3084 578.073 19.3084 582.203 19.3084 582.203C19.3084 582.203 18.8039 584.08 18.972 587.084C19.1402 590.087 18.972 600.037 18.972 602.477C18.972 604.918 18.8039 609.236 18.8039 609.236C18.8039 609.236 19.1402 610.362 18.972 615.055C18.8039 619.748 19.1402 628.759 19.1402 628.759C19.1402 628.759 18.4675 633.828 18.6357 636.644C18.8038 639.46 18.8039 648.658 18.972 652.225C19.1402 655.792 18.972 654.478 18.972 659.171C18.972 663.864 18.972 677.005 18.972 680.762C18.972 684.519 18.6357 685.268 18.8039 688.271C18.972 691.275 18.6357 689.773 18.6357 693.528C18.6357 697.282 18.4675 701.037 18.972 704.979C19.4765 708.921 19.6447 709.86 19.6447 712.3C19.6447 714.741 19.4765 719.059 19.4765 719.059C19.4765 719.059 18.972 719.81 18.8039 724.878C18.6357 729.947 19.6447 731.449 19.4765 736.705C19.3084 741.961 19.1402 741.961 19.1402 744.402C19.1402 746.842 19.3084 749.658 19.3084 749.658C19.3084 749.658 19.3084 759.608 19.3084 763.362C19.3084 767.117 18.972 768.431 18.972 770.684C18.972 772.937 19.1402 774.626 19.1402 774.626C19.1402 774.626 19.6447 783.637 19.4765 786.641C19.3084 789.644 18.972 789.457 18.972 792.836C18.972 796.215 18.972 798.092 18.972 798.092C18.972 798.092 19.1402 809.543 19.1402 812.172C19.1402 814.8 18.8039 817.24 18.972 819.117C19.1402 820.995 19.3084 823.247 19.3084 823.247C19.3084 823.247 19.1402 828.691 19.3084 832.446C19.4765 836.201 19.1402 837.515 19.3084 840.331C19.4765 843.147 19.4765 846.901 19.3084 849.529C19.1402 852.158 20.1492 847.84 19.981 853.284C19.8129 858.728 19.4765 862.107 19.4765 862.107V868.49C19.4765 868.49 19.981 871.493 19.6447 874.122C19.3084 876.75 20.1492 881.818 19.8129 886.887C19.4765 891.956 19.6447 894.396 19.4765 897.212C19.3084 900.028 19.8128 898.714 19.4765 902.844C19.1402 906.974 19.1402 913.544 19.3084 918.801C19.4765 924.057 19.3084 926.498 19.3084 928.563C19.3084 930.628 19.6447 933.819 19.6447 933.819C19.6447 933.819 19.4765 945.834 19.4765 949.213C19.4765 952.592 19.3084 954.281 19.3084 955.971C19.3084 957.66 19.4765 957.473 19.3084 959.538C19.1402 961.603 18.972 962.729 18.8039 964.231C18.6357 965.733 17.963 967.985 18.1312 969.863C18.2994 971.74 17.7949 973.054 17.7949 974.744C17.7949 976.433 17.1222 980 17.1222 980V979.995Z" fill="#C33D3D"/>
</svg>
