<svg width="61" height="60" viewBox="0 0 61 60" fill="none" xmlns="http://www.w3.org/2000/svg">
<path d="M0.334951 55.9732C0.209575 55.5968 -0.166556 53.5875 0.0841954 52.082C0.334947 50.5764 0.209573 49.6962 0.585701 48.0652C0.961829 46.4322 1.08721 45.9304 1.33796 44.5504C1.58871 43.1703 1.33796 42.541 1.83946 42.0391C2.34097 41.5373 2.71709 40.4062 2.71709 40.4062C2.71709 40.4062 2.59172 39.0261 3.46935 38.0204C4.34698 37.0167 4.47235 36.8913 4.84848 35.2583C5.22461 33.6253 5.60073 33.2488 6.73114 31.4924C7.85952 29.734 7.85952 29.1067 8.48843 27.9775C9.11531 26.8484 10.6218 25.7173 10.6218 25.7173L12.3791 23.4569C12.3791 23.4569 12.8806 22.5787 14.011 21.4476C15.1394 20.3184 16.7713 18.9364 18.2758 17.5563C19.7804 16.1762 20.1585 16.0508 21.2869 15.0451C22.4153 14.0414 22.666 13.665 23.4203 13.2866C24.1725 12.9102 24.4233 12.4084 25.5537 11.7811C26.6821 11.1538 26.9328 11.0283 28.1886 10.401C29.4424 9.77373 29.5678 9.77374 30.6982 9.14644C31.8265 8.51914 31.0743 8.39369 32.5808 7.89185C34.0853 7.39002 33.2077 6.88816 35.2157 6.51178C37.2238 6.13541 37.7253 5.25722 40.2348 4.87882C42.7444 4.50244 42.8697 4.62788 44.2489 4.2515C45.628 3.87512 45.3773 3.74964 46.8838 3.62418C48.3883 3.49872 47.636 3.24783 49.1426 3.24783C50.6491 3.24783 50.7745 3.37329 51.7775 3.49875C52.7805 3.62421 52.9059 4.12602 54.0363 4.12602C55.1667 4.12602 55.4154 4.25148 56.1697 4.37694C56.922 4.5024 58.0524 4.75334 58.0524 4.75334L60.4365 5.88249C60.4365 5.88249 58.8956 5.65991 58.3436 5.53647C57.7935 5.41304 56.6287 5.23092 56.6287 5.23092C56.6287 5.23092 55.7107 5.10744 54.9139 4.98602C54.1172 4.86461 53.8725 4.92533 53.1991 4.74118C52.5257 4.55704 52.2204 4.3729 51.8523 4.43563C51.4843 4.49836 50.1375 4.49634 50.1375 4.49634C50.1375 4.49634 48.178 4.55703 47.3833 4.68047C46.5886 4.8039 45.4844 5.10948 45.4844 5.10948C45.4844 5.10948 44.627 5.17018 44.077 5.35432C43.527 5.53847 43.8323 5.53848 42.9749 5.72262C42.1175 5.90676 41.1994 6.15159 41.1994 6.15159C41.1994 6.15159 39.9133 6.15162 38.8112 6.64132C37.7091 7.13102 37.4644 7.13102 36.6677 7.56001C35.8709 7.98901 35.4422 7.86555 34.8315 8.29454C34.2208 8.72353 33.2401 9.27395 33.2401 9.27395L31.3412 10.5002C31.3412 10.5002 30.4231 10.4395 29.3817 11.4189C28.3403 12.3983 28.4636 11.7872 27.4222 12.89C26.3808 13.9928 26.5648 13.9321 25.6467 14.4825C24.7287 15.033 24.7287 14.4825 24.1159 15.1564C23.5032 15.8302 22.4011 16.1357 21.1777 17.4855C19.9522 18.8331 19.7076 18.7117 19.2788 19.3856C18.8501 20.0594 17.8714 20.5491 17.8714 20.5491L16.5246 21.8361C16.5246 21.8361 14.6258 23.2445 14.0151 23.9183C13.4044 24.5921 13.5257 24.5922 12.9737 25.266C12.4216 25.9399 12.1769 26.124 11.8109 26.7371C11.4429 27.3502 10.7695 28.3296 10.7695 28.3296C10.7695 28.3296 9.29933 29.309 8.87062 30.4119C8.44192 31.5147 8.6866 31.6381 7.95255 32.8017L7.21849 33.9652C7.21849 33.9652 6.30042 35.1287 5.68769 36.9681C5.07497 38.8055 4.64626 38.6213 4.40158 39.6635C4.15689 40.7056 4.15689 40.1532 3.85154 41.3168C3.54619 42.4803 2.50476 42.6644 2.38141 44.5018C2.25806 46.3392 2.44207 46.2785 2.07606 47.3206C1.70802 48.3627 1.64735 48.3 1.46333 49.2207C1.27931 50.1415 1.27931 50.0786 1.09529 51.058C0.911272 52.0374 0.605921 53.2638 0.545255 53.7535C0.484589 54.2432 0.341018 55.9732 0.341018 55.9732H0.334951Z" fill="#C33D3D"/>
<path d="M40.3258 40.6976C40.3258 40.6976 39.0174 39.1272 38.2996 38.4068C37.5797 37.6865 36.9912 37.3607 36.5989 36.6403C36.2066 35.9199 36.338 35.8552 35.7496 35.2663C35.1611 34.6775 34.965 34.546 34.5727 34.0239C34.1804 33.4998 34.1804 33.5666 33.3958 32.911C32.6111 32.2574 32.5464 31.9943 32.0874 31.0129C31.6304 30.0314 29.865 28.789 29.0784 27.7408C28.2938 26.6946 28.229 26.6279 27.313 25.5169C26.3969 24.404 25.4829 23.5541 25.4829 23.5541C25.4829 23.5541 23.9137 21.0671 23.1938 20.2172C22.4739 19.3674 22.213 19.6284 21.6893 18.9748C21.1655 18.3212 21.1008 18.5175 20.5771 17.7323C20.0533 16.9472 19.8572 15.9011 18.8764 14.9844C17.8957 14.0677 17.3072 13.4789 17.3072 13.4789L16.0656 11.9733C16.0656 11.9733 15.5418 11.0567 15.1495 10.5993C14.7572 10.142 14.104 9.22539 14.104 9.22539C14.104 9.22539 14.1688 10.5346 14.2355 10.9272C14.3002 11.3197 14.3002 11.6475 14.1708 12.1696C14.0414 12.6917 14.0393 13.2826 14.0393 13.2826L13.9746 14.7881L13.8432 16.0305L13.7117 17.273C13.7117 17.273 13.3841 16.0953 13.3194 15.4417C13.2547 14.7881 13.1233 13.3473 13.1233 13.3473V11.7771C13.1233 11.7771 12.8624 10.6641 12.8624 9.87899C12.8624 9.09386 12.7977 9.22535 12.7977 8.37344C12.7977 7.52153 12.733 6.67166 12.733 6.47538C12.733 6.27909 12.6683 5.82178 12.6683 5.82178C12.6683 5.82178 14.0414 6.14959 14.4984 6.2791C14.9554 6.41063 15.8067 6.47536 16.4599 6.60689C17.1131 6.73842 17.3092 6.80318 18.0938 6.86793C18.8784 6.93269 19.7278 7.26049 19.7278 7.26049L21.4931 7.84937L23.1938 8.37344C23.1938 8.37344 21.297 8.43821 20.9047 8.24193C20.5124 8.04564 19.204 8.04567 18.747 7.91414C18.29 7.78261 17.3092 7.84937 17.3092 7.84937C17.3092 7.84937 16.2637 7.58833 15.9361 7.58833C15.6086 7.58833 14.9554 7.45682 14.9554 7.45682L16.197 9.22336C16.197 9.22336 16.5893 10.2048 17.3092 11.1214C18.0291 12.0381 17.7015 11.8418 18.4861 12.6917C19.2707 13.5416 19.206 13.3453 19.7278 14.1305C20.2515 14.9156 21.4931 16.5526 22.4092 17.5988C23.3252 18.645 23.6508 19.0375 24.1746 19.6932C24.6983 20.3468 24.5669 20.4135 25.6791 21.5912C26.7913 22.7689 27.8367 24.0782 28.4919 24.9281C29.1451 25.7779 29.6689 26.4336 30.6496 27.4798C31.6304 28.5259 31.8912 29.1816 32.6111 29.9667C33.331 30.7518 33.0682 31.0129 33.5919 31.6685C34.1157 32.3221 35.5534 33.696 35.9457 34.3517C36.338 35.0053 37.0579 36.2498 37.3835 36.6424C37.7111 37.0349 38.7566 38.2774 38.888 38.4736C39.0195 38.6699 40.3258 40.6976 40.3258 40.6976Z" fill="#C33D3D"/>
<path d="M40.9143 24.8613C40.7182 24.8613 39.9335 25.3186 39.4765 25.3854C39.0195 25.4501 38.7566 25.7132 38.1035 26.039C37.4503 26.3668 37.3189 26.3668 36.7951 26.6926C36.2714 27.0184 36.4675 27.4777 35.6829 27.8055C34.8983 28.1333 34.7668 28.2629 34.3098 28.5907C33.8528 28.9185 34.1137 28.8517 33.2644 29.2443C32.415 29.6369 32.3483 29.7016 32.1521 30.0294C31.956 30.3572 32.1521 30.5535 31.499 30.9461C31.0635 31.2078 30.6497 31.5133 30.2574 31.8627C29.6689 32.3868 29.5375 32.8442 29.2766 33.1052C29.0157 33.3663 28.6234 33.4978 28.2958 34.1514C27.9682 34.805 27.9682 35.0013 27.5759 35.4606C27.1836 35.92 27.3798 35.9847 26.9875 36.703C26.5952 37.4234 26.0714 38.1418 26.0714 38.1418L25.5477 39.3195L25.0907 40.6287C25.0907 40.6287 25.1554 38.4048 25.4182 38.0102C25.6811 37.6156 25.942 36.6363 26.2029 35.9159C26.4637 35.1956 26.399 34.9992 26.7913 34.3456C27.1836 33.692 27.2483 33.429 27.6406 32.7754C28.0329 32.1218 27.8368 31.9255 28.3605 31.3366C28.8843 30.7478 29.2099 30.2904 29.7336 29.8311C30.2574 29.3738 30.3868 29.1775 30.9752 28.7849C31.5637 28.3924 31.499 28.3924 32.1521 27.8683C32.8053 27.3442 33.1976 27.2794 33.7861 26.9516C34.3745 26.6238 35.0944 26.4275 35.5515 26.1665C36.0085 25.9054 36.2714 25.5129 36.9245 25.3813C37.5777 25.2498 38.6252 25.1203 38.6252 25.1203L39.9983 24.7277L40.9143 24.8593V24.8613Z" fill="#C33D3D"/>
<path d="M16.8481 34.3497C16.8481 34.3497 16.0635 33.9572 15.2789 33.4331C14.4943 32.909 14.2335 32.7794 13.645 32.5831C13.0565 32.3869 12.0758 31.9295 12.0758 31.9295L10.7674 31.3407C10.7674 31.3407 9.72194 30.6871 9.26291 30.424C8.80589 30.163 8.47829 30.0315 8.02128 29.7036C7.56426 29.3758 6.32061 28.6575 6.32061 28.6575L5.01226 27.6113L2.78987 25.9763C2.78987 25.9763 4.61995 26.3688 5.40659 26.8929C6.1912 27.417 7.62897 28.2669 7.62897 28.2669C7.62897 28.2669 9.19819 29.0521 9.9181 29.4446C10.638 29.8372 11.8796 30.4908 11.8796 30.4908L14.0373 31.6685L15.9988 33.3703L16.8481 34.3517V34.3497Z" fill="#C33D3D"/>
<path d="M39.1489 18.1876L38.9528 15.636L38.4958 13.5416L38.0387 11.514C38.0387 11.514 38.1702 10.4011 38.1035 9.87898C38.0387 9.35488 37.7759 8.17715 37.7759 8.17715C37.7759 8.17715 37.6444 7.39205 37.4483 6.54216C37.2521 5.69227 36.9912 4.90712 36.9912 4.90712C36.9912 4.90712 36.7951 3.59789 36.4675 2.87953C36.1399 2.16117 35.422 3.05176e-05 35.422 3.05176e-05L35.4867 2.68325L35.5514 4.58131L35.879 6.93674L36.5322 9.35892L37.3168 11.7143L37.97 14.0697L38.4937 16.0973L39.1469 18.1917L39.1489 18.1876Z" fill="#C33D3D"/>
<path d="M48.3034 23.0947C48.6957 23.0299 49.2841 23.03 49.545 23.2262C49.8059 23.4225 49.9373 23.4873 50.1335 23.6836C50.3296 23.8798 50.5905 24.2076 50.5905 24.2076L50.9828 24.9928V25.5816C50.9828 25.5816 50.9181 25.7131 50.7219 26.2352C50.5258 26.7593 51.1789 26.3668 50.5258 26.7593C49.8726 27.1519 49.8059 27.0872 49.4803 27.2167C49.1547 27.3462 49.088 27.4777 48.6957 27.3482C48.3034 27.2187 48.1719 27.2835 47.8464 27.0872C47.5208 26.8909 47.2579 26.5631 47.2579 26.5631L46.8009 25.7779V24.7317L47.1285 24.0114L47.4561 23.4225L48.3054 23.0947H48.3034Z" fill="#C33D3D"/>
<path d="M48.7604 31.3386C49.1527 31.3386 50.1335 31.9275 50.1335 31.9275C50.1335 31.9275 50.722 32.1238 50.722 32.7126C50.722 33.3015 51.0496 33.694 51.0496 33.694C51.0496 33.694 51.0496 33.9551 50.7887 34.4792C50.5278 35.0033 50.724 34.1513 50.5278 35.0032C50.3317 35.8552 50.1355 35.9199 49.6118 35.9847C49.088 36.0494 49.7432 35.9199 48.6957 35.9847C47.6503 36.0494 47.5188 36.1162 47.258 35.7884C46.9971 35.4605 46.6695 35.2643 46.6695 35.2643L46.1457 34.1513V32.9737C46.1457 32.9737 46.1457 32.057 46.6028 31.9922C47.0598 31.9275 47.3874 31.7959 47.715 31.6644C48.0426 31.5329 48.7604 31.3366 48.7604 31.3366V31.3386Z" fill="#C33D3D"/>
<path d="M31.9539 44.4916C32.4109 44.2954 32.7385 44.6232 33.2623 44.8195C33.786 45.0158 34.243 45.0805 34.243 45.4731C34.243 45.8656 34.4392 46.586 34.4392 46.586L34.5706 47.2396C34.5706 47.2396 34.7021 47.7636 34.3745 48.221C34.0469 48.6783 34.5706 48.3526 34.0469 48.6783C33.5231 49.0041 33.5899 49.1356 33.0014 49.1356C32.4129 49.1356 33.2623 49.4634 32.4129 49.1356C31.5636 48.8078 31.6283 49.0041 31.1713 48.7431C30.7143 48.482 30.6476 48.5468 30.3867 48.0895C30.1258 47.6321 29.863 47.5006 29.863 46.9765C29.863 46.4524 29.7315 45.6025 29.7315 45.6025L30.5161 44.8821C30.5161 44.8821 30.4514 44.4896 30.9731 44.3581C31.4949 44.2265 31.9539 44.4896 31.9539 44.4896V44.4916Z" fill="#C33D3D"/>
<path d="M23.2565 43.9028C23.7135 43.9028 24.1058 44.0344 24.6295 44.2307C25.1533 44.427 25.4142 44.5584 25.4789 45.0805C25.5436 45.6026 25.8065 45.8657 25.7397 46.2583C25.675 46.6508 25.8044 46.7155 25.4789 47.1749C25.1513 47.6322 25.8712 47.1102 25.1513 47.6323C24.4314 48.1564 24.1058 48.4174 24.1058 48.4174L22.8642 48.221L22.1443 47.5007L21.6205 46.4545L21.4891 45.4083C21.4891 45.4083 21.5538 44.6232 22.0128 44.4917C22.4719 44.3602 23.2545 43.9028 23.2545 43.9028H23.2565Z" fill="#C33D3D"/>
<path d="M38.2045 48.5833L38.6716 48.2009L39.1833 47.3064V47.009L38.5018 46.0721C38.5018 46.0721 38.9264 46.327 39.0559 46.412C39.1833 46.497 39.6949 46.752 39.6949 46.752L39.4825 46.3695L38.9285 45.6876L38.6312 45.0482C38.6312 45.0482 39.2702 45.5581 39.525 45.7302C39.7798 45.9001 40.164 46.0276 40.164 46.0276C40.164 46.0276 40.888 45.3032 41.1852 45.0907C41.4825 44.8782 41.5674 44.7082 41.9941 44.2813C42.4188 43.8563 42.803 43.6418 43.2701 43.1743C43.7372 42.7069 44.8009 41.8125 45.1427 41.513C45.4824 41.2156 45.5673 41.2581 45.7817 40.9161C45.994 40.5762 46.5905 40.3616 46.5905 40.3616L47.3145 39.7222C47.3145 39.7222 48.1234 39.1678 48.3357 38.9978C48.548 38.8278 49.5268 38.2734 49.5268 38.2734C49.5268 38.2734 49.1446 38.7408 49.0152 39.0403C48.8878 39.3378 48.5056 39.3802 48.2487 39.7647C47.9939 40.1471 47.4823 40.3616 47.4823 40.3616C47.4823 40.3616 47.9919 40.8291 48.0789 40.9586C48.1638 41.0861 48.3761 41.2985 48.6754 41.598C48.9727 41.8955 49.3994 42.1525 49.7816 42.5775C50.1638 43.0024 50.2912 43.0449 50.6329 43.4718C50.9726 43.8968 51.2295 43.9818 51.7815 44.4087C52.3356 44.8337 52.3781 44.8761 52.7178 45.4306C52.8775 45.6916 53.104 45.9223 53.2982 46.0963H53.3022L53.7248 45.9426L54.2223 45.5642L54.6146 45.2768L55.0069 44.8984L55.565 44.4896L55.3385 44.8377L55.0676 45.2L54.7663 45.5317L54.3578 46.0154C54.3578 46.0154 54.1758 46.3634 53.9796 46.5132C53.9513 46.5354 53.9271 46.5618 53.9028 46.5902C54.0585 46.7278 54.2789 46.926 54.4811 47.1162C54.562 47.0434 54.7784 46.8511 54.8997 46.754C55.0514 46.6326 55.201 46.6022 55.3527 46.5132C55.5044 46.4221 55.7753 46.2866 55.7753 46.2866L56.016 46.1044L56.7096 45.6066L56.5741 45.7584L56.3476 46.1206C56.3476 46.1206 56.1656 46.2866 56.0301 46.4687C55.8947 46.6508 55.7288 46.6346 55.563 46.8167C55.3972 46.9988 55.1545 47.3449 55.1545 47.3449L54.9746 47.5999C55.193 47.8083 55.3446 47.9439 55.565 48.1968C55.6702 48.3183 55.7976 48.4922 55.9189 48.6663C56.1373 48.984 56.3314 49.3037 56.3314 49.3037L55.7652 48.9051L55.1485 48.5165L54.6551 48.1624C54.6551 48.1624 54.376 48.1968 54.2486 48.4093C54.1212 48.6217 53.3305 49.2571 53.3305 49.2571L52.7137 49.8582C52.7137 49.8582 51.737 50.5381 51.4377 50.8355C51.1405 51.133 50.6713 51.8149 50.6713 51.8149C50.6713 51.8149 51.1809 51.5174 51.3103 51.4324C51.4377 51.3474 52.4589 50.8355 52.4589 50.8355L51.8624 51.4324C51.8624 51.4324 51.3508 51.8574 51.0535 52.1144C50.7563 52.3714 50.457 52.5818 50.2022 52.6243C49.9474 52.6668 49.0111 53.4337 49.0111 53.4337C49.0111 53.4337 49.3933 52.8793 49.5227 52.8368C49.6501 52.7943 49.9049 52.2399 49.9049 52.2399L49.4803 52.4098C49.4803 52.4098 49.0981 52.7498 48.8837 52.8773C48.6714 53.0048 48.1598 53.5592 48.1598 53.5592L47.9899 54.0267C47.9899 54.0267 47.905 54.5366 47.8625 54.8361C47.82 55.1336 47.9474 55.348 47.9474 55.688C47.9474 56.028 47.8625 56.6249 47.8625 56.6249L47.82 57.5617L47.7351 59.0935C47.7351 59.0935 47.6502 58.6262 47.6502 58.4542C47.6502 58.2822 47.6077 58.0292 47.5228 57.7722C47.4378 57.5172 47.4378 57.3897 47.4378 57.0902C47.4378 56.7908 47.3954 56.1109 47.3954 56.1109L47.183 54.919L46.6714 54.4091L46.3742 54.6216L45.992 54.9615C45.992 54.9615 45.4804 55.259 45.1406 55.4289C44.8009 55.5989 43.992 56.2383 43.992 56.2383L44.2893 55.8559L44.6715 55.3885C44.6715 55.3885 45.0112 55.0485 45.268 54.8765C45.5228 54.7065 45.4379 54.664 45.7352 54.4515C46.0324 54.2391 46.1174 53.8971 46.1174 53.8971L45.7776 53.3851C45.7776 53.3851 45.3105 52.8753 45.0961 52.7033C44.8838 52.5333 44.4571 52.0213 44.4571 52.0213L43.8606 51.3394C43.8606 51.3394 43.6058 51.0419 43.351 50.7424C43.0962 50.4449 43.0113 50.36 42.6695 50.0605C42.3298 49.7631 41.9456 49.4636 41.7332 49.2511C41.5209 49.0386 40.4997 48.3567 40.4997 48.3567L39.7333 48.5691L40.0306 48.1867L40.2854 47.6767L39.9032 47.5918L39.4785 47.8893L39.0538 48.1867L37.9902 48.9961L38.2025 48.5711L38.2045 48.5833Z" fill="#C33D3D"/>
</svg>
