<svg width="1828" height="20" viewBox="0 0 1828 20" fill="none" xmlns="http://www.w3.org/2000/svg">
<path d="M1.80713e-07 1.70081C1.80713e-07 1.70081 13.4781 1.18436 17.394 1.18436C21.3099 1.18436 27.9342 0.764808 33.1554 0.764809C38.3765 0.76481 38.7039 0.76481 45.2261 0.764811C51.7526 0.764811 58.2791 1.28358 65.7835 1.10993C73.2879 0.936274 71.332 0.936269 79.487 0.93627C87.6419 0.936271 93.1904 0.936272 93.1904 0.936272C93.1904 0.936272 115.376 0.762618 121.252 0.762619C127.128 0.76262 133 0.76262 133 0.76262L148.009 1.10762L163.345 0.762625C163.345 0.762625 185.207 0.762623 195.318 0.588972C205.429 0.415321 202.822 0.41532 212.937 0.588974C223.052 0.762628 220.442 1.28129 228.924 1.28129C237.406 1.28129 258.287 0.762638 264.813 0.762639C271.34 0.76264 279.172 0.417639 279.172 0.417639C279.172 0.417639 306.579 0.93624 314.083 0.591191C321.587 0.246142 329.742 0.417646 329.742 0.417646C329.742 0.417646 336.919 0.243994 344.1 0.417648C351.282 0.591302 361.72 0.762595 368.569 0.591198C375.423 0.417547 379.012 -0.101112 386.516 0.0725421C394.021 0.246196 402.176 0.591203 402.176 0.591203C402.176 0.591203 417.512 0.591205 423.711 0.591206C429.91 0.591207 433.171 0.246206 439.697 0.246207C446.224 0.246208 454.056 0.93852 462.861 0.764869C471.671 0.591217 472.976 1.10992 478.52 0.764871C484.065 0.419821 491.573 0.591216 491.573 0.591216L505.604 0.41767C505.604 0.41767 515.719 0.417672 523.551 0.417673C531.383 0.417674 539.21 0.76262 545.414 0.591223C551.613 0.417571 558.79 0.417678 558.79 0.417678C558.79 0.417678 572.821 0.591333 578.692 0.417681C584.564 0.244029 593.701 0.591335 603.816 0.417684C613.931 0.244033 621.435 0.24403 621.435 0.24403L637.749 1.11L649.497 0.764895C649.497 0.764895 663.528 0.764897 673.643 0.764898C683.758 0.764899 687.346 0.591243 693.545 0.591244C699.745 0.591244 699.094 0.591249 707.576 0.764903C716.059 0.938556 729.439 0.419851 734.656 0.591249C739.877 0.764903 740.204 0.2462 752.603 0.591252C765.001 0.936304 786.209 0.41771 786.209 0.41771C786.209 0.41771 787.514 0.243951 806.111 0.591259C824.708 0.936312 844.284 0.417718 844.284 0.417718L862.554 0.244063C862.554 0.244063 873.646 0.0704163 882.129 0.417723C890.611 0.762774 905.292 0.591379 912.474 0.417727C919.651 0.244075 929.115 0.591276 929.115 0.591276C929.115 0.591276 960.111 0.417734 968.92 0.417735C977.73 0.417736 975.447 0.244083 987.19 0.417737C998.934 0.591392 1027.97 0.762745 1027.97 0.762745C1027.97 0.762745 1030.58 -0.274621 1040.37 0.0704307L1055.05 0.589091C1055.05 0.589091 1076.59 1.2814 1083.11 0.934097C1089.64 0.589048 1089.31 0.241782 1096.49 0.241783C1103.67 0.241784 1110.19 0.586897 1110.19 0.586897C1110.19 0.586897 1138.26 0.413248 1145.76 0.586902C1153.26 0.760555 1149.02 0.760449 1160.44 0.760451C1171.86 0.760452 1192.09 0.760455 1197.64 0.760456C1203.18 0.760457 1200.57 0.586804 1214.28 0.760458C1227.98 0.934113 1244.3 0.415461 1257.35 0.415463C1270.4 0.415464 1266.48 0.415468 1274.64 0.589122C1282.79 0.762776 1307.6 0.41547 1315.75 0.415471C1323.91 0.415472 1331.74 0.58913 1331.74 0.58913L1347.72 0.934134C1347.72 0.934134 1351.97 0.241819 1363.71 0.24182C1375.46 0.241822 1390.79 0.760483 1400.25 0.760484C1409.71 0.760485 1418.2 0.760487 1418.2 0.760487C1418.2 0.760487 1420.81 0.934144 1430.93 0.934145C1441.04 0.934147 1455.07 1.2792 1463.88 1.10781C1472.69 0.936411 1470.45 0.40652 1480.89 0.577919C1491.33 0.751573 1516.09 1.2792 1522.94 0.760501C1529.79 0.241799 1536 0.749297 1541.21 0.663599C1551.99 0.485438 1564.38 1.27921 1575.14 0.760508C1585.91 0.241807 1592.76 0.415509 1592.76 0.415509L1603.85 0.760512C1603.85 0.760512 1620.5 0.586968 1628.32 0.586969C1636.16 0.58697 1637.78 0.931972 1643.33 0.931973C1648.88 0.931973 1656.39 1.10562 1666.5 0.758319C1676.61 0.411015 1676.94 0.239666 1683.14 0.413319C1689.34 0.586973 1705 0.758324 1713.16 0.758325C1721.31 0.758326 1724.58 0.584674 1729.47 0.758328C1734.36 0.931981 1735.34 0.931985 1738.93 0.931986C1742.52 0.931986 1754.27 0.931988 1758.83 0.931989C1763.4 0.931989 1769.27 0.758333 1769.27 0.758333L1777.43 1.10334C1777.43 1.10334 1786.24 1.10333 1792.11 0.929681C1797.98 0.756029 1798.64 0.584737 1802.88 0.756135C1807.12 0.927533 1806.79 0.929683 1810.71 0.929683C1814.62 0.929684 1817.89 0.929689 1819.19 1.10334C1820.5 1.27699 1828 1.62211 1828 1.62211C1828 1.62211 1821.31 1.52284 1818.22 1.69424C1815.13 1.86564 1805.21 1.60859 1801.15 1.86569C1797.09 2.12504 1782.62 2.03706 1776.44 2.12502C1770.26 2.21071 1770.91 1.95364 1766.36 2.03934C1761.8 2.12504 1762.29 2.38437 1757.91 2.29867C1753.52 2.21297 1747.01 2.1273 1741.32 2.213C1735.63 2.29869 1735.96 2.29869 1730.59 2.21299C1725.23 2.1273 1725.55 2.12724 1720.68 2.04154C1715.8 1.95584 1708.32 2.12721 1699.87 2.12721C1691.42 2.12721 1691.09 2.04153 1686.7 2.04153C1682.31 2.04153 1676.3 2.04153 1676.3 2.04153C1676.3 2.04153 1673.21 2.04153 1667.36 2.04153C1661.5 2.04153 1661.18 1.95583 1657.27 2.04153C1653.37 2.12723 1655.81 2.21293 1649.14 2.04153C1642.48 1.87013 1634.84 2.04155 1629.64 1.95585C1624.44 1.87015 1624.6 1.78448 1621.35 1.87018C1618.09 1.95588 1616.96 2.21518 1614.52 2.21518C1612.08 2.21518 1607.04 2.12951 1607.04 2.12951C1607.04 2.12951 1595.98 1.69878 1589 1.87018C1582.01 2.04157 1577.29 2.1295 1577.29 2.1295L1569.65 2.04383L1551.93 2.04383L1542.17 1.95804C1542.17 1.95804 1538.76 2.0438 1534.53 2.1295C1530.31 2.2152 1518.11 2.38882 1518.11 2.38882L1510.47 2.38882C1506.57 2.56022 1490.97 2.21748 1490.97 2.21748L1480.4 2.13169L1466.25 2.04602C1466.25 2.04602 1460.73 2.30543 1455.36 2.39113L1447.07 2.21967L1437.48 2.56467L1413.42 2.39332L1403.99 2.22198C1403.99 2.22198 1402.36 2.13628 1396.19 2.22198C1390.01 2.30768 1372.94 2.13619 1372.94 2.13619L1360.58 2.05052C1360.58 2.05052 1355.38 2.05049 1350.67 2.13619C1345.95 2.22189 1332.29 2.48132 1324.98 2.22197C1317.66 1.96262 1322.22 1.96256 1313.93 2.05051C1305.64 2.13621 1295.23 2.39554 1287.75 2.30984C1280.27 2.22414 1280.27 2.13847 1275.4 2.22416C1270.52 2.30986 1266.62 2.30983 1266.62 2.30983L1245.64 2.48129C1245.64 2.48129 1239.3 2.56698 1231.82 2.48128C1224.35 2.39558 1214.43 2.6526 1206.95 2.3955C1199.47 2.13615 1194.76 2.0505 1194.76 2.0505L1171.19 2.22195L1154.6 2.30762C1154.6 2.30762 1134.45 2.13616 1126.97 2.13616C1119.49 2.13616 1124.53 2.39549 1116.89 2.39549C1109.25 2.39549 1112.01 2.30979 1105.5 2.39548C1099 2.48118 1079.65 2.39548 1079.65 2.39548C1079.65 2.39548 1073.96 2.30978 1067.14 2.39548C1060.31 2.48118 1053.16 2.48126 1053.16 2.48126L1032.02 1.9648C1032.02 1.9648 1026 2.39547 1019.83 2.39547C1013.65 2.39547 999.342 2.3098 994.792 2.3098C990.243 2.3098 991.54 1.53405 987.152 1.96479C982.764 2.39554 981.786 2.39547 981.786 2.39547C981.786 2.39547 979.834 2.39549 976.582 2.13614C973.329 1.87679 970.243 2.22192 964.549 2.22192C958.861 2.22192 959.184 1.79111 956.42 2.05046C953.656 2.30981 953.818 2.7406 950.893 2.48125C947.967 2.22189 946.505 2.05046 946.505 2.05046L942.44 2.13613L934.961 2.22191C934.961 2.22191 930.085 1.79108 926.832 1.96247C923.579 2.13387 923.579 2.47898 920.816 2.30758C918.052 2.13619 913.987 1.79113 913.987 1.79113L903.745 2.39546L896.427 2.05045L890.411 2.30978L876.104 2.05045C876.104 2.05045 872.039 1.87905 869.765 2.05045C867.49 2.22185 867.975 2.48126 865.377 2.2219C862.775 1.96255 859.849 1.96246 859.849 1.96246L853.348 2.30757L846.359 2.2219L830.75 2.48123L822.298 2.2219L816.609 1.96246L806.366 2.30757L794.5 2.39324C794.5 2.39324 791.247 1.87684 787.833 2.04824C784.419 2.21963 782.467 2.21958 782.467 2.21958C782.467 2.21958 779.215 2.13393 776.128 2.04823C773.041 1.96254 764.095 2.21958 764.095 2.21958C764.095 2.21958 758.406 1.96028 754.831 2.04823C751.255 2.13393 751.905 2.30753 748.33 2.21958C744.754 2.13388 727.521 1.96024 727.521 1.96024C727.521 1.96024 720.693 1.52952 718.091 1.87457C715.489 2.21962 711.913 2.21957 711.913 2.21957L705.246 2.21957L690.778 2.1339C690.778 2.1339 684.438 1.96252 681.347 2.04822C678.26 2.13392 676.793 2.04822 674.196 2.04822C671.594 2.04822 664.442 2.13389 664.442 2.13389C664.442 2.13389 651.274 2.04819 645.585 2.13389C639.897 2.21959 638.434 2.04822 635.343 2.04822C632.256 2.04821 629.816 2.21961 627.214 2.04821C624.611 1.87682 612.906 1.7031 606.89 1.87676C600.874 2.04815 598.761 2.13608 598.761 2.13608L592.26 1.96474L585.593 1.87907L566.409 1.96474C566.409 1.96474 560.231 1.87904 556.005 1.96473C551.778 2.05043 547.552 2.13608 547.552 2.13608C547.552 2.13608 535.847 1.87678 528.53 1.96473C521.212 2.05268 521.378 2.0504 518.615 2.0504C515.851 2.0504 511.948 1.96473 511.948 1.96473C511.948 1.96473 495.527 1.879 493.737 2.0504C491.947 2.22179 484.634 2.13607 484.634 2.13607C484.634 2.13607 480.247 2.0504 477.483 2.0504L469.843 2.05039L453.911 2.30972C453.911 2.30972 445.782 1.79335 443.996 1.87905C442.206 1.96474 438.63 1.87905 438.63 1.87905C438.63 1.87905 426.113 1.87896 418.473 1.79326C410.832 1.70756 411.644 1.53393 407.907 1.70759C404.17 1.87898 404.82 1.53616 400.59 1.79326C396.363 2.05261 381.244 2.30971 381.244 2.30971L372.464 2.13837C372.464 2.13837 366.448 2.22404 363.523 2.22404C360.597 2.22404 347.591 2.30971 347.591 2.30971C347.591 2.30971 339.951 1.87901 334.585 1.9647C329.219 2.0504 323.369 2.56903 315.563 2.39537C307.761 2.22398 308.896 2.48116 304.346 2.48116C299.797 2.48115 299.308 2.99755 295.243 2.82616C291.179 2.65476 291.668 2.74048 288.415 2.74048C285.162 2.74048 272.484 2.56903 272.484 2.56903L260.451 2.48335L253.3 2.48335C250.536 2.48335 246.31 2.48335 246.31 2.48335C246.31 2.48335 237.691 3.08773 230.378 2.74268C223.061 2.39763 222.249 2.39767 219.162 2.39767C216.075 2.39767 216.887 2.74267 211.845 2.56902C206.806 2.39762 189.574 2.30968 189.574 2.30968C189.574 2.30968 182.746 2.39536 178.681 2.39536C174.616 2.39536 175.594 2.30974 172.503 2.48114C169.416 2.65253 163.562 2.48114 163.562 2.48114C163.562 2.48114 153.319 3.25686 145.19 2.91181C137.06 2.56676 137.711 2.3074 133.323 2.39535C128.935 2.48105 129.42 2.48113 124.705 2.48113C119.989 2.48113 120.151 2.39543 116.414 2.48113C112.676 2.56683 97.3912 2.39534 97.3912 2.39534C97.3912 2.39534 92.3528 2.22397 87.9607 2.30967C83.5729 2.39537 84.2234 2.48105 80.6434 2.569C77.0677 2.6547 73.003 2.65478 73.003 2.65478C73.003 2.65478 62.7605 2.48336 55.4432 2.74045C48.1259 2.9998 42.9259 2.65478 42.9259 2.65478C42.9259 2.65478 39.5118 2.48332 36.5865 2.48332C33.6613 2.48332 30.0856 2.31198 30.0856 2.31198C30.0856 2.31198 16.7562 2.48332 14.9663 2.48332C13.1763 2.48332 9.43894 2.13832 9.43894 2.13832L1.80713e-07 1.70081Z" fill="#C33D3D"/>
<path d="M1795 17.1223C1793.93 17.1223 1788.86 16.9541 1785.98 16.9541C1783.1 16.9541 1779.87 16.6177 1775.19 16.6177C1770.52 16.6177 1770.52 16.4496 1765.48 16.4495C1760.45 16.4495 1756.49 16.2814 1756.49 16.2814L1745.7 16.9541L1732.76 16.7859C1732.76 16.7859 1720.17 16.7859 1713.7 16.6177C1707.22 16.4495 1694.28 17.1222 1694.28 17.1222C1694.28 17.1222 1687.08 16.6177 1680.25 16.6177C1673.42 16.6177 1676.29 16.2814 1670.54 16.6177C1664.79 16.9541 1658.67 16.7859 1658.67 16.7859C1658.67 16.7859 1634.22 16.6177 1628.46 16.7859C1622.71 16.9541 1615.52 16.9541 1615.52 16.9541L1604.01 16.9541L1592.86 17.1222L1577.76 16.9541C1577.76 16.9541 1557.98 17.1222 1552.58 16.954C1547.19 16.7859 1549.35 16.7859 1542.15 16.7859C1534.96 16.7859 1529.57 16.6177 1529.57 16.6177C1529.57 16.6177 1523.45 16.6177 1519.14 16.6177C1514.82 16.6177 1504.39 16.1132 1504.39 16.1132L1482.46 16.6177L1470.95 16.4495L1461.6 16.4495C1461.6 16.4495 1443.98 16.6177 1436.06 16.6177C1428.15 16.6177 1428.87 17.1222 1424.2 16.6177C1419.52 16.1132 1415.92 16.2813 1415.92 16.2813C1415.92 16.2813 1407.65 16.1132 1402.98 16.2813C1398.3 16.4495 1392.55 16.4495 1392.55 16.4495C1392.55 16.4495 1387.87 16.6177 1384.28 16.6177C1380.68 16.6177 1377.09 16.6177 1377.09 16.6177C1377.09 16.6177 1373.49 16.2813 1369.89 16.4495C1366.3 16.6177 1362.7 17.1222 1362.7 17.1222C1362.7 17.1222 1366.66 16.6177 1355.15 16.7858C1343.64 16.954 1328.54 16.2813 1328.54 16.2813L1317.75 16.4495L1307.68 16.4495L1295.81 16.6177C1295.81 16.6177 1291.85 16.1131 1288.26 16.2813C1284.66 16.4495 1279.63 16.6177 1279.63 16.6177C1279.63 16.6177 1267.4 16.4495 1258.05 16.4495C1248.7 16.4495 1243.66 16.4495 1243.66 16.4495C1243.66 16.4495 1239.35 16.2813 1233.59 16.4495C1227.84 16.6176 1228.2 16.7858 1222.81 16.954C1217.41 17.1222 1214.89 17.1222 1214.89 17.1222L1204.82 16.6176L1182.17 16.4495L1168.86 17.2903L1157.71 16.954L1150.16 16.7858C1150.16 16.7858 1133.62 16.6176 1124.63 16.954C1115.64 17.2903 1114.92 16.954 1109.88 16.954C1104.85 16.954 1101.61 16.7858 1101.61 16.7858L1092.26 17.2903C1092.26 17.2903 1075.72 16.4495 1068.89 16.6176C1062.05 16.7858 1056.3 16.7858 1056.3 16.7858L1045.15 16.7858L1034 16.7858C1034 16.7858 1018.18 17.6267 1008.47 16.954C998.758 16.2813 1000.56 15.7767 995.162 16.1131C989.768 16.4494 991.566 16.4494 984.733 16.6176C977.9 16.7858 970.708 16.954 968.55 16.7858C966.392 16.6176 953.805 17.1221 940.499 16.954C927.193 16.7858 925.035 16.4494 925.035 16.4494L915.685 16.1131L900.58 16.4494C900.58 16.4494 884.037 16.6176 875.406 16.6176C866.775 16.6176 864.977 16.6176 858.144 16.7858C851.312 16.9539 845.558 16.7858 845.558 16.7858L832.611 16.4494C832.611 16.4494 830.094 16.954 813.91 17.1221C797.727 17.2903 791.973 16.7858 791.973 16.7858C791.973 16.7858 784.781 16.2812 779.027 16.6176C773.273 16.9539 767.159 16.9539 767.159 16.9539C767.159 16.9539 748.818 16.2812 739.468 16.7858C730.117 17.2903 723.285 16.7858 723.285 16.7858L713.215 16.113C713.215 16.113 707.821 16.6176 701.707 16.6176C695.593 16.6176 690.559 17.6266 680.849 17.1221C671.139 16.6176 671.498 15.6085 667.543 16.2812C663.587 16.9539 668.621 17.963 661.789 17.2903C654.956 16.6176 655.675 15.6085 651.359 16.2812C647.044 16.9539 639.132 16.113 630.141 16.4494C621.151 16.7857 620.791 16.2812 615.756 16.4494C610.722 16.6176 611.441 15.6085 604.248 16.2812C597.056 16.9539 588.425 16.9539 581.592 16.7857C574.759 16.6176 566.847 16.4494 566.847 16.4494L556.778 16.7857C551.743 16.9539 545.629 17.2903 545.629 17.2903L530.885 16.4494L514.701 16.6176L497.439 17.1221L485.931 16.7857C485.931 16.7857 466.871 16.6175 458.959 16.7857C451.048 16.9539 443.855 17.2902 443.855 17.2902L431.987 16.4494L403.577 16.7857C403.577 16.7857 393.148 16.2812 388.473 16.2812C383.797 16.2812 378.043 16.4494 378.043 16.4494L345.317 16.9539L326.976 16.2812L315.468 16.6175C315.468 16.6175 308.276 16.2812 302.882 16.6175C297.487 16.9539 276.269 16.9539 276.269 16.9539C276.269 16.9539 271.234 15.6085 261.525 16.113C251.815 16.6175 248.218 16.6175 248.218 16.6175L235.631 16.6175C230.237 16.6175 209.379 17.2902 209.379 17.2902C209.379 17.2902 200.028 16.2812 192.476 16.4493C184.924 16.6175 179.17 16.7857 179.17 16.7857L164.425 16.6175L150.76 16.7857C150.76 16.7857 141.769 16.4493 136.015 16.4493C130.261 16.4493 124.507 16.4493 124.507 16.4493L112.28 16.2811C112.28 16.2811 91.0617 16.6175 86.3865 16.6175C81.7114 16.6175 75.9574 16.6175 75.9574 16.6175C75.9574 16.6175 70.2033 16.113 67.3263 16.2811C64.4493 16.4493 64.0897 16.2811 60.1338 16.4493C56.1779 16.6175 54.3798 16.7857 51.1431 16.7857C47.9065 16.7857 45.7487 17.4584 42.5121 17.2902C39.2755 17.122 35 17.7947 35 17.7947L38.9159 18.2993C38.9159 18.2993 48.9854 18.972 52.9413 18.972C56.8972 18.972 64.8089 19.1401 64.8089 19.1401C64.8089 19.1401 67.728 20.2125 73.4587 19.424C79.194 18.6356 85.3076 20.1492 94.2983 19.6447C103.289 19.1402 105.087 19.1401 109.043 19.1401C112.999 19.1401 118.393 19.3083 118.393 19.3083C118.393 19.3083 133.857 19.6447 138.892 19.6447C143.927 19.6447 155.794 19.981 163.706 19.8129C171.618 19.6447 179.53 19.6447 179.53 19.6447C179.53 19.6447 184.924 19.4765 190.319 19.4765C195.713 19.4765 200.028 19.4765 200.028 19.4765L209.379 19.3083C209.379 19.3083 240.666 19.1402 247.144 19.1402C253.617 19.1402 254.337 19.6447 259.371 19.1402C264.406 18.6356 267.643 18.8038 267.643 18.8038C267.643 18.8038 274.476 19.3083 278.791 19.1402C283.107 18.972 285.265 18.4675 288.501 18.972C291.738 19.4765 294.615 19.3083 294.615 19.3083L302.527 18.8038L308.64 19.1402C308.64 19.1402 330.937 19.4765 336.331 19.4765C341.726 19.4765 341.366 19.4765 346.401 19.3084C351.436 19.1402 355.392 19.1402 355.392 19.1402C355.392 19.1402 364.742 19.4765 372.654 19.4765C380.565 19.4765 373.373 19.1402 384.162 18.972C394.951 18.8038 398.906 18.8038 398.906 18.8038L403.582 19.1402L411.853 19.3084L431.273 19.8129L443.14 19.1402C443.14 19.1402 447.816 19.4765 451.412 19.1402C455.008 18.8038 453.57 18.2993 458.245 18.6357C462.92 18.972 475.507 19.3084 475.507 19.3084L487.374 19.1402L497.084 19.6447C497.084 19.6447 511.11 19.4765 515.785 19.3084C520.46 19.1402 524.776 18.8038 524.776 18.8038C524.776 18.8038 531.249 19.8129 536.284 19.6447C541.318 19.4766 550.309 19.3084 550.309 19.3084C550.309 19.3084 557.502 19.4766 568.29 19.3084C579.079 19.1402 589.149 18.972 589.149 18.972C589.149 18.972 599.218 19.6447 606.051 19.6447C612.884 19.6447 620.077 19.4766 620.077 19.4766C620.077 19.4766 628.708 19.9811 635.9 19.4766C643.093 18.9721 648.127 19.6447 657.118 19.6447C663.112 19.6448 668.266 19.5887 672.582 19.4766C679.055 19.3084 674.38 18.972 684.09 18.972C693.8 18.972 706.387 19.3084 713.939 19.1402C721.491 18.9721 720.053 18.9721 725.087 18.9721C730.122 18.9721 743.069 19.3084 750.621 19.3084C758.173 19.3084 765.725 19.1402 765.725 19.1402L777.233 18.9721C777.233 18.9721 798.092 19.8129 806.723 19.4766C815.354 19.1403 823.265 18.9721 823.265 18.9721C823.265 18.9721 828.66 18.8039 835.493 18.8039C842.326 18.8039 850.957 19.8129 860.666 19.4766C870.376 19.1403 878.288 19.1403 878.288 19.1403C878.288 19.1403 880.446 19.4766 887.998 19.1403C895.55 18.8039 916.409 18.9721 922.163 18.9721C927.917 18.9721 932.592 18.9721 932.592 18.9721L942.661 19.3084C942.661 19.3084 954.529 19.4766 959.923 19.4766C965.318 19.4766 971.431 19.3084 976.107 19.3084L986.895 19.3084C986.895 19.3084 986.536 19.3084 995.167 19.3084C1003.8 19.3084 1014.95 19.3084 1022.5 19.3084C1030.05 19.3084 1037.96 19.3084 1037.96 19.3084C1037.96 19.3084 1041.56 18.8039 1047.31 18.9721C1053.07 19.1403 1072.13 18.9721 1076.8 18.9721C1081.48 18.9721 1089.75 18.8039 1089.75 18.8039C1089.75 18.8039 1091.91 19.1403 1100.9 18.9721C1109.89 18.8039 1127.15 19.1403 1127.15 19.1403C1127.15 19.1403 1136.86 18.4676 1142.25 18.6358C1147.65 18.8039 1165.27 18.8039 1172.1 18.9721C1178.94 19.1403 1176.42 18.9721 1185.41 18.9721C1194.4 18.9721 1219.57 18.9721 1226.77 18.9721C1233.97 18.9721 1235.4 18.6358 1241.16 18.8039C1246.91 18.9721 1244.03 18.6358 1251.23 18.6358C1258.42 18.6358 1265.61 18.4676 1273.16 18.9721C1280.71 19.4766 1282.51 19.6448 1287.19 19.6448C1291.86 19.6448 1300.13 19.4767 1300.13 19.4767C1300.13 19.4767 1301.57 18.9721 1311.28 18.804C1320.99 18.6358 1323.87 19.6448 1333.94 19.4767C1344.01 19.3085 1344.01 19.1403 1348.68 19.1403C1353.36 19.1403 1358.75 19.3085 1358.75 19.3085C1358.75 19.3085 1377.81 19.3085 1385.01 19.3085C1392.2 19.3085 1394.72 18.9721 1399.03 18.9721C1403.35 18.9721 1406.58 19.1403 1406.58 19.1403C1406.58 19.1403 1423.85 19.6449 1429.6 19.4767C1435.35 19.3085 1434.99 18.9722 1441.47 18.9722C1447.94 18.9722 1451.54 18.9722 1451.54 18.9722C1451.54 18.9722 1473.47 19.1403 1478.51 19.1403C1483.54 19.1403 1488.22 18.804 1491.82 18.9722C1495.41 19.1403 1499.73 19.3085 1499.73 19.3085C1499.73 19.3085 1510.16 19.1403 1517.35 19.3085C1524.54 19.4767 1527.06 19.1403 1532.45 19.3085C1537.85 19.4767 1545.04 19.4767 1550.07 19.3085C1555.11 19.1403 1546.84 20.1494 1557.27 19.9812C1567.7 19.8131 1574.17 19.4767 1574.17 19.4767L1586.4 19.4767C1586.4 19.4767 1592.15 19.9812 1597.19 19.6449C1602.22 19.3085 1611.93 20.1494 1621.64 19.8131C1631.35 19.4767 1636.03 19.6449 1641.42 19.4767C1646.81 19.3085 1644.3 19.8131 1652.21 19.4767C1660.12 19.1404 1672.71 19.1404 1682.78 19.3085C1692.85 19.4767 1697.52 19.3085 1701.48 19.3085C1705.43 19.3085 1711.55 19.6449 1711.55 19.6449C1711.55 19.6449 1734.56 19.4767 1741.04 19.4767C1747.51 19.4767 1750.75 19.3085 1753.98 19.3085C1757.22 19.3085 1756.86 19.4767 1760.82 19.3085C1764.77 19.1404 1766.93 18.9722 1769.81 18.804C1772.68 18.6358 1777 17.9631 1780.6 18.1313C1784.19 18.2995 1786.71 17.795 1789.95 17.795C1793.18 17.795 1799 17.795 1799 17.795L1795 17.1223Z" fill="#C33D3D"/>
</svg>
