<svg width="61" height="60" viewBox="0 0 61 60" fill="none" xmlns="http://www.w3.org/2000/svg">
<path d="M60.1016 55.9732C60.2269 55.5968 60.6031 53.5875 60.3523 52.082C60.1016 50.5764 60.2269 49.6962 59.8508 48.0652C59.4747 46.4322 59.3493 45.9304 59.0986 44.5504C58.8478 43.1703 59.0986 42.541 58.5971 42.0391C58.0956 41.5373 57.7194 40.4062 57.7194 40.4062C57.7194 40.4062 57.8448 39.0261 56.9672 38.0204C56.0895 37.0167 55.9642 36.8913 55.588 35.2583C55.2119 33.6253 54.8358 33.2488 53.7054 31.4924C52.577 29.734 52.577 29.1067 51.9481 27.9775C51.3212 26.8484 49.8147 25.7173 49.8147 25.7173L48.0574 23.4569C48.0574 23.4569 47.5559 22.5787 46.4255 21.4476C45.2971 20.3184 43.6652 18.9364 42.1607 17.5563C40.6562 16.1762 40.278 16.0508 39.1496 15.0451C38.0213 14.0414 37.7705 13.665 37.0162 13.2866C36.264 12.9102 36.0132 12.4084 34.8828 11.7811C33.7544 11.1538 33.5037 11.0283 32.2479 10.401C30.9941 9.77373 30.8688 9.77374 29.7384 9.14644C28.61 8.51914 29.3622 8.39369 27.8557 7.89185C26.3512 7.39002 27.2288 6.88816 25.2208 6.51178C23.2127 6.13541 22.7112 5.25722 20.2017 4.87882C17.6922 4.50244 17.5668 4.62788 16.1876 4.2515C14.8085 3.87512 15.0593 3.74964 13.5527 3.62418C12.0482 3.49872 12.8005 3.24783 11.2939 3.24783C9.78741 3.24783 9.66204 3.37329 8.65903 3.49875C7.65602 3.62421 7.53065 4.12602 6.40024 4.12602C5.26983 4.12602 5.0211 4.25148 4.26683 4.37694C3.51457 4.5024 2.38416 4.75334 2.38416 4.75334L0 5.88249C0 5.88249 1.54091 5.65991 2.09297 5.53647C2.64301 5.41304 3.80779 5.23092 3.80779 5.23092C3.80779 5.23092 4.72586 5.10744 5.52261 4.98602C6.31935 4.86461 6.56404 4.92533 7.23743 4.74118C7.91082 4.55704 8.21617 4.3729 8.58421 4.43563C8.95224 4.49836 10.299 4.49634 10.299 4.49634C10.299 4.49634 12.2585 4.55703 13.0533 4.68047C13.848 4.8039 14.9521 5.10948 14.9521 5.10948C14.9521 5.10948 15.8095 5.17018 16.3595 5.35432C16.9096 5.53847 16.6042 5.53848 17.4616 5.72262C18.319 5.90676 19.2371 6.15159 19.2371 6.15159C19.2371 6.15159 20.5232 6.15162 21.6253 6.64132C22.7274 7.13102 22.9721 7.13102 23.7688 7.56001C24.5656 7.98901 24.9943 7.86555 25.605 8.29454C26.2157 8.72353 27.1965 9.27395 27.1965 9.27395L29.0953 10.5002C29.0953 10.5002 30.0134 10.4395 31.0548 11.4189C32.0962 12.3983 31.9729 11.7872 33.0143 12.89C34.0557 13.9928 33.8717 13.9321 34.7898 14.4825C35.7079 15.033 35.7079 14.4825 36.3206 15.1564C36.9333 15.8302 38.0354 16.1357 39.2588 17.4855C40.4843 18.8331 40.729 18.7117 41.1577 19.3856C41.5864 20.0594 42.5651 20.5491 42.5651 20.5491L43.9119 21.8361C43.9119 21.8361 45.8107 23.2445 46.4214 23.9183C47.0321 24.5921 46.9108 24.5922 47.4629 25.266C48.0149 25.9399 48.2596 26.124 48.6256 26.7371C48.9937 27.3502 49.6671 28.3296 49.6671 28.3296C49.6671 28.3296 51.1372 29.309 51.5659 30.4119C51.9946 31.5147 51.7499 31.6381 52.484 32.8017L53.218 33.9652C53.218 33.9652 54.1361 35.1287 54.7488 36.9681C55.3616 38.8055 55.7903 38.6213 56.0349 39.6635C56.2796 40.7056 56.2796 40.1532 56.585 41.3168C56.8903 42.4803 57.9318 42.6644 58.0551 44.5018C58.1785 46.3392 57.9945 46.2785 58.3605 47.3206C58.7285 48.3627 58.7892 48.3 58.9732 49.2207C59.1572 50.1415 59.1572 50.0786 59.3412 51.058C59.5253 52.0374 59.8306 53.2638 59.8913 53.7535C59.9519 54.2432 60.0955 55.9732 60.0955 55.9732H60.1016Z" fill="#C33D3D"/>
<path d="M20.1107 40.6976C20.1107 40.6976 21.4191 39.1272 22.137 38.4068C22.8569 37.6865 23.4453 37.3607 23.8376 36.6403C24.2299 35.9199 24.0985 35.8552 24.6869 35.2663C25.2754 34.6775 25.4716 34.546 25.8639 34.0239C26.2562 33.4998 26.2562 33.5666 27.0408 32.911C27.8254 32.2574 27.8901 31.9943 28.3491 31.0129C28.8061 30.0314 30.5715 28.789 31.3582 27.7408C32.1428 26.6946 32.2075 26.6279 33.1235 25.5169C34.0396 24.404 34.9536 23.5541 34.9536 23.5541C34.9536 23.5541 36.5228 21.0671 37.2427 20.2172C37.9626 19.3674 38.2235 19.6284 38.7472 18.9748C39.271 18.3212 39.3357 18.5175 39.8594 17.7323C40.3832 16.9472 40.5793 15.9011 41.5601 14.9844C42.5409 14.0677 43.1293 13.4789 43.1293 13.4789L44.371 11.9733C44.371 11.9733 44.8947 11.0567 45.287 10.5993C45.6793 10.142 46.3325 9.22539 46.3325 9.22539C46.3325 9.22539 46.2678 10.5346 46.201 10.9272C46.1363 11.3197 46.1363 11.6475 46.2657 12.1696C46.3952 12.6917 46.3972 13.2826 46.3972 13.2826L46.4619 14.7881L46.5933 16.0305L46.7248 17.273C46.7248 17.273 47.0524 16.0953 47.1171 15.4417C47.1818 14.7881 47.3132 13.3473 47.3132 13.3473V11.7771C47.3132 11.7771 47.5741 10.6641 47.5741 9.87899C47.5741 9.09386 47.6388 9.22535 47.6388 8.37344C47.6388 7.52153 47.7035 6.67166 47.7035 6.47538C47.7035 6.27909 47.7682 5.82178 47.7682 5.82178C47.7682 5.82178 46.3952 6.14959 45.9382 6.2791C45.4811 6.41063 44.6298 6.47536 43.9766 6.60689C43.3235 6.73842 43.1273 6.80318 42.3427 6.86793C41.5581 6.93269 40.7088 7.26049 40.7088 7.26049L38.9434 7.84937L37.2427 8.37344C37.2427 8.37344 39.1395 8.43821 39.5318 8.24193C39.9242 8.04564 41.2325 8.04567 41.6895 7.91414C42.1465 7.78261 43.1273 7.84937 43.1273 7.84937C43.1273 7.84937 44.1728 7.58833 44.5004 7.58833C44.828 7.58833 45.4811 7.45682 45.4811 7.45682L44.2395 9.22336C44.2395 9.22336 43.8472 10.2048 43.1273 11.1214C42.4074 12.0381 42.735 11.8418 41.9504 12.6917C41.1658 13.5416 41.2305 13.3453 40.7088 14.1305C40.185 14.9156 38.9434 16.5526 38.0273 17.5988C37.1113 18.645 36.7857 19.0375 36.262 19.6932C35.7382 20.3468 35.8697 20.4135 34.7575 21.5912C33.6452 22.7689 32.5998 24.0782 31.9446 24.9281C31.2914 25.7779 30.7677 26.4336 29.7869 27.4798C28.8061 28.5259 28.5453 29.1816 27.8254 29.9667C27.1055 30.7518 27.3684 31.0129 26.8446 31.6685C26.3209 32.3221 24.8831 33.696 24.4908 34.3517C24.0985 35.0053 23.3786 36.2498 23.053 36.6424C22.7254 37.0349 21.6799 38.2774 21.5485 38.4736C21.4171 38.6699 20.1107 40.6976 20.1107 40.6976Z" fill="#C33D3D"/>
<path d="M19.5222 24.8613C19.7184 24.8613 20.503 25.3186 20.96 25.3854C21.417 25.4501 21.6799 25.7132 22.3331 26.039C22.9862 26.3668 23.1177 26.3668 23.6414 26.6926C24.1652 27.0184 23.969 27.4777 24.7536 27.8055C25.5382 28.1333 25.6697 28.2629 26.1267 28.5907C26.5837 28.9185 26.3228 28.8517 27.1722 29.2443C28.0215 29.6369 28.0882 29.7016 28.2844 30.0294C28.4805 30.3572 28.2844 30.5535 28.9375 30.9461C29.373 31.2078 29.7869 31.5133 30.1792 31.8627C30.7676 32.3868 30.8991 32.8442 31.1599 33.1052C31.4208 33.3663 31.8131 33.4978 32.1407 34.1514C32.4683 34.805 32.4683 35.0013 32.8606 35.4606C33.2529 35.92 33.0567 35.9847 33.4491 36.703C33.8414 37.4234 34.3651 38.1418 34.3651 38.1418L34.8889 39.3195L35.3459 40.6287C35.3459 40.6287 35.2812 38.4048 35.0183 38.0102C34.7554 37.6156 34.4945 36.6363 34.2337 35.9159C33.9728 35.1956 34.0375 34.9992 33.6452 34.3456C33.2529 33.692 33.1882 33.429 32.7959 32.7754C32.4036 32.1218 32.5997 31.9255 32.076 31.3366C31.5522 30.7478 31.2267 30.2904 30.7029 29.8311C30.1792 29.3738 30.0497 29.1775 29.4613 28.7849C28.8728 28.3924 28.9375 28.3924 28.2844 27.8683C27.6312 27.3442 27.2389 27.2794 26.6504 26.9516C26.062 26.6238 25.3421 26.4275 24.8851 26.1665C24.4281 25.9054 24.1652 25.5129 23.512 25.3813C22.8588 25.2498 21.8113 25.1203 21.8113 25.1203L20.4383 24.7277L19.5222 24.8593V24.8613Z" fill="#C33D3D"/>
<path d="M43.5884 34.3497C43.5884 34.3497 44.373 33.9572 45.1576 33.4331C45.9422 32.909 46.2031 32.7794 46.7915 32.5831C47.38 32.3869 48.3607 31.9295 48.3607 31.9295L49.6691 31.3407C49.6691 31.3407 50.7146 30.6871 51.1736 30.424C51.6306 30.163 51.9582 30.0315 52.4152 29.7036C52.8723 29.3758 54.1159 28.6575 54.1159 28.6575L55.4243 27.6113L57.6467 25.9763C57.6467 25.9763 55.8166 26.3688 55.0299 26.8929C54.2453 27.417 52.8076 28.2669 52.8076 28.2669C52.8076 28.2669 51.2383 29.0521 50.5184 29.4446C49.7985 29.8372 48.5569 30.4908 48.5569 30.4908L46.3992 31.6685L44.4377 33.3703L43.5884 34.3517V34.3497Z" fill="#C33D3D"/>
<path d="M21.2876 18.1876L21.4838 15.636L21.9408 13.5416L22.3978 11.514C22.3978 11.514 22.2663 10.4011 22.3331 9.87898C22.3978 9.35488 22.6607 8.17715 22.6607 8.17715C22.6607 8.17715 22.7921 7.39205 22.9883 6.54216C23.1844 5.69227 23.4453 4.90712 23.4453 4.90712C23.4453 4.90712 23.6414 3.59789 23.969 2.87953C24.2966 2.16117 25.0145 3.05176e-05 25.0145 3.05176e-05L24.9498 2.68325L24.8851 4.58131L24.5575 6.93674L23.9043 9.35892L23.1197 11.7143L22.4665 14.0697L21.9428 16.0973L21.2896 18.1917L21.2876 18.1876Z" fill="#C33D3D"/>
<path d="M12.1331 23.0947C11.7408 23.0299 11.1524 23.03 10.8915 23.2262C10.6307 23.4225 10.4992 23.4873 10.3031 23.6836C10.1069 23.8798 9.84604 24.2076 9.84604 24.2076L9.45374 24.9928V25.5816C9.45374 25.5816 9.51845 25.7131 9.7146 26.2352C9.91075 26.7593 9.25758 26.3668 9.91075 26.7593C10.5639 27.1519 10.6307 27.0872 10.9562 27.2167C11.2818 27.3462 11.3485 27.4777 11.7408 27.3482C12.1331 27.2187 12.2646 27.2835 12.5902 27.0872C12.9157 26.8909 13.1786 26.5631 13.1786 26.5631L13.6356 25.7779V24.7317L13.308 24.0114L12.9804 23.4225L12.1311 23.0947H12.1331Z" fill="#C33D3D"/>
<path d="M11.6761 31.3386C11.2838 31.3386 10.3031 31.9275 10.3031 31.9275C10.3031 31.9275 9.71462 32.1238 9.71462 32.7126C9.71462 33.3015 9.38702 33.694 9.38702 33.694C9.38702 33.694 9.38703 33.9551 9.64789 34.4792C9.90875 35.0033 9.7126 34.1513 9.90875 35.0032C10.1049 35.8552 10.3011 35.9199 10.8248 35.9847C11.3486 36.0494 10.6934 35.9199 11.7409 35.9847C12.7863 36.0494 12.9178 36.1162 13.1786 35.7884C13.4395 35.4605 13.7671 35.2643 13.7671 35.2643L14.2908 34.1513V32.9737C14.2908 32.9737 14.2908 32.057 13.8338 31.9922C13.3768 31.9275 13.0492 31.7959 12.7216 31.6644C12.394 31.5329 11.6761 31.3366 11.6761 31.3366V31.3386Z" fill="#C33D3D"/>
<path d="M28.4826 44.4916C28.0255 44.2954 27.6979 44.6232 27.1742 44.8195C26.6504 45.0158 26.1934 45.0805 26.1934 45.4731C26.1934 45.8656 25.9973 46.586 25.9973 46.586L25.8658 47.2396C25.8658 47.2396 25.7344 47.7636 26.062 48.221C26.3896 48.6783 25.8658 48.3526 26.3896 48.6783C26.9133 49.0041 26.8466 49.1356 27.4351 49.1356C28.0235 49.1356 27.1742 49.4634 28.0235 49.1356C28.8728 48.8078 28.8081 49.0041 29.2651 48.7431C29.7222 48.482 29.7889 48.5468 30.0498 48.0895C30.3106 47.6321 30.5735 47.5006 30.5735 46.9765C30.5735 46.4524 30.7049 45.6025 30.7049 45.6025L29.9203 44.8821C29.9203 44.8821 29.985 44.4896 29.4633 44.3581C28.9416 44.2265 28.4826 44.4896 28.4826 44.4896V44.4916Z" fill="#C33D3D"/>
<path d="M37.18 43.9028C36.723 43.9028 36.3307 44.0344 35.807 44.2307C35.2832 44.427 35.0224 44.5584 34.9577 45.0805C34.8929 45.6026 34.6301 45.8657 34.6968 46.2583C34.7615 46.6508 34.6321 46.7155 34.9577 47.1749C35.2852 47.6322 34.5653 47.1102 35.2852 47.6323C36.0051 48.1564 36.3307 48.4174 36.3307 48.4174L37.5724 48.221L38.2923 47.5007L38.816 46.4545L38.9474 45.4083C38.9474 45.4083 38.8827 44.6232 38.4237 44.4917C37.9647 44.3602 37.1821 43.9028 37.1821 43.9028H37.18Z" fill="#C33D3D"/>
<path d="M22.232 48.5833L21.7649 48.2009L21.2533 47.3064V47.009L21.9347 46.0721C21.9347 46.0721 21.5101 46.327 21.3807 46.412C21.2533 46.497 20.7417 46.752 20.7417 46.752L20.954 46.3695L21.5081 45.6876L21.8053 45.0482C21.8053 45.0482 21.1663 45.5581 20.9115 45.7302C20.6567 45.9001 20.2725 46.0276 20.2725 46.0276C20.2725 46.0276 19.5486 45.3032 19.2513 45.0907C18.954 44.8782 18.8691 44.7082 18.4424 44.2813C18.0178 43.8563 17.6335 43.6418 17.1664 43.1743C16.6993 42.7069 15.6356 41.8125 15.2939 41.513C14.9541 41.2156 14.8692 41.2581 14.6549 40.9161C14.4425 40.5762 13.846 40.3616 13.846 40.3616L13.122 39.7222C13.122 39.7222 12.3132 39.1678 12.1008 38.9978C11.8885 38.8278 10.9098 38.2734 10.9098 38.2734C10.9098 38.2734 11.2919 38.7408 11.4214 39.0403C11.5488 39.3378 11.931 39.3802 12.1878 39.7647C12.4426 40.1471 12.9542 40.3616 12.9542 40.3616C12.9542 40.3616 12.4446 40.8291 12.3576 40.9586C12.2727 41.0861 12.0604 41.2985 11.7611 41.598C11.4638 41.8955 11.0372 42.1525 10.655 42.5775C10.2728 43.0024 10.1454 43.0449 9.80362 43.4718C9.46389 43.8968 9.20707 43.9818 8.65501 44.4087C8.10093 44.8337 8.05846 44.8761 7.71873 45.4306C7.55898 45.6916 7.3325 45.9223 7.13837 46.0963H7.13432L6.71168 45.9426L6.21423 45.5642L5.82192 45.2768L5.42961 44.8984L4.87149 44.4896L5.09797 44.8377L5.36895 45.2L5.67026 45.5317L6.07874 46.0154C6.07874 46.0154 6.26074 46.3634 6.45689 46.5132C6.4852 46.5354 6.50946 46.5618 6.53373 46.5902C6.37802 46.7278 6.1576 46.926 5.95538 47.1162C5.87449 47.0434 5.65812 46.8511 5.53679 46.754C5.38513 46.6326 5.23548 46.6022 5.08382 46.5132C4.93215 46.4221 4.66118 46.2866 4.66118 46.2866L4.42054 46.1044L3.72693 45.6066L3.86242 45.7584L4.0889 46.1206C4.0889 46.1206 4.2709 46.2866 4.40639 46.4687C4.54187 46.6508 4.70769 46.6346 4.87351 46.8167C5.03933 46.9988 5.28199 47.3449 5.28199 47.3449L5.46197 47.5999C5.24357 47.8083 5.09191 47.9439 4.87149 48.1968C4.76633 48.3183 4.63893 48.4922 4.5176 48.6663C4.29921 48.984 4.10508 49.3037 4.10508 49.3037L4.67129 48.9051L5.28806 48.5165L5.78147 48.1624C5.78147 48.1624 6.06054 48.1968 6.18794 48.4093C6.31533 48.6217 7.10601 49.2571 7.10601 49.2571L7.72278 49.8582C7.72278 49.8582 8.6995 50.5381 8.99878 50.8355C9.29604 51.133 9.76519 51.8149 9.76519 51.8149C9.76519 51.8149 9.2556 51.5174 9.12618 51.4324C8.99878 51.3474 7.97757 50.8355 7.97757 50.8355L8.57412 51.4324C8.57412 51.4324 9.08574 51.8574 9.383 52.1144C9.68026 52.3714 9.97954 52.5818 10.2343 52.6243C10.4891 52.6668 11.4254 53.4337 11.4254 53.4337C11.4254 53.4337 11.0432 52.8793 10.9138 52.8368C10.7864 52.7943 10.5316 52.2399 10.5316 52.2399L10.9563 52.4098C10.9563 52.4098 11.3385 52.7498 11.5528 52.8773C11.7651 53.0048 12.2768 53.5592 12.2768 53.5592L12.4466 54.0267C12.4466 54.0267 12.5316 54.5366 12.574 54.8361C12.6165 55.1336 12.4891 55.348 12.4891 55.688C12.4891 56.028 12.574 56.6249 12.574 56.6249L12.6165 57.5617L12.7014 59.0935C12.7014 59.0935 12.7863 58.6262 12.7863 58.4542C12.7863 58.2822 12.8288 58.0292 12.9137 57.7722C12.9987 57.5172 12.9987 57.3897 12.9987 57.0902C12.9987 56.7908 13.0411 56.1109 13.0411 56.1109L13.2535 54.919L13.7651 54.4091L14.0624 54.6216L14.4445 54.9615C14.4445 54.9615 14.9562 55.259 15.2959 55.4289C15.6356 55.5989 16.4445 56.2383 16.4445 56.2383L16.1472 55.8559L15.765 55.3885C15.765 55.3885 15.4253 55.0485 15.1685 54.8765C14.9137 54.7065 14.9986 54.664 14.7014 54.4515C14.4041 54.2391 14.3192 53.8971 14.3192 53.8971L14.6589 53.3851C14.6589 53.3851 15.126 52.8753 15.3404 52.7033C15.5527 52.5333 15.9794 52.0213 15.9794 52.0213L16.5759 51.3394C16.5759 51.3394 16.8307 51.0419 17.0855 50.7424C17.3403 50.4449 17.4253 50.36 17.767 50.0605C18.1067 49.7631 18.491 49.4636 18.7033 49.2511C18.9156 49.0386 19.9368 48.3567 19.9368 48.3567L20.7032 48.5691L20.406 48.1867L20.1512 47.6767L20.5334 47.5918L20.958 47.8893L21.3827 48.1867L22.4464 48.9961L22.234 48.5711L22.232 48.5833Z" fill="#C33D3D"/>
</svg>
