<svg width="1828" height="20" viewBox="0 0 1828 20" fill="none" xmlns="http://www.w3.org/2000/svg">
<path d="M1.80713e-07 18.2996C1.80713e-07 18.2996 13.4781 18.816 17.394 18.816C21.3099 18.816 27.9342 19.2356 33.1554 19.2356C38.3765 19.2356 38.7039 19.2356 45.2261 19.2356C51.7526 19.2356 58.2791 18.7168 65.7835 18.8904C73.2879 19.0641 71.332 19.0641 79.487 19.0641C87.6419 19.0641 93.1904 19.0641 93.1904 19.0641C93.1904 19.0641 115.376 19.2377 121.252 19.2377C127.128 19.2377 133 19.2377 133 19.2377L148.009 18.8927L163.345 19.2377C163.345 19.2377 185.207 19.2377 195.318 19.4114C205.429 19.585 202.822 19.585 212.937 19.4114C223.052 19.2377 220.442 18.7191 228.924 18.7191C237.406 18.7191 258.287 19.2377 264.813 19.2377C271.34 19.2377 279.172 19.5827 279.172 19.5827C279.172 19.5827 306.579 19.0641 314.083 19.4092C321.587 19.7542 329.742 19.5827 329.742 19.5827C329.742 19.5827 336.919 19.7564 344.1 19.5827C351.282 19.4091 361.72 19.2378 368.569 19.4092C375.423 19.5828 379.012 20.1015 386.516 19.9278C394.021 19.7542 402.176 19.4092 402.176 19.4092C402.176 19.4092 417.512 19.4092 423.711 19.4092C429.91 19.4092 433.171 19.7542 439.697 19.7542C446.224 19.7542 454.056 19.0618 462.861 19.2355C471.671 19.4091 472.976 18.8904 478.52 19.2355C484.065 19.5805 491.573 19.4092 491.573 19.4092L505.604 19.5827C505.604 19.5827 515.719 19.5827 523.551 19.5827C531.383 19.5827 539.21 19.2377 545.414 19.4091C551.613 19.5828 558.79 19.5827 558.79 19.5827C558.79 19.5827 572.821 19.409 578.692 19.5827C584.564 19.7563 593.701 19.409 603.816 19.5827C613.931 19.7563 621.435 19.7563 621.435 19.7563L637.749 18.8904L649.497 19.2355C649.497 19.2355 663.528 19.2355 673.643 19.2355C683.758 19.2355 687.346 19.4091 693.545 19.4091C699.745 19.4091 699.094 19.4091 707.576 19.2355C716.059 19.0618 729.439 19.5805 734.656 19.4091C739.877 19.2355 740.204 19.7542 752.603 19.4091C765.001 19.0641 786.209 19.5827 786.209 19.5827C786.209 19.5827 787.514 19.7564 806.111 19.4091C824.708 19.0641 844.284 19.5826 844.284 19.5826L862.554 19.7563C862.554 19.7563 873.646 19.9299 882.129 19.5826C890.611 19.2376 905.292 19.409 912.474 19.5826C919.651 19.7563 929.115 19.4091 929.115 19.4091C929.115 19.4091 960.111 19.5826 968.92 19.5826C977.73 19.5826 975.447 19.7563 987.19 19.5826C998.934 19.409 1027.97 19.2376 1027.97 19.2376C1027.97 19.2376 1030.58 20.275 1040.37 19.9299L1055.05 19.4113C1055.05 19.4113 1076.59 18.719 1083.11 19.0663C1089.64 19.4113 1089.31 19.7586 1096.49 19.7586C1103.67 19.7586 1110.19 19.4135 1110.19 19.4135C1110.19 19.4135 1138.26 19.5871 1145.76 19.4135C1153.26 19.2398 1149.02 19.2399 1160.44 19.2399C1171.86 19.2399 1192.09 19.2399 1197.64 19.2399C1203.18 19.2399 1200.57 19.4136 1214.28 19.2399C1227.98 19.0663 1244.3 19.5849 1257.35 19.5849C1270.4 19.5849 1266.48 19.5849 1274.64 19.4112C1282.79 19.2376 1307.6 19.5849 1315.75 19.5849C1323.91 19.5849 1331.74 19.4112 1331.74 19.4112L1347.72 19.0662C1347.72 19.0662 1351.97 19.7585 1363.71 19.7585C1375.46 19.7585 1390.79 19.2399 1400.25 19.2399C1409.71 19.2399 1418.2 19.2399 1418.2 19.2399C1418.2 19.2399 1420.81 19.0662 1430.93 19.0662C1441.04 19.0662 1455.07 18.7212 1463.88 18.8926C1472.69 19.064 1470.45 19.5938 1480.89 19.4224C1491.33 19.2488 1516.09 18.7212 1522.94 19.2399C1529.79 19.7586 1536 19.2511 1541.21 19.3368C1551.99 19.5149 1564.38 18.7212 1575.14 19.2399C1585.91 19.7586 1592.76 19.5849 1592.76 19.5849L1603.85 19.2399C1603.85 19.2399 1620.5 19.4134 1628.32 19.4134C1636.16 19.4134 1637.78 19.0684 1643.33 19.0684C1648.88 19.0684 1656.39 18.8947 1666.5 19.242C1676.61 19.5894 1676.94 19.7607 1683.14 19.587C1689.34 19.4134 1705 19.242 1713.16 19.242C1721.31 19.242 1724.58 19.4157 1729.47 19.242C1734.36 19.0684 1735.34 19.0684 1738.93 19.0684C1742.52 19.0684 1754.27 19.0684 1758.83 19.0684C1763.4 19.0684 1769.27 19.242 1769.27 19.242L1777.43 18.897C1777.43 18.897 1786.24 18.897 1792.11 19.0707C1797.98 19.2443 1798.64 19.4156 1802.88 19.2442C1807.12 19.0728 1806.79 19.0707 1810.71 19.0707C1814.62 19.0707 1817.89 19.0707 1819.19 18.897C1820.5 18.7234 1828 18.3783 1828 18.3783C1828 18.3783 1821.31 18.4775 1818.22 18.3061C1815.13 18.1347 1805.21 18.3918 1801.15 18.1347C1797.09 17.8753 1782.62 17.9633 1776.44 17.8753C1770.26 17.7897 1770.91 18.0467 1766.36 17.961C1761.8 17.8753 1762.29 17.616 1757.91 17.7017C1753.52 17.7874 1747.01 17.8731 1741.32 17.7874C1735.63 17.7017 1735.96 17.7017 1730.59 17.7874C1725.23 17.8731 1725.55 17.8731 1720.68 17.9588C1715.8 18.0445 1708.32 17.8732 1699.87 17.8732C1691.42 17.8732 1691.09 17.9588 1686.7 17.9588C1682.31 17.9588 1676.3 17.9588 1676.3 17.9588C1676.3 17.9588 1673.21 17.9588 1667.36 17.9588C1661.5 17.9588 1661.18 18.0445 1657.27 17.9588C1653.37 17.8731 1655.81 17.7874 1649.14 17.9588C1642.48 18.1302 1634.84 17.9588 1629.64 18.0445C1624.44 18.1302 1624.6 18.2159 1621.35 18.1302C1618.09 18.0445 1616.96 17.7852 1614.52 17.7852C1612.08 17.7852 1607.04 17.8709 1607.04 17.8709C1607.04 17.8709 1595.98 18.3016 1589 18.1302C1582.01 17.9588 1577.29 17.8709 1577.29 17.8709L1569.65 17.9565L1551.93 17.9565L1542.17 18.0423C1542.17 18.0423 1538.76 17.9566 1534.53 17.8709C1530.31 17.7852 1518.11 17.6115 1518.11 17.6115L1510.47 17.6115C1506.57 17.4401 1490.97 17.7829 1490.97 17.7829L1480.4 17.8687L1466.25 17.9543C1466.25 17.9543 1460.73 17.6949 1455.36 17.6092L1447.07 17.7807L1437.48 17.4357L1413.42 17.607L1403.99 17.7784C1403.99 17.7784 1402.36 17.8641 1396.19 17.7784C1390.01 17.6927 1372.94 17.8642 1372.94 17.8642L1360.58 17.9498C1360.58 17.9498 1355.38 17.9499 1350.67 17.8642C1345.95 17.7785 1332.29 17.519 1324.98 17.7784C1317.66 18.0378 1322.22 18.0378 1313.93 17.9499C1305.64 17.8642 1295.23 17.6048 1287.75 17.6905C1280.27 17.7762 1280.27 17.8619 1275.4 17.7762C1270.52 17.6905 1266.62 17.6905 1266.62 17.6905L1245.64 17.5191C1245.64 17.5191 1239.3 17.4334 1231.82 17.5191C1224.35 17.6048 1214.43 17.3478 1206.95 17.6049C1199.47 17.8642 1194.76 17.9499 1194.76 17.9499L1171.19 17.7784L1154.6 17.6927C1154.6 17.6927 1134.45 17.8642 1126.97 17.8642C1119.49 17.8642 1124.53 17.6049 1116.89 17.6049C1109.25 17.6049 1112.01 17.6906 1105.5 17.6049C1099 17.5192 1079.65 17.6049 1079.65 17.6049C1079.65 17.6049 1073.96 17.6906 1067.14 17.6049C1060.31 17.5192 1053.16 17.5191 1053.16 17.5191L1032.02 18.0356C1032.02 18.0356 1026 17.6049 1019.83 17.6049C1013.65 17.6049 999.342 17.6906 994.792 17.6906C990.243 17.6906 991.54 18.4663 987.152 18.0356C982.764 17.6048 981.786 17.6049 981.786 17.6049C981.786 17.6049 979.834 17.6049 976.582 17.8642C973.329 18.1236 970.243 17.7784 964.549 17.7784C958.861 17.7784 959.184 18.2093 956.42 17.9499C953.656 17.6906 953.818 17.2598 950.893 17.5191C947.967 17.7785 946.505 17.9499 946.505 17.9499L942.44 17.8642L934.961 17.7785C934.961 17.7785 930.085 18.2093 926.832 18.0379C923.579 17.8665 923.579 17.5214 920.816 17.6928C918.052 17.8642 913.987 18.2092 913.987 18.2092L903.745 17.6049L896.427 17.9499L890.411 17.6906L876.104 17.9499C876.104 17.9499 872.039 18.1213 869.765 17.9499C867.49 17.7785 867.975 17.5191 865.377 17.7785C862.775 18.0378 859.849 18.0379 859.849 18.0379L853.348 17.6928L846.359 17.7785L830.75 17.5191L822.298 17.7785L816.609 18.0379L806.366 17.6928L794.5 17.6071C794.5 17.6071 791.247 18.1235 787.833 17.9521C784.419 17.7807 782.467 17.7808 782.467 17.7808C782.467 17.7808 779.215 17.8664 776.128 17.9521C773.041 18.0378 764.095 17.7808 764.095 17.7808C764.095 17.7808 758.406 18.0401 754.831 17.9521C751.255 17.8664 751.905 17.6928 748.33 17.7808C744.754 17.8665 727.521 18.0401 727.521 18.0401C727.521 18.0401 720.693 18.4708 718.091 18.1258C715.489 17.7807 711.913 17.7808 711.913 17.7808L705.246 17.7808L690.778 17.8665C690.778 17.8665 684.438 18.0378 681.347 17.9521C678.26 17.8664 676.793 17.9521 674.196 17.9521C671.594 17.9521 664.442 17.8665 664.442 17.8665C664.442 17.8665 651.274 17.9522 645.585 17.8665C639.897 17.7808 638.434 17.9522 635.343 17.9522C632.256 17.9522 629.816 17.7808 627.214 17.9522C624.611 18.1236 612.906 18.2973 606.89 18.1236C600.874 17.9522 598.761 17.8643 598.761 17.8643L592.26 18.0356L585.593 18.1213L566.409 18.0356C566.409 18.0356 560.231 18.1213 556.005 18.0356C551.778 17.9499 547.552 17.8643 547.552 17.8643C547.552 17.8643 535.847 18.1236 528.53 18.0356C521.212 17.9477 521.378 17.95 518.615 17.95C515.851 17.95 511.948 18.0356 511.948 18.0356C511.948 18.0356 495.527 18.1214 493.737 17.95C491.947 17.7786 484.634 17.8643 484.634 17.8643C484.634 17.8643 480.247 17.95 477.483 17.95L469.843 17.95L453.911 17.6906C453.911 17.6906 445.782 18.207 443.996 18.1213C442.206 18.0356 438.63 18.1213 438.63 18.1213C438.63 18.1213 426.113 18.1214 418.473 18.2071C410.832 18.2928 411.644 18.4664 407.907 18.2928C404.17 18.1214 404.82 18.4642 400.59 18.2071C396.363 17.9478 381.244 17.6907 381.244 17.6907L372.464 17.862C372.464 17.862 366.448 17.7763 363.523 17.7763C360.597 17.7763 347.591 17.6907 347.591 17.6907C347.591 17.6907 339.951 18.1214 334.585 18.0357C329.219 17.95 323.369 17.4313 315.563 17.605C307.761 17.7764 308.896 17.5192 304.346 17.5192C299.797 17.5192 299.308 17.0028 295.243 17.1742C291.179 17.3456 291.668 17.2599 288.415 17.2599C285.162 17.2599 272.484 17.4313 272.484 17.4313L260.451 17.517L253.3 17.517C250.536 17.517 246.31 17.517 246.31 17.517C246.31 17.517 237.691 16.9126 230.378 17.2577C223.061 17.6027 222.249 17.6027 219.162 17.6027C216.075 17.6027 216.887 17.2577 211.845 17.4313C206.806 17.6027 189.574 17.6907 189.574 17.6907C189.574 17.6907 182.746 17.605 178.681 17.605C174.616 17.605 175.594 17.6906 172.503 17.5192C169.416 17.3478 163.562 17.5192 163.562 17.5192C163.562 17.5192 153.319 16.7435 145.19 17.0886C137.06 17.4336 137.711 17.693 133.323 17.605C128.935 17.5193 129.42 17.5192 124.705 17.5192C119.989 17.5192 120.151 17.6049 116.414 17.5192C112.676 17.4335 97.3912 17.605 97.3912 17.605C97.3912 17.605 92.3528 17.7764 87.9607 17.6907C83.5729 17.605 84.2234 17.5193 80.6434 17.4314C77.0677 17.3457 73.003 17.3456 73.003 17.3456C73.003 17.3456 62.7605 17.517 55.4432 17.2599C48.1259 17.0006 42.9259 17.3456 42.9259 17.3456C42.9259 17.3456 39.5118 17.517 36.5865 17.517C33.6613 17.517 30.0856 17.6884 30.0856 17.6884C30.0856 17.6884 16.7562 17.517 14.9663 17.517C13.1763 17.517 9.43894 17.8621 9.43894 17.8621L1.80713e-07 18.2996Z" fill="#C33D3D"/>
<path d="M1795.06 2.87786C1794 2.87786 1789.01 3.04604 1786.17 3.04604C1783.34 3.04604 1780.15 3.3824 1775.54 3.3824C1770.94 3.3824 1770.94 3.55057 1765.98 3.55057C1761.02 3.55057 1757.12 3.71875 1757.12 3.71875L1746.49 3.04605L1733.73 3.21423C1733.73 3.21423 1721.33 3.21423 1714.95 3.38241C1708.57 3.55058 1695.82 2.87788 1695.82 2.87788C1695.82 2.87788 1688.73 3.38241 1682 3.38241C1675.27 3.38241 1678.1 3.71875 1672.43 3.38241C1666.76 3.04607 1660.74 3.21424 1660.74 3.21424C1660.74 3.21424 1636.65 3.38241 1630.98 3.21424C1625.31 3.04607 1618.22 3.04607 1618.22 3.04607L1606.88 3.04607L1595.9 2.87789L1581.02 3.04607C1581.02 3.04607 1561.53 2.8779 1556.21 3.04607C1550.9 3.21425 1553.03 3.21425 1545.94 3.21425C1538.85 3.21425 1533.54 3.38243 1533.54 3.38243C1533.54 3.38243 1527.51 3.38243 1523.26 3.38243C1519.01 3.38243 1508.74 3.88696 1508.74 3.88696L1487.12 3.38244L1475.78 3.55061L1466.57 3.55062C1466.57 3.55062 1449.21 3.38244 1441.41 3.38244C1433.62 3.38244 1434.33 2.87793 1429.72 3.38244C1425.11 3.88696 1421.57 3.7188 1421.57 3.7188C1421.57 3.7188 1413.42 3.88697 1408.82 3.7188C1404.21 3.55063 1398.54 3.55063 1398.54 3.55063C1398.54 3.55063 1393.93 3.38245 1390.39 3.38245C1386.85 3.38245 1383.3 3.38245 1383.3 3.38245C1383.3 3.38245 1379.76 3.7188 1376.22 3.55063C1372.67 3.38246 1369.13 2.87792 1369.13 2.87792C1369.13 2.87792 1373.03 3.38245 1361.69 3.21428C1350.35 3.04611 1335.47 3.71881 1335.47 3.71881L1324.84 3.55064L1314.92 3.55064L1303.23 3.38246C1303.23 3.38246 1299.33 3.88699 1295.79 3.71882C1292.24 3.55064 1287.28 3.38246 1287.28 3.38246C1287.28 3.38246 1275.23 3.55064 1266.02 3.55064C1256.81 3.55064 1251.85 3.55065 1251.85 3.55065C1251.85 3.55065 1247.6 3.71882 1241.93 3.55065C1236.26 3.38248 1236.61 3.21429 1231.3 3.04612C1225.98 2.87795 1223.5 2.87794 1223.5 2.87794L1213.58 3.38247L1191.26 3.55065L1178.15 2.70977L1167.17 3.04613L1159.72 3.21431C1159.72 3.21431 1143.43 3.38248 1134.57 3.04613C1125.71 2.70979 1125 3.04613 1120.04 3.04614C1115.08 3.04614 1111.89 3.21431 1111.89 3.21431L1102.68 2.70978C1102.68 2.70978 1086.38 3.55066 1079.65 3.38249C1072.91 3.21432 1067.25 3.21432 1067.25 3.21432L1056.26 3.21432L1045.28 3.21432C1045.28 3.21432 1029.69 2.37346 1020.12 3.04615C1010.55 3.71884 1012.33 4.22338 1007.01 3.88703C1001.7 3.55069 1003.47 3.55068 996.735 3.3825C990.002 3.21433 982.916 3.04616 980.79 3.21433C978.664 3.3825 966.263 2.87798 953.153 3.04616C940.042 3.21433 937.917 3.55069 937.917 3.55069L928.704 3.88704L913.822 3.55069C913.822 3.55069 897.523 3.38252 889.02 3.38252C880.516 3.38252 878.744 3.38252 872.012 3.21435C865.28 3.04617 859.611 3.21435 859.611 3.21435L846.855 3.5507C846.855 3.5507 844.375 3.04617 828.43 2.878C812.485 2.70983 806.816 3.21435 806.816 3.21435C806.816 3.21435 799.73 3.71888 794.06 3.38253C788.391 3.04619 782.368 3.04618 782.368 3.04618C782.368 3.04618 764.297 3.71888 755.084 3.21436C745.872 2.70985 739.14 3.21436 739.14 3.21436L729.219 3.88707C729.219 3.88707 723.904 3.38254 717.88 3.38254C711.857 3.38254 706.896 2.3735 697.329 2.87802C687.763 3.38254 688.117 4.39159 684.219 3.7189C680.322 3.04621 685.282 2.03715 678.55 2.70984C671.818 3.38253 672.527 4.39159 668.275 3.7189C664.023 3.04622 656.228 3.88707 647.37 3.55073C638.511 3.21439 638.157 3.7189 633.196 3.55073C628.236 3.38256 628.945 4.3916 621.858 3.71891C614.772 3.04622 606.268 3.04621 599.536 3.21438C592.803 3.38256 585.008 3.55074 585.008 3.55074L575.087 3.21439C570.126 3.04622 564.103 2.70986 564.103 2.70986L549.576 3.55074L533.631 3.38257L516.623 2.87804L505.285 3.2144C505.285 3.2144 486.506 3.38257 478.71 3.2144C470.915 3.04623 463.829 2.70987 463.829 2.70987L452.136 3.55076L424.144 3.21441C424.144 3.21441 413.869 3.71894 409.263 3.71894C404.656 3.71894 398.987 3.55076 398.987 3.55076L366.744 3.04624L348.673 3.71895L337.335 3.3826C337.335 3.3826 330.248 3.71894 324.933 3.3826C319.618 3.04625 298.713 3.04625 298.713 3.04625C298.713 3.04625 293.753 4.39165 284.186 3.88713C274.619 3.38262 271.076 3.38261 271.076 3.38261L258.674 3.38261C253.359 3.38261 232.808 2.70991 232.808 2.70991C232.808 2.70991 223.596 3.71896 216.155 3.55079C208.714 3.38262 203.045 3.21444 203.045 3.21444L188.518 3.38262L175.053 3.21444C175.053 3.21444 166.195 3.5508 160.526 3.5508C154.857 3.5508 149.188 3.5508 149.188 3.5508L137.141 3.71898C137.141 3.71898 116.235 3.38263 111.629 3.38263C107.023 3.38263 101.354 3.38263 101.354 3.38263C101.354 3.38263 95.6845 3.88716 92.8499 3.71898C90.0153 3.55081 89.6609 3.71898 85.7634 3.55081C81.8658 3.38264 80.0941 3.21446 76.9052 3.21446C73.7163 3.21446 71.5903 2.54176 68.4014 2.70993C65.2125 2.8781 61 2.2054 61 2.2054L64.8581 1.70087C64.8581 1.70087 74.7793 1.02816 78.6768 1.02816C82.5744 1.02816 90.3696 0.859984 90.3696 0.859984C90.3696 0.859984 93.2456 -0.212344 98.8918 0.576099C104.543 1.36454 110.566 -0.149065 119.424 0.355451C128.282 0.859966 130.054 0.859979 133.952 0.859978C137.849 0.859978 143.164 0.6918 143.164 0.6918C143.164 0.6918 158.4 0.355445 163.361 0.355445C168.321 0.355444 180.014 0.0190937 187.809 0.187265C195.604 0.355436 203.399 0.355439 203.399 0.355439C203.399 0.355439 208.714 0.523615 214.029 0.523614C219.344 0.523613 223.596 0.523613 223.596 0.523613L232.808 0.691788C232.808 0.691788 263.635 0.85996 270.017 0.859959C276.395 0.859958 277.104 0.355442 282.064 0.859958C287.025 1.36447 290.214 1.19631 290.214 1.19631C290.214 1.19631 296.946 0.691783 301.198 0.859955C305.45 1.02813 307.576 1.53265 310.765 1.02813C313.954 0.523613 316.788 0.691776 316.788 0.691776L324.583 1.1963L330.607 0.859951C330.607 0.859951 352.575 0.523595 357.89 0.523594C363.205 0.523593 362.851 0.523598 367.811 0.691769C372.772 0.859941 376.669 0.859944 376.669 0.859944C376.669 0.859944 385.882 0.52359 393.677 0.523589C401.472 0.523588 394.386 0.859946 405.015 1.02812C415.645 1.19629 419.543 1.19629 419.543 1.19629L424.149 0.859938L432.298 0.69176L451.432 0.187228L463.125 0.859932C463.125 0.859932 467.731 0.523587 471.274 0.859931C474.817 1.19628 473.4 1.7008 478.006 1.36446C482.613 1.02811 495.014 0.691751 495.014 0.691751L506.707 0.859926L516.274 0.355396C516.274 0.355396 530.092 0.523574 534.699 0.691746C539.305 0.859917 543.557 1.19627 543.557 1.19627C543.557 1.19627 549.935 0.187219 554.895 0.35539C559.856 0.523562 568.714 0.691741 568.714 0.691741C568.714 0.691741 575.8 0.523568 586.43 0.691739C597.06 0.859909 606.981 1.02809 606.981 1.02809C606.981 1.02809 616.902 0.355382 623.634 0.355381C630.366 0.35538 637.453 0.523555 637.453 0.523555C637.453 0.523555 645.957 0.0190374 653.043 0.523553C660.13 1.02807 665.09 0.355375 673.949 0.355374C679.854 0.355373 684.933 0.411434 689.185 0.523548C695.562 0.691719 690.956 1.02808 700.523 1.02808C710.09 1.02807 722.491 0.691724 729.932 0.859895C737.373 1.02807 735.956 1.02807 740.916 1.02807C745.877 1.02807 758.632 0.691715 766.073 0.691714C773.514 0.691713 780.955 0.859888 780.955 0.859888L792.293 1.02806C792.293 1.02806 812.844 0.187186 821.348 0.52353C829.852 0.859873 837.647 1.02806 837.647 1.02806C837.647 1.02806 842.962 1.19623 849.694 1.19623C856.426 1.19623 864.93 0.187179 874.497 0.523522C884.064 0.859865 891.859 0.859873 891.859 0.859873C891.859 0.859873 893.985 0.523528 901.426 0.859871C908.866 1.19621 929.417 1.02804 935.087 1.02804C940.756 1.02804 945.362 1.02804 945.362 1.02804L955.283 0.691687C955.283 0.691687 966.976 0.523509 972.291 0.523509C977.606 0.523508 983.629 0.691683 988.235 0.691683L998.865 0.691681C998.865 0.691681 998.511 0.691681 1007.01 0.69168C1015.52 0.691679 1026.5 0.691678 1033.94 0.691676C1041.38 0.691675 1049.18 0.691674 1049.18 0.691674C1049.18 0.691674 1052.72 1.1962 1058.39 1.02803C1064.06 0.859853 1082.84 1.02802 1087.45 1.02802C1092.05 1.02802 1100.2 1.1962 1100.2 1.1962C1100.2 1.1962 1102.33 0.859848 1111.19 1.02802C1120.04 1.19619 1137.05 0.859839 1137.05 0.859839C1137.05 0.859839 1146.62 1.53254 1151.93 1.36437C1157.25 1.19619 1174.61 1.19618 1181.34 1.02801C1188.07 0.859836 1185.59 1.02801 1194.45 1.02801C1203.31 1.02801 1228.11 1.028 1235.2 1.028C1242.3 1.028 1243.71 1.36435 1249.38 1.19618C1255.05 1.028 1252.21 1.36435 1259.3 1.36435C1266.39 1.36435 1273.47 1.53251 1280.91 1.028C1288.35 0.523478 1290.13 0.355288 1294.73 0.355287C1299.34 0.355287 1307.49 0.523462 1307.49 0.523462C1307.49 0.523462 1308.9 1.028 1318.47 1.19617C1328.04 1.36434 1330.87 0.355287 1340.79 0.523457C1350.72 0.691628 1350.72 0.859809 1355.32 0.859808C1359.93 0.859808 1365.24 0.69163 1365.24 0.69163C1365.24 0.69163 1384.02 0.691628 1391.11 0.691627C1398.19 0.691626 1400.68 1.02798 1404.93 1.02798C1409.18 1.02798 1412.37 0.8598 1412.37 0.8598C1412.37 0.8598 1429.38 0.355273 1435.04 0.523444C1440.71 0.691616 1440.36 1.02797 1446.74 1.02797C1453.12 1.02797 1456.66 1.02797 1456.66 1.02797C1456.66 1.02797 1478.27 0.859791 1483.23 0.85979C1488.19 0.85979 1492.8 1.19614 1496.34 1.02797C1499.89 0.859792 1504.14 0.691611 1504.14 0.691611C1504.14 0.691611 1514.41 0.859782 1521.5 0.691609C1528.59 0.523436 1531.07 0.85978 1536.38 0.691607C1541.7 0.523434 1548.78 0.523433 1553.74 0.691604C1558.7 0.859776 1550.55 -0.149273 1560.83 0.0188974C1571.11 0.187068 1577.48 0.523424 1577.48 0.523424L1589.53 0.523423C1589.53 0.523423 1595.2 0.0189012 1600.16 0.355245C1605.12 0.691589 1614.69 -0.149278 1624.25 0.187065C1633.82 0.523408 1638.43 0.355244 1643.74 0.523415C1649.06 0.691587 1646.58 0.18707 1654.37 0.523414C1662.17 0.859757 1674.57 0.85976 1684.49 0.691586C1694.41 0.523412 1699.02 0.691584 1702.91 0.691583C1706.81 0.691583 1712.84 0.355229 1712.84 0.355229C1712.84 0.355229 1735.51 0.523402 1741.89 0.523402C1748.27 0.523401 1751.46 0.691577 1754.65 0.691576C1757.84 0.691576 1757.48 0.523404 1761.38 0.691575C1765.28 0.859747 1767.4 1.02793 1770.24 1.1961C1773.07 1.36428 1777.32 2.03698 1780.87 1.86881C1784.41 1.70064 1786.89 2.20516 1790.08 2.20516C1793.27 2.20516 1799 2.20516 1799 2.20516L1795.06 2.87786Z" fill="#C33D3D"/>
</svg>
