<svg width="106" height="99" viewBox="0 0 106 99" fill="none" xmlns="http://www.w3.org/2000/svg">
<circle cx="53" cy="42" r="27" fill="url(#paint0_linear_2_206)" stroke="#7A86FF"/>
<g filter="url(#filter0_d_2_206)">
<path d="M62.0423 33.596C60.3474 32.8487 58.5473 32.304 56.6684 32C56.4319 32.3927 56.1691 32.9247 55.9851 33.3427C53.9867 33.064 52.0026 33.064 50.0317 33.3427C49.8478 32.9247 49.5718 32.3927 49.3485 32C47.4564 32.304 45.6564 32.8487 43.9732 33.596C40.5702 38.4346 39.6504 43.1593 40.1103 47.8206C42.3703 49.4039 44.5514 50.3666 46.6944 51C47.22 50.316 47.693 49.5813 48.1003 48.8086C47.3251 48.53 46.5893 48.1879 45.8798 47.7826C46.0637 47.656 46.2477 47.5167 46.4185 47.3773C50.7019 49.2647 55.3413 49.2647 59.5721 47.3773C59.7561 47.5167 59.9269 47.656 60.1109 47.7826C59.4013 48.1879 58.6656 48.53 57.8903 48.8086C58.2976 49.5813 58.7707 50.316 59.2962 51C61.4379 50.3666 63.6322 49.4039 65.8803 47.8206C66.4452 42.4247 64.9855 37.738 62.0423 33.596ZM48.6916 44.9453C47.4039 44.9453 46.3528 43.818 46.3528 42.4373C46.3528 41.0567 47.3776 39.9293 48.6916 39.9293C49.9923 39.9293 51.0566 41.0567 51.0303 42.4373C51.0303 43.818 49.9923 44.9453 48.6916 44.9453ZM57.3254 44.9453C56.0377 44.9453 54.9852 43.818 54.9852 42.4373C54.9852 41.0567 56.0114 39.9293 57.3254 39.9293C58.6261 39.9293 59.6904 41.0567 59.6641 42.4373C59.6641 43.818 58.6393 44.9453 57.3254 44.9453Z" fill="white"/>
</g>
<defs>
<filter id="filter0_d_2_206" x="0" y="0" width="106" height="99" filterUnits="userSpaceOnUse" color-interpolation-filters="sRGB">
<feFlood flood-opacity="0" result="BackgroundImageFix"/>
<feColorMatrix in="SourceAlpha" type="matrix" values="0 0 0 0 0 0 0 0 0 0 0 0 0 0 0 0 0 0 127 0" result="hardAlpha"/>
<feOffset dy="8"/>
<feGaussianBlur stdDeviation="20"/>
<feComposite in2="hardAlpha" operator="out"/>
<feColorMatrix type="matrix" values="0 0 0 0 0.25098 0 0 0 0 0.305882 0 0 0 0 0.929412 0 0 0 0.24 0"/>
<feBlend mode="normal" in2="BackgroundImageFix" result="effect1_dropShadow_2_206"/>
<feBlend mode="normal" in="SourceGraphic" in2="effect1_dropShadow_2_206" result="shape"/>
</filter>
<linearGradient id="paint0_linear_2_206" x1="53" y1="15" x2="53" y2="69" gradientUnits="userSpaceOnUse">
<stop stop-color="#4F5DFA"/>
<stop offset="1" stop-color="#7681FF"/>
</linearGradient>
</defs>
</svg>
