<svg width="60" height="61" viewBox="0 0 60 61" fill="none" xmlns="http://www.w3.org/2000/svg">
<path d="M3.12031 60.1016C3.49669 60.2269 5.50606 60.6031 7.01158 60.3523C8.51709 60.1016 9.39735 60.2269 11.0283 59.8508C12.6613 59.4747 13.1631 59.3493 14.5431 59.0986C15.9232 58.8478 16.5526 59.0986 17.0544 58.5971C17.5562 58.0956 18.6874 57.7194 18.6874 57.7194C18.6874 57.7194 20.0674 57.8448 21.0731 56.9672C22.0768 56.0895 22.2022 55.9642 23.8352 55.588C25.4682 55.2119 25.8447 54.8358 27.6011 53.7054C29.3596 52.577 29.9869 52.577 31.116 51.9481C32.2451 51.3212 33.3763 49.8147 33.3763 49.8147L35.6366 48.0574C35.6366 48.0574 36.5148 47.5559 37.646 46.4255C38.7751 45.2971 40.1572 43.6652 41.5372 42.1607C42.9173 40.6562 43.0427 40.278 44.0484 39.1496C45.0521 38.0213 45.4285 37.7705 45.8069 37.0162C46.1833 36.264 46.6851 36.0132 47.3124 34.8828C47.9397 33.7544 48.0652 33.5037 48.6925 32.2479C49.3198 30.9941 49.3198 30.8688 49.9471 29.7384C50.5744 28.61 50.6998 29.3622 51.2017 27.8557C51.7035 26.3512 52.2054 27.2288 52.5818 25.2208C52.9581 23.2127 53.8363 22.7112 54.2147 20.2017C54.5911 17.6922 54.4657 17.5668 54.842 16.1876C55.2184 14.8085 55.3439 15.0593 55.4694 13.5527C55.5948 12.0482 55.8457 12.8005 55.8457 11.2939C55.8457 9.78741 55.7202 9.66204 55.5948 8.65903C55.4693 7.65602 54.9675 7.53065 54.9675 6.40024C54.9675 5.26983 54.8421 5.0211 54.7166 4.26683C54.5911 3.51457 54.3402 2.38416 54.3402 2.38416L53.211 -1.15165e-07C53.211 -1.15165e-07 53.4336 1.54091 53.5571 2.09297C53.6805 2.64301 53.8626 3.80779 53.8626 3.80779C53.8626 3.80779 53.9861 4.72586 54.1075 5.52261C54.2289 6.31935 54.1682 6.56404 54.3524 7.23743C54.5365 7.91082 54.7206 8.21617 54.6579 8.58421C54.5952 8.95224 54.5972 10.299 54.5972 10.299C54.5972 10.299 54.5365 12.2585 54.4131 13.0533C54.2896 13.848 53.9841 14.9521 53.9841 14.9521C53.9841 14.9521 53.9234 15.8095 53.7392 16.3595C53.5551 16.9096 53.5551 16.6042 53.3709 17.4616C53.1868 18.319 52.9419 19.2371 52.9419 19.2371C52.9419 19.2371 52.9419 20.5232 52.4522 21.6253C51.9625 22.7274 51.9625 22.9721 51.5335 23.7688C51.1045 24.5656 51.228 24.9943 50.799 25.605C50.37 26.2157 49.8196 27.1965 49.8196 27.1965L48.5934 29.0953C48.5934 29.0953 48.6541 30.0134 47.6747 31.0548C46.6953 32.0962 47.3064 31.9729 46.2035 33.0143C45.1007 34.0557 45.1614 33.8717 44.611 34.7898C44.0606 35.7079 44.611 35.7079 43.9372 36.3206C43.2633 36.9333 42.9578 38.0354 41.6081 39.2588C40.2604 40.4843 40.3818 40.729 39.7079 41.1577C39.0341 41.5864 38.5444 42.5651 38.5444 42.5651L37.2575 43.9119C37.2575 43.9119 35.8491 45.8107 35.1752 46.4214C34.5014 47.0321 34.5014 46.9108 33.8275 47.4629C33.1537 48.0149 32.9696 48.2596 32.3564 48.6256C31.7433 48.9937 30.7639 49.6671 30.7639 49.6671C30.7639 49.6671 29.7845 51.1372 28.6817 51.5659C27.5788 51.9946 27.4554 51.7499 26.2918 52.484L25.1283 53.218C25.1283 53.218 23.9648 54.1361 22.1254 54.7488C20.288 55.3616 20.4722 55.7903 19.4301 56.0349C18.388 56.2796 18.9403 56.2796 17.7768 56.585C16.6132 56.8903 16.4291 57.9318 14.5918 58.0551C12.7544 58.1785 12.8151 57.9944 11.7729 58.3605C10.7308 58.7285 10.7935 58.7892 9.87279 58.9732C8.95208 59.1572 9.01489 59.1572 8.0355 59.3412C7.0561 59.5252 5.82977 59.8306 5.34008 59.8913C4.85038 59.9519 3.12031 60.0955 3.12031 60.0955L3.12031 60.1016Z" fill="#C33D3D"/>
<path d="M18.3959 20.1107C18.3959 20.1107 19.9663 21.419 20.6867 22.1369C21.407 22.8568 21.7328 23.4453 22.4532 23.8376C23.1736 24.2299 23.2384 24.0984 23.8272 24.6869C24.4161 25.2754 24.5475 25.4715 25.0696 25.8638C25.5937 26.2561 25.5269 26.2561 26.1825 27.0407C26.8361 27.8253 27.0992 27.8901 28.0806 28.3491C29.0621 28.8061 30.3045 30.5715 31.3527 31.3581C32.3989 32.1427 32.4656 32.2074 33.5766 33.1235C34.6895 34.0395 35.5394 34.9536 35.5394 34.9536C35.5394 34.9536 38.0264 36.5228 38.8763 37.2427C39.7262 37.9626 39.4651 38.2235 40.1187 38.7472C40.7723 39.271 40.576 39.3357 41.3612 39.8594C42.1463 40.3832 43.1925 40.5793 44.1091 41.5601C45.0258 42.5408 45.6146 43.1293 45.6146 43.1293L47.1202 44.3709C47.1202 44.3709 48.0368 44.8947 48.4942 45.287C48.9515 45.6793 49.8681 46.3324 49.8681 46.3324C49.8681 46.3324 48.5589 46.2677 48.1663 46.201C47.7738 46.1363 47.446 46.1363 46.9239 46.2657C46.4018 46.3951 45.811 46.3972 45.811 46.3972L44.3054 46.4619L43.063 46.5933L41.8205 46.7248C41.8205 46.7248 42.9982 47.0523 43.6518 47.1171C44.3054 47.1818 45.7462 47.3132 45.7462 47.3132L47.3165 47.3132C47.3165 47.3132 48.4294 47.5741 49.2145 47.5741C49.9996 47.5741 49.8682 47.6388 50.7201 47.6388C51.572 47.6388 52.4218 47.7035 52.6181 47.7035C52.8144 47.7035 53.2717 47.7682 53.2717 47.7682C53.2717 47.7682 52.9439 46.3951 52.8144 45.9381C52.6829 45.4811 52.6181 44.6298 52.4866 43.9766C52.3551 43.3234 52.2903 43.1273 52.2256 42.3427C52.1608 41.5581 51.833 40.7087 51.833 40.7087L51.2441 38.9434L50.7201 37.2427C50.7201 37.2427 50.6553 39.1395 50.8516 39.5318C51.0479 39.9241 51.0478 41.2325 51.1794 41.6895C51.3109 42.1465 51.2441 43.1273 51.2441 43.1273C51.2441 43.1273 51.5052 44.1727 51.5052 44.5003C51.5052 44.8279 51.6367 45.4811 51.6367 45.4811L49.8701 44.2395C49.8701 44.2395 48.8887 43.8472 47.9721 43.1273C47.0554 42.4074 47.2517 42.735 46.4018 41.9504C45.5519 41.1658 45.7482 41.2305 44.963 40.7087C44.1779 40.185 42.5409 38.9434 41.4947 38.0273C40.4485 37.1113 40.056 36.7857 39.4003 36.2619C38.7467 35.7382 38.68 35.8696 37.5023 34.7574C36.3246 33.6452 35.0153 32.5997 34.1655 31.9446C33.3156 31.2914 32.6599 30.7676 31.6137 29.7869C30.5676 28.8061 29.9119 28.5453 29.1268 27.8254C28.3417 27.1054 28.0806 27.3683 27.425 26.8446C26.7714 26.3208 25.3975 24.8831 24.7418 24.4908C24.0882 24.0984 22.8437 23.3785 22.4511 23.053C22.0586 22.7254 20.8162 21.6799 20.6199 21.5485C20.4236 21.417 18.3959 20.1107 18.3959 20.1107Z" fill="#C33D3D"/>
<path d="M34.2322 19.5222C34.2322 19.7184 33.7749 20.503 33.7081 20.96C33.6434 21.417 33.3803 21.6799 33.0545 22.3331C32.7267 22.9863 32.7267 23.1177 32.4009 23.6415C32.0751 24.1652 31.6158 23.969 31.288 24.7537C30.9602 25.5383 30.8306 25.6697 30.5028 26.1267C30.175 26.5837 30.2418 26.3229 29.8492 27.1722C29.4567 28.0215 29.3919 28.0883 29.0641 28.2844C28.7363 28.4806 28.54 28.2844 28.1474 28.9376C27.8857 29.373 27.5802 29.7869 27.2308 30.1792C26.7067 30.7677 26.2493 30.8991 25.9883 31.16C25.7272 31.4208 25.5957 31.8131 24.9421 32.1407C24.2885 32.4683 24.0922 32.4683 23.6329 32.8606C23.1735 33.2529 23.1088 33.0568 22.3905 33.4491C21.6701 33.8414 20.9517 34.3651 20.9517 34.3651L19.774 34.8889L18.4648 35.3459C18.4648 35.3459 20.6887 35.2812 21.0833 35.0183C21.4779 34.7554 22.4572 34.4946 23.1776 34.2337C23.8979 33.9728 24.0943 34.0375 24.7479 33.6452C25.4015 33.2529 25.6645 33.1882 26.3181 32.7959C26.9717 32.4036 27.168 32.5998 27.7569 32.076C28.3457 31.5523 28.8031 31.2267 29.2624 30.7029C29.7197 30.1792 29.916 30.0498 30.3086 29.4613C30.7011 28.8729 30.7011 28.9376 31.2252 28.2844C31.7493 27.6312 31.8141 27.2389 32.1419 26.6505C32.4697 26.062 32.666 25.3421 32.927 24.8851C33.1881 24.4281 33.5807 24.1652 33.7122 23.512C33.8437 22.8589 33.9732 21.8114 33.9732 21.8114L34.3658 20.4383L34.2342 19.5222L34.2322 19.5222Z" fill="#C33D3D"/>
<path d="M24.7439 43.5883C24.7439 43.5883 25.1364 44.373 25.6605 45.1576C26.1846 45.9422 26.3141 46.203 26.5104 46.7915C26.7067 47.38 27.164 48.3607 27.164 48.3607L27.7529 49.6691C27.7529 49.6691 28.4064 50.7145 28.6695 51.1736C28.9305 51.6306 29.0621 51.9582 29.3899 52.4152C29.7177 52.8722 30.4361 54.1159 30.4361 54.1159L31.4823 55.4242L33.1172 57.6466C33.1172 57.6466 32.7247 55.8165 32.2006 55.0299C31.6765 54.2453 30.8266 52.8075 30.8266 52.8075C30.8266 52.8075 30.0415 51.2383 29.6489 50.5184C29.2564 49.7985 28.6028 48.5569 28.6028 48.5569L27.425 46.3992L25.7232 44.4377L24.7419 43.5883L24.7439 43.5883Z" fill="#C33D3D"/>
<path d="M40.9059 21.2876L43.4575 21.4838L45.5519 21.9408L47.5795 22.3978C47.5795 22.3978 48.6924 22.2664 49.2145 22.3331C49.7386 22.3978 50.9163 22.6607 50.9163 22.6607C50.9163 22.6607 51.7014 22.7921 52.5513 22.9883C53.4012 23.1844 54.1864 23.4453 54.1864 23.4453C54.1864 23.4453 55.4956 23.6415 56.2139 23.9691C56.9323 24.2966 59.0934 25.0145 59.0934 25.0145L56.4102 24.9498L54.5122 24.8851L52.1567 24.5575L49.7346 23.9043L47.3792 23.1197L45.0237 22.4666L42.9962 21.9428L40.9018 21.2896L40.9059 21.2876Z" fill="#C33D3D"/>
<path d="M35.9988 12.1331C36.0635 11.7408 36.0635 11.1524 35.8672 10.8915C35.671 10.6307 35.6062 10.4992 35.4099 10.3031C35.2136 10.1069 34.8858 9.84604 34.8858 9.84604L34.1007 9.45374L33.5119 9.45374C33.5119 9.45374 33.3803 9.51845 32.8583 9.7146C32.3342 9.91075 32.7267 9.25758 32.3341 9.91075C31.9416 10.5639 32.0063 10.6307 31.8768 10.9562C31.7473 11.2818 31.6158 11.3485 31.7453 11.7408C31.8748 12.1331 31.81 12.2646 32.0063 12.5902C32.2026 12.9157 32.5304 13.1786 32.5304 13.1786L33.3156 13.6356L34.3617 13.6356L35.0821 13.308L35.671 12.9804L35.9988 12.1311L35.9988 12.1331Z" fill="#C33D3D"/>
<path d="M27.7549 11.6761C27.7549 11.2838 27.166 10.3031 27.166 10.3031C27.166 10.3031 26.9697 9.71462 26.3809 9.71462C25.792 9.71462 25.3995 9.38702 25.3995 9.38702C25.3995 9.38702 25.1384 9.38703 24.6143 9.64789C24.0902 9.90875 24.9422 9.7126 24.0903 9.90875C23.2384 10.1049 23.1736 10.3011 23.1088 10.8248C23.0441 11.3486 23.1736 10.6934 23.1088 11.7409C23.0441 12.7863 22.9773 12.9178 23.3052 13.1786C23.633 13.4395 23.8292 13.7671 23.8292 13.7671L24.9422 14.2908L26.1198 14.2908C26.1198 14.2908 27.0365 14.2908 27.1013 13.8338C27.166 13.3768 27.2976 13.0492 27.4291 12.7216C27.5606 12.394 27.7569 11.6761 27.7569 11.6761L27.7549 11.6761Z" fill="#C33D3D"/>
<path d="M14.6019 28.4826C14.7981 28.0256 14.4703 27.698 14.274 27.1742C14.0777 26.6505 14.013 26.1935 13.6204 26.1935C13.2279 26.1935 12.5075 25.9973 12.5075 25.9973L11.8539 25.8659C11.8539 25.8659 11.3299 25.7344 10.8725 26.062C10.4152 26.3896 10.741 25.8659 10.4152 26.3896C10.0894 26.9134 9.95789 26.8466 9.95789 27.4351C9.95789 28.0235 9.63008 27.1742 9.95789 28.0235C10.2857 28.8729 10.0894 28.8082 10.3504 29.2652C10.6115 29.7222 10.5467 29.7889 11.004 30.0498C11.4614 30.3106 11.5929 30.5735 12.117 30.5735C12.6411 30.5735 13.491 30.705 13.491 30.705L14.2114 29.9204C14.2114 29.9204 14.6039 29.9851 14.7354 29.4633C14.867 28.9416 14.6039 28.4826 14.6039 28.4826L14.6019 28.4826Z" fill="#C33D3D"/>
<path d="M15.1907 37.18C15.1907 36.723 15.0591 36.3307 14.8628 35.8069C14.6666 35.2832 14.5351 35.0223 14.013 34.9576C13.4909 34.8929 13.2278 34.63 12.8352 34.6968C12.4427 34.7615 12.378 34.6321 11.9186 34.9576C11.4613 35.2852 11.9833 34.5653 11.4612 35.2852C10.9372 36.0051 10.6761 36.3307 10.6761 36.3307L10.8725 37.5723L11.5928 38.2922L12.639 38.816L13.6852 38.9474C13.6852 38.9474 14.4703 38.8827 14.6018 38.4237C14.7333 37.9646 15.1907 37.182 15.1907 37.182L15.1907 37.18Z" fill="#C33D3D"/>
<path d="M10.5102 22.232L10.8926 21.7648L11.7871 21.2532L12.0845 21.2532L13.0214 21.9347C13.0214 21.9347 12.7665 21.5101 12.6815 21.3806C12.5965 21.2532 12.3415 20.7416 12.3415 20.7416L12.724 20.954L13.4059 21.508L14.0453 21.8053C14.0453 21.8053 13.5354 21.1663 13.3634 20.9115C13.1934 20.6567 13.0659 20.2725 13.0659 20.2725C13.0659 20.2725 13.7904 19.5485 14.0028 19.2513C14.2153 18.954 14.3853 18.8691 14.8122 18.4424C15.2372 18.0177 15.4517 17.6335 15.9192 17.1664C16.3866 16.6993 17.281 15.6356 17.5805 15.2938C17.8779 14.9541 17.8354 14.8692 18.1774 14.6548C18.5173 14.4425 18.7319 13.8459 18.7319 13.8459L19.3713 13.122C19.3713 13.122 19.9257 12.3131 20.0957 12.1008C20.2657 11.8885 20.8201 10.9097 20.8201 10.9097C20.8201 10.9097 20.3527 11.2919 20.0532 11.4213C19.7557 11.5487 19.7133 11.9309 19.3289 12.1877C18.9464 12.4425 18.7319 12.9542 18.7319 12.9542C18.7319 12.9542 18.2644 12.4446 18.1349 12.3576C18.0074 12.2727 17.795 12.0603 17.4955 11.7611C17.1981 11.4638 16.941 11.0371 16.516 10.6549C16.0911 10.2727 16.0486 10.1453 15.6217 9.80359C15.1967 9.46386 15.1118 9.20704 14.6848 8.65498C14.2598 8.1009 14.2174 8.05843 13.6629 7.7187C13.4019 7.55895 13.1712 7.33246 12.9972 7.13833L12.9972 7.13429L13.1509 6.71165L13.5293 6.21419L13.8167 5.82189L14.1951 5.42958L14.6039 4.87146L14.2558 5.09794L13.8935 5.36892L13.5618 5.67022L13.0781 6.0787C13.0781 6.0787 12.7301 6.2607 12.5803 6.45686C12.5581 6.48517 12.5317 6.50943 12.5033 6.5337C12.3657 6.37799 12.1675 6.15757 11.9773 5.95535C12.0502 5.87446 12.2424 5.65809 12.3395 5.53676C12.4609 5.38509 12.4913 5.23545 12.5803 5.08379C12.6714 4.93212 12.8069 4.66115 12.8069 4.66115L12.9891 4.42051L13.4869 3.7269L13.3351 3.86238L12.9729 4.08887C12.9729 4.08887 12.8069 4.27087 12.6248 4.40635C12.4427 4.54184 12.4589 4.70766 12.2768 4.87348C12.0947 5.0393 11.7486 5.28196 11.7486 5.28196L11.4937 5.46194C11.2852 5.24354 11.1496 5.09187 10.8967 4.87146C10.7753 4.7663 10.6013 4.6389 10.4272 4.51757C10.1095 4.29918 9.78985 4.10505 9.78985 4.10505L10.1884 4.67126L10.577 5.28803L10.9312 5.78144C10.9312 5.78144 10.8967 6.06051 10.6842 6.1879C10.4718 6.3153 9.83638 7.10598 9.83638 7.10598L9.23535 7.72275C9.23535 7.72275 8.55542 8.69947 8.25796 8.99875C7.9605 9.29601 7.2786 9.76516 7.2786 9.76516C7.2786 9.76516 7.57609 9.25557 7.66107 9.12615C7.74606 8.99875 8.25796 7.97754 8.25796 7.97754L7.66107 8.57409C7.66107 8.57409 7.23611 9.08571 6.97912 9.38297C6.72213 9.68023 6.51167 9.97951 6.46918 10.2343C6.42669 10.4891 5.65976 11.4254 5.65976 11.4254C5.65976 11.4254 6.21425 11.0432 6.25675 10.9138C6.29924 10.7864 6.85363 10.5316 6.85363 10.5316L6.68369 10.9562C6.68369 10.9562 6.34372 11.3384 6.21624 11.5528C6.08875 11.7651 5.53428 12.2767 5.53428 12.2767L5.06683 12.4466C5.06683 12.4466 4.5569 12.5315 4.25741 12.574C3.95995 12.6165 3.74546 12.4891 3.40551 12.4891C3.06555 12.4891 2.46863 12.574 2.46863 12.574L1.53176 12.6165L-3.04139e-05 12.7014C-3.04139e-05 12.7014 0.467341 12.7863 0.639342 12.7863C0.811343 12.7863 1.06431 12.8288 1.3213 12.9137C1.57627 12.9986 1.70377 12.9986 2.00326 12.9986C2.30274 12.9986 2.98262 13.0411 2.98262 13.0411L4.17451 13.2534L4.68445 13.7651L4.47192 14.0623L4.13203 14.4445C4.13203 14.4445 3.83456 14.9561 3.66458 15.2959C3.4946 15.6356 2.85516 16.4445 2.85516 16.4445L3.23764 16.1472L3.70499 15.765C3.70499 15.765 4.045 15.4253 4.217 15.1685C4.38698 14.9137 4.42949 14.9986 4.64196 14.7013C4.85444 14.4041 5.19636 14.3191 5.19636 14.3191L5.70838 14.6589C5.70838 14.6589 6.21823 15.126 6.39023 15.3403C6.56021 15.5527 7.07219 15.9794 7.07219 15.9794L7.75415 16.5759C7.75415 16.5759 8.05165 16.8307 8.35113 17.0855C8.64859 17.3403 8.73351 17.4252 9.03299 17.767C9.33045 18.1067 9.62994 18.4909 9.84241 18.7033C10.0549 18.9156 10.7368 19.9368 10.7368 19.9368L10.5244 20.7032L10.9068 20.4059L11.4168 20.1511L11.5018 20.5333L11.2042 20.958L10.9068 21.3827L10.0974 22.4463L10.5224 22.234L10.5102 22.232Z" fill="#C33D3D"/>
</svg>
