<svg width="22" height="18" viewBox="0 0 22 18" fill="none" xmlns="http://www.w3.org/2000/svg">
<path d="M21.2308 2.13092C20.4413 2.49231 19.6 2.73185 18.7229 2.84815C19.6252 2.286 20.3139 1.40262 20.6376 0.337846C19.7964 0.861231 18.8675 1.23092 17.8776 1.43723C17.0788 0.549693 15.9403 0 14.6983 0C12.2886 0 10.3487 2.04092 10.3487 4.54292C10.3487 4.90292 10.3779 5.24908 10.4495 5.57862C6.831 5.39446 3.62913 3.58477 1.47819 0.828C1.10267 1.50785 0.882404 2.286 0.882404 3.12369C0.882404 4.69662 1.65865 6.09092 2.81573 6.89815C2.11644 6.88431 1.43042 6.67246 0.849231 6.33877C0.849231 6.35262 0.849231 6.37062 0.849231 6.38862C0.849231 8.59569 2.35794 10.4289 4.33638 10.8512C3.9821 10.9523 3.59596 11.0008 3.19523 11.0008C2.91658 11.0008 2.63527 10.9842 2.37121 10.9232C2.93515 12.7218 4.53542 14.0442 6.43823 14.0871C4.95739 15.2958 3.07713 16.0242 1.04163 16.0242C0.684692 16.0242 0.342346 16.0075 0 15.9618C1.92802 17.2592 4.21298 18 6.67708 18C14.6864 18 19.0652 11.0769 19.0652 5.076C19.0652 4.87523 19.0586 4.68138 19.0493 4.48892C19.9131 3.84923 20.639 3.05031 21.2308 2.13092Z" fill="#D3D3D3"/>
</svg>
