<svg width="56" height="56" viewBox="0 0 56 56" fill="none" xmlns="http://www.w3.org/2000/svg">
<circle cx="28" cy="28" r="27" fill="#281952" stroke="#1A0F38"/>
<path d="M19.3594 19.8144C19.7901 19.7642 20.213 19.957 20.4577 20.3149C22.179 22.8335 24.2464 23.8813 26.5404 24.1197C26.653 23.1383 26.9178 22.1686 27.4156 21.3149C28.1458 20.0623 29.3335 19.1401 31.0301 18.7993C33.3744 18.3285 35.1594 19.1775 36.1951 20.2172L38.2856 19.8264C38.7322 19.743 39.1865 19.9262 39.4501 20.2962C39.7137 20.6661 39.7387 21.1554 39.514 21.5502L37.5079 25.076C37.6908 30.1643 36.2768 33.7152 33.262 36.1617C31.6628 37.4594 29.3743 38.1955 26.8624 38.4227C24.3308 38.6518 21.4692 38.3748 18.6245 37.5441C18.1254 37.3984 17.783 36.94 17.7848 36.4202C17.7866 35.9002 18.1323 35.4442 18.6324 35.302C20.063 34.8952 21.1518 34.5435 22.1361 33.9292C20.7379 33.1869 19.7076 32.2164 18.9785 31.1101C17.965 29.5723 17.5892 27.858 17.5146 26.3118C17.44 24.7658 17.6634 23.3339 17.8987 22.3004C18.0327 21.7121 18.1891 21.1211 18.4048 20.5564C18.5614 20.1495 18.9287 19.8646 19.3594 19.8144Z" fill="#D4D0DF"/>
</svg>
