<svg width="55" height="58" viewBox="0 0 55 58" fill="none" xmlns="http://www.w3.org/2000/svg">
<path d="M2.8525 0.0794373C2.95564 1.31177 2.64624 3.36567 2.8525 5.21519C3.05877 7.06471 3.15989 8.70783 3.36615 10.1445C3.57241 11.5833 3.67344 12.3016 4.18707 14.3555C4.70071 16.4094 4.18713 15.2803 4.8039 17.231C5.42067 19.1817 7.06268 23.3927 7.67743 24.5218C8.2942 25.6509 9.01205 26.3713 9.42256 27.5005C9.83306 28.6296 10.1405 28.6296 10.7572 29.6576C11.374 30.6855 11.2709 30.3759 12.3993 31.8147C13.5276 33.2534 13.1171 32.7394 14.3486 34.2793C15.5801 35.8193 17.119 38.2839 18.2494 39.5163C19.3778 40.7486 19.7883 41.3658 20.9187 42.2885C22.0471 43.2133 22.9712 44.138 22.9712 44.138C22.9712 44.138 26.9731 47.2199 28.1035 47.9383C29.2319 48.6566 29.1309 48.9662 30.4635 49.4782C31.7982 49.9922 33.1328 50.5061 33.1328 50.5061C33.1328 50.5061 37.7514 53.074 39.1872 53.4848C40.625 53.8956 40.5218 53.9988 42.5744 54.3063C44.6269 54.6139 44.73 54.8203 46.4752 55.1279C48.2203 55.4355 49.2456 55.9495 50.4771 56.0527C51.7086 56.1559 52.2223 56.5666 53.1464 56.5666C54.0706 56.5666 54.5842 56.8742 54.5842 56.8742C54.5842 56.8742 51.6076 57.1818 50.4792 57.0806C49.3508 56.9794 47.8099 56.9774 45.9636 56.6698C44.1153 56.3623 43.9373 56.4938 42.3721 55.8483C40.627 55.1299 40.0122 55.3343 38.6776 54.8203C37.3429 54.3063 36.522 53.7924 34.2652 52.8696C32.0064 51.9449 31.1854 51.6373 29.6466 50.7125C28.1077 49.7878 28.3119 50.1986 26.8761 49.1726C25.4383 48.1447 24.31 47.4263 22.4637 45.8864C20.6154 44.3465 21.2322 44.3465 19.3839 42.7033C17.5356 41.0602 17.845 41.8818 16.4072 40.2387C14.9694 38.5956 13.7379 36.746 12.199 34.8985C10.6601 33.049 10.3508 32.1263 9.22241 30.5843C8.09403 29.0444 7.37413 26.7841 6.04151 24.4227C4.70686 22.0612 4.70683 21.7516 3.88582 19.6977C3.06481 17.6438 2.85852 16.9254 2.55115 15.0759C2.24378 13.2264 1.93442 11.9941 1.83331 10.3509C1.73018 8.70782 1.83331 8.19385 1.83331 6.65393C1.83331 5.11401 1.93645 3.16129 2.03958 2.85372C2.14271 2.54614 2.8606 0.0814612 2.8606 0.0814612L2.8525 0.0794373Z" fill="#C33D3D"/>
<path d="M22.6597 13.534C22.6597 13.534 23.0703 15.1771 23.3776 16.4094C23.685 17.6418 24.6091 19.2849 25.4301 20.5172C26.2511 21.7496 26.148 22.2635 27.4826 23.4959C28.8173 24.7282 28.8173 25.5498 30.3562 26.5777C31.8951 27.6057 32.3056 28.2208 33.3329 28.9392C34.3602 29.6576 34.6675 29.7608 35.7958 30.3779C36.9242 30.9951 38.2589 31.3027 38.8756 31.6103C39.4924 31.9179 40.4146 32.1243 40.4146 32.1243C40.4146 32.1243 38.4652 32.1243 37.6442 31.9179C36.8231 31.7115 35.4885 31.5071 33.9496 30.7887C32.4107 30.0704 30.3582 28.838 29.331 27.9133C28.3037 26.9885 27.8931 26.7841 26.8679 25.4486C25.8426 24.113 24.9185 22.8807 24.3017 21.6484C23.685 20.416 23.1734 18.6697 22.864 17.6438C22.5566 16.6158 22.3503 15.4867 22.3503 15.4867L22.6577 13.536L22.6597 13.534Z" fill="#C33D3D"/>
<path d="M24.7144 54.3043C24.7144 54.3043 25.1248 52.1472 25.3311 51.3256C25.5373 50.5041 26.4595 49.1686 26.87 48.1426C27.2805 47.1147 27.0763 46.6027 28.1015 45.4715C29.1268 44.3404 29.2299 43.4176 29.7436 42.8005C30.2572 42.1833 30.872 41.3617 30.872 41.3617C30.872 41.3617 30.0509 43.622 29.7436 44.3404C29.4362 45.0587 29.2299 45.6759 28.8194 46.8051C28.4089 47.9342 27.9984 49.2697 27.5879 50.2977C27.1774 51.3257 26.7669 51.9408 26.5606 52.3516C26.3543 52.7624 24.7123 54.3023 24.7123 54.3023L24.7144 54.3043Z" fill="#C33D3D"/>
<path d="M15.5801 17.5386C15.5801 17.5386 13.9381 17.8461 13.2202 17.8461C12.5023 17.8461 10.7572 18.3601 9.83305 18.4633C8.90891 18.5665 7.06261 19.1817 7.06261 19.1817C7.06261 19.1817 5.72793 19.2849 4.90692 19.5925C4.08591 19.9 3.26496 19.7989 2.44395 20.3108C1.62294 20.8248 0.185181 21.44 0.185181 21.44L2.34077 21.5432C2.34077 21.5432 4.39334 21.2356 5.62486 21.0292C6.85637 20.8228 7.88364 20.6184 8.80576 20.1044C9.72788 19.5904 11.5761 19.0765 11.5761 19.0765L14.0392 18.4593L15.578 17.5345L15.5801 17.5386Z" fill="#C33D3D"/>
<path d="M38.9789 16.8202C38.9789 16.8202 36.619 18.8741 35.798 19.4913C34.977 20.1085 32.5139 22.3668 32.5139 22.3668L28.512 25.5498C28.512 25.5498 25.7416 27.9113 24.0996 29.35C22.4576 30.7887 20.8155 32.533 20.8155 32.533C20.8155 32.533 18.6599 33.9718 16.7105 35.5117C14.7611 37.0516 14.0412 37.772 13.016 38.4903C11.9887 39.2087 11.7845 39.8259 10.9635 40.441C10.1425 41.0562 7.88367 42.5981 7.88367 42.5981H10.5529C10.5529 42.5981 13.016 42.5981 13.7339 42.7013C14.4518 42.8045 14.658 43.0089 15.479 42.9077C16.3 42.8066 17.1211 43.0109 17.1211 43.0109C17.1211 43.0109 14.658 43.7293 13.7339 43.6281C12.8098 43.5249 10.5529 44.0389 9.32142 44.2453C8.0899 44.4517 6.65212 44.2453 5.93425 44.3485C5.21637 44.4517 4.39539 44.5549 4.39539 44.5549C4.39539 44.5549 4.53284 43.8811 4.64609 42.8227C4.71484 42.1793 4.86251 40.8478 4.90093 40.4592C5.00407 39.4313 5.31747 37.3673 5.4206 36.7501C5.52373 36.1329 5.72798 35.0038 5.93425 34.3886C6.14051 33.7714 6.34481 32.9499 6.34481 32.9499C6.34481 32.9499 6.55107 35.0038 6.55107 35.9285C6.55107 36.8533 6.59551 37.7072 6.59551 38.4256C6.59551 39.1439 6.65416 40.8579 6.65416 40.8579C6.65416 40.8579 8.80981 39.318 9.73395 38.804C10.6581 38.29 11.7865 36.8533 13.018 35.9285C14.2496 35.0038 17.9441 32.2315 18.7651 31.7175C19.5861 31.2036 20.8176 29.868 21.7417 28.9453C22.6658 28.0226 24.0005 26.7882 25.2321 26.0698C26.4636 25.3515 27.1814 24.9407 28.3119 23.9127C29.4402 22.8848 31.2885 21.7556 31.699 21.4481C32.1095 21.1405 33.7515 19.8049 33.7515 19.8049L36.7282 18.1618L38.987 16.8263L38.9789 16.8202Z" fill="#C33D3D"/>
<path d="M36.8859 7.91258L37.5512 8.44679C37.5512 8.44679 38.0183 8.7139 38.1498 8.84745C38.2832 8.98101 38.6169 9.24811 38.6169 9.24811C38.6169 9.24811 39.3165 8.68152 39.4824 8.38204C39.6482 8.08255 40.449 7.48156 40.6148 7.28123C40.7806 7.0809 41.0476 6.84819 41.3812 6.44753C41.7149 6.04687 42.0465 5.61383 42.0465 5.61383C42.0465 5.61383 42.3134 5.27995 42.6795 4.91369C43.0455 4.54742 43.8787 3.81288 44.1779 3.44662L43.5794 2.71409L43.1122 2.21428L42.813 1.54853L43.2457 1.88242L43.7795 2.31546C43.7795 2.31546 44.0122 2.51579 44.1133 2.61494C44.2144 2.71409 44.279 2.74849 44.4792 2.91442C44.5095 2.93871 44.5459 2.96906 44.5844 2.99739C44.7118 2.87598 44.8513 2.76064 45.0455 2.61494C45.1688 2.52186 45.2476 2.46317 45.3083 2.41866L45.0455 2.01395L44.8129 1.64769L44.4469 1.14787L44.2467 0.548902L44.7805 1.04872C44.7805 1.04872 44.9807 1.28143 45.1142 1.41498C45.2477 1.54853 45.3468 1.64769 45.4802 1.78124C45.5429 1.84397 45.6542 1.95527 45.7573 2.05847C45.8503 1.97348 45.9171 1.90265 46.0809 1.71446C46.3134 1.44736 46.2466 1.38058 46.5135 1.18025C46.7805 0.979917 47.1466 0.813987 47.1466 0.813987L47.4458 0.480103C47.4458 0.480103 47.3467 0.846364 47.2132 1.07907C47.0797 1.31178 46.8473 1.61329 46.8473 1.61329L46.647 1.94717L46.4468 2.38021L46.3134 2.61292C46.3134 2.61292 46.7138 3.04596 46.9119 3.27866C47.1121 3.51137 47.5772 3.97881 47.8118 4.27829C48.0443 4.57778 48.4448 5.11199 48.4448 5.11199L49.011 5.74536C49.011 5.74536 49.5772 6.61144 49.743 6.77939C49.9088 6.94734 50.01 7.0465 50.1758 7.21243C50.3416 7.37836 50.5762 7.47954 50.5762 7.47954L50.2769 6.91295L49.9432 6.51228L49.5428 5.94569L49.2435 5.47825L50.2769 6.34433L50.7439 7.01007L51.2111 7.50989L51.4235 7.8721L51.4457 7.90853L51.6782 8.34157L50.8451 7.84175L51.0109 8.27479C51.0109 8.27479 51.6763 9.3412 51.8441 9.47475C52.0099 9.6083 52.21 9.80863 52.21 9.80863L52.8087 9.3412L53.1746 9.17527L53.4739 8.87578C53.4739 8.87578 53.1746 9.47475 53.0735 9.6083C52.9744 9.74186 52.7742 10.0757 52.7742 10.0757L52.6752 10.4096C52.6752 10.4096 52.8086 10.7759 52.9077 10.9438C53.0068 11.1098 53.3081 11.7108 53.3081 11.7108L53.7753 12.4109L54.1413 12.8784C54.1413 12.8784 53.7085 12.678 53.5427 12.4453C53.3769 12.2126 52.8107 11.7128 52.8107 11.7128L52.3435 11.1786L51.745 10.7455C51.745 10.7455 51.5448 11.1118 51.112 11.4781C50.6793 11.8443 50.5458 12.077 50.3456 12.2774C50.1454 12.4777 49.8461 12.7104 49.8461 12.7104L48.647 13.9771L47.7471 15.0112L47.1485 15.511L46.649 15.944L46.2831 16.4438L46.649 16.978L46.1152 16.7453L45.7492 17.146C45.7492 17.146 45.8826 17.4131 45.9493 17.5123C46.0161 17.6114 46.182 17.9129 46.182 17.9129L46.3477 18.5119C46.3477 18.5119 46.0141 18.2124 45.7816 17.9777C45.549 17.745 45.8482 17.9453 45.5489 17.745C45.4195 17.658 45.2638 17.5345 45.1304 17.4212L44.7502 17.8785L44.0849 18.4451L44.1517 18.1456C44.1517 18.1456 44.4186 17.7126 44.4853 17.6114C44.552 17.5102 44.3862 17.3119 44.3862 17.3119L43.8868 17.7126L43.1203 18.4795C43.1203 18.4795 43.2538 18.2124 43.3529 18.1133C43.452 18.0141 43.4519 17.8805 43.5854 17.6458C43.7189 17.4111 43.6177 17.3463 43.919 17.0792C44.0242 16.9861 44.1395 16.8283 44.2487 16.6624C44.2063 16.6239 44.1638 16.5855 44.1193 16.547C43.7533 16.2131 43.9191 16.4479 43.5854 16.0128C43.2517 15.5798 43.0516 15.3471 43.0516 15.3471C43.0516 15.3471 42.7522 14.8129 42.0526 14.1795C41.3529 13.5461 41.0193 13.0787 41.0193 13.0787L40.2872 12.2794C40.2872 12.2794 40.1881 11.7128 39.8868 11.5792C39.5855 11.4457 39.088 11.5469 38.72 10.8791C38.352 10.2113 38.0871 9.77828 38.0871 9.77828C38.0871 9.77828 37.8869 9.61235 37.5876 9.24407C37.2884 8.8778 36.8556 8.37799 36.8556 8.37799L36.4552 7.64547L36.888 7.91258H36.8859Z" fill="#C33D3D"/>
<path d="M44.1415 22.6581C44.5682 22.7654 44.3539 22.3384 44.8351 22.4457C45.3144 22.5529 45.6884 22.6055 45.6884 22.6055C45.6884 22.6055 45.8482 22.4983 46.2223 22.818C46.5964 23.1377 46.2224 22.7107 46.5965 23.1377C46.9706 23.5647 46.8088 23.4048 47.0231 23.8318C47.2354 24.2587 47.3973 22.7654 47.2355 24.2587C47.0737 25.7521 46.9159 25.6995 46.8088 25.9646C46.7016 26.2297 46.3821 26.604 46.3821 26.604L45.7957 26.9238L45.2093 27.2435L44.73 27.1909C44.73 27.1909 44.2507 27.2435 43.9838 27.1909C43.7169 27.1383 43.8766 27.3507 43.3974 26.9238C42.9181 26.4968 42.6512 25.8027 42.6512 25.8027C42.6512 25.8027 42.3317 25.3231 42.7037 25.056C43.0758 24.7889 42.7563 24.4166 42.7563 24.4166L42.6491 23.8298L43.183 23.0831L43.5571 22.4962L44.1436 22.6561L44.1415 22.6581Z" fill="#C33D3D"/>
<path d="M43.6077 31.6204C43.9819 31.2461 44.6208 31.1934 44.7279 31.5132C44.8351 31.8329 44.8351 31.9927 45.1021 31.9401C45.369 31.8875 45.7411 32.3671 45.7411 32.3671L46.2204 32.7415L46.2729 33.4355V34.3421L45.739 35.0888L45.1526 35.5683L44.4065 35.6756C44.4065 35.6756 44.1941 35.3012 43.7674 35.3559C43.3407 35.4085 42.8615 35.1434 42.8615 35.1434C42.8615 35.1434 42.4348 34.9835 42.4348 34.504C42.4348 34.0244 42.4348 33.1704 42.4348 33.1704C42.4348 33.1704 42.4874 32.3165 42.7543 32.1567C43.0213 31.9968 43.6077 31.6224 43.6077 31.6224V31.6204Z" fill="#C33D3D"/>
<path d="M32.0163 6.17636C31.5512 5.94365 30.714 6.26944 30.714 6.26944L30.0163 6.50215L29.4118 6.96756C29.4118 6.96756 29.2722 7.3399 29.2257 7.61915C29.1792 7.89839 29.2723 8.50343 29.1327 8.59652C28.9932 8.6896 29.2257 9.15502 29.2257 9.48081C29.2257 9.8066 29.4117 9.52735 29.7373 9.66697C30.0629 9.8066 30.0164 9.94622 29.9233 10.1789C29.8303 10.4116 29.7374 10.5513 30.0629 10.6909C30.3885 10.8305 30.528 10.877 30.7605 10.9236C30.9931 10.9701 30.8071 10.5978 31.3187 10.877C31.8303 11.1563 32.1093 10.9701 32.1093 10.9701L32.528 10.6909L33.1326 10.3186C33.1326 10.3186 33.3652 10.5978 33.5512 10.1324C33.7373 9.66697 33.9233 9.38772 33.9233 9.10847C33.9233 8.82922 34.1558 8.6896 34.1093 8.27073C34.0628 7.85185 33.9698 7.71223 33.8303 7.43298C33.6907 7.15373 33.6907 7.06065 33.4581 6.87448C33.2256 6.68832 33.5047 6.59523 33.0861 6.45561C32.6675 6.31598 32.0163 6.17636 32.0163 6.17636Z" fill="#C33D3D"/>
<path d="M23.4645 6.40705C23.0925 6.26742 22.4878 6.45359 22.1623 6.54667C21.8367 6.63976 21.6972 6.59321 21.4647 6.919C21.2321 7.24479 21.046 7.05863 20.953 7.4775C20.86 7.89638 20.86 7.89638 20.86 8.22217C20.86 8.54796 20.86 8.68758 20.9065 9.05991C20.953 9.43224 21.139 9.66495 21.139 9.66495L21.8832 10.1769C21.8832 10.1769 22.3484 10.5492 22.6739 10.5027C22.9995 10.4562 23.0925 10.4096 23.418 10.3165C23.7436 10.2235 23.7901 10.4562 24.2553 10.0373C24.7204 9.61841 24.9529 9.61841 24.9529 9.01337C24.9529 8.40833 24.9994 8.31525 24.8133 7.84983C24.6273 7.38442 24.6738 7.19825 24.3948 7.05863C24.1157 6.919 24.1623 6.77938 23.9762 6.63976C23.7902 6.50013 23.4645 6.40705 23.4645 6.40705Z" fill="#C33D3D"/>
</svg>
