<svg width="528" height="167" viewBox="0 0 528 167" fill="none" xmlns="http://www.w3.org/2000/svg">
<g clip-path="url(#clip0_2_209)">
<path d="M149.66 55.32C150.93 55.59 152 55.52 153.01 55.72C154.02 55.92 156.69 56.39 156.69 56.39C156.69 56.39 159.64 55.99 161.24 56.19C162.84 56.39 166.87 56.39 168.14 56.39C169.41 56.39 172.83 56.52 175.11 56.46C177.39 56.4 180.33 56.66 182.21 56.59C184.09 56.52 187.64 56.39 188.98 56.39C190.32 56.39 193.67 56.06 196.01 56.19C198.35 56.32 200.43 56.46 202.78 56.46C205.13 56.46 209.55 56.26 210.62 56.26C211.69 56.26 220.53 56.13 223.15 56.19C225.77 56.25 229.78 56.12 229.78 56.12C230.78 56.05 234.87 56.19 234.87 56.19C234.87 56.19 240.23 56.39 242.77 56.39C245.31 56.39 243.91 56.26 248.53 56.19C253.15 56.12 256.7 56.19 258.24 56.26C259.78 56.33 265.94 56.06 269.49 56.13C273.04 56.2 274.85 56.26 277.53 56.26C280.21 56.26 283.42 56.46 287.18 56.33C290.94 56.2 295.55 56.13 296.69 56.13C297.83 56.13 301.85 56.33 306.67 56.26C311.49 56.19 316.45 56.13 316.99 56.19C317.53 56.25 326.57 56.12 329.18 56.19C331.79 56.26 332.46 56.39 336.68 56.26C340.9 56.13 345.86 56.26 346.53 56.26C347.2 56.26 350.82 55.93 354.17 56.06C357.52 56.19 358.32 56.53 360.53 56.53C362.74 56.53 365.22 56.53 366.76 56.66C368.3 56.79 370.38 56.73 372.79 56.73C375.2 56.73 376.47 56.6 377.55 56.53C378.63 56.46 380.56 56.4 380.56 56.4C380.56 56.4 378.55 55.8 377.01 55.8C375.47 55.8 374.13 55.73 372.79 55.53C371.45 55.33 369.98 54.93 369.98 54.93C369.98 54.93 365.89 54.19 364.15 54.26C362.41 54.33 356.65 54.19 355.17 54.19C353.69 54.19 347.8 54.12 343.92 54.12C340.04 54.12 336.49 53.99 334.68 53.99C332.87 53.99 325.91 53.79 324.63 53.79C323.35 53.79 313.78 53.66 310.56 53.79C307.34 53.92 298.7 53.79 297.77 53.79C296.84 53.79 286.79 53.59 283.5 53.66C280.21 53.73 272.72 53.66 270.71 53.73C268.7 53.8 263.54 53.66 259.79 53.73C256.04 53.8 251.22 53.6 249.61 53.66C248 53.72 238.16 53.59 235.88 53.66C233.6 53.73 226.17 53.79 225.56 53.79C224.95 53.79 216.25 53.52 213.24 53.66C210.23 53.8 202.59 53.73 201.59 53.73C200.59 53.73 199.25 53.86 194.09 53.93C188.93 54 183.44 53.73 180.83 53.86C178.22 53.99 173.13 53.93 171.32 53.93C169.51 53.93 165.36 54 163.89 53.93C162.42 53.86 159.74 53.73 158.6 53.73C157.46 53.73 156.05 53.66 155.18 53.73C154.31 53.8 152.03 54.06 151.36 54.06C150.69 54.06 149.22 54.33 148.81 54.46C148.4 54.59 147 54.79 147 54.79L149.68 55.33L149.66 55.32Z" fill="#C43D3D"/>
<path d="M159.3 54.92C159.37 54.72 159.43 53.25 159.43 52.44C159.43 51.63 159.3 50.03 159.3 49.63C159.3 49.23 158.5 48.83 158.5 48.22C158.5 47.61 158.3 47.28 158.3 46.95C158.3 46.62 157.56 45.54 157.56 45.54C157.56 45.54 157.02 47.01 156.96 47.68C156.9 48.35 156.83 50.83 156.96 51.56C157.09 52.29 156.83 54.84 156.89 55.04C156.95 55.24 156.96 60 157.02 60.87C157.08 61.74 157.15 64.22 157.15 64.22C157.15 64.22 157.89 64.76 157.89 65.22C157.89 65.68 158.29 66.02 158.36 66.49C158.43 66.96 158.63 67.63 158.63 67.63C158.63 67.63 158.9 66.02 159.1 65.42C159.3 64.82 159.17 62.61 159.23 62.41C159.29 62.21 159.03 59.8 159.23 59.13C159.43 58.46 159.3 54.91 159.3 54.91V54.92Z" fill="#C43D3D"/>
<path d="M365.61 65.45C365.61 65.45 365.84 64.79 366.03 64.23C366.22 63.67 366.45 62.21 366.64 61.37C366.83 60.53 366.64 59.4 366.59 59.03C366.54 58.66 366.64 56.12 366.64 55.7C366.64 55.28 366.45 53.87 366.64 52.93C366.83 51.99 366.69 50.63 366.59 50.31C366.49 49.99 366.07 50.03 366.07 49.42C366.07 48.81 365.55 48.25 365.55 48.25C365.55 48.25 364.94 50.03 364.89 50.22C364.84 50.41 364.42 52.19 364.37 52.56C364.32 52.93 364.09 55.42 364.28 55.98C364.47 56.54 364.33 59.4 364.42 59.92C364.51 60.44 364.61 62.36 364.56 62.59C364.51 62.82 364.89 62.82 364.98 63.11C365.07 63.4 365.35 64.14 365.35 64.14L365.58 65.45H365.61Z" fill="#C43D3D"/>
<path d="M260.69 66.6C260.69 66.6 260.6 68.86 260.69 69.49C260.78 70.12 260.42 71.11 260.78 71.48C261.14 71.85 261.14 72.83 261.14 73.38C261.14 73.93 261.23 74.73 261.32 75.37C261.41 76.01 261.5 76.18 261.68 76.54C261.86 76.9 262.4 78.34 262.4 78.34C262.4 78.34 262.49 76.08 262.76 75.72C263.03 75.36 263.03 74.19 263.21 73.64C263.39 73.09 263.3 67.14 263.39 66.51C263.48 65.88 262.94 61.1 262.94 61.1C262.94 61.1 262.49 56.41 262.76 54.96C263.03 53.51 262.22 51.17 262.4 49.64C262.58 48.11 262.22 47.56 262.22 47.02C262.22 46.48 262.4 44.94 262.4 43.59C262.4 42.24 262.4 39.17 262.49 36.91C262.58 34.65 262.31 33.12 262.58 30.59C262.85 28.06 262.76 24.81 263.03 23.82C263.3 22.83 263.12 20.39 262.94 19.4C262.76 18.41 262.58 13.99 262.58 13.17C262.58 12.35 261.95 10.28 261.95 9.29001C261.95 8.30001 261.86 8.30001 262.04 7.39001C262.22 6.49001 261.68 6.49001 261.77 5.77001C261.86 5.05001 261.77 3.97001 261.68 3.06001C261.59 2.15001 261.41 1.71001 261.41 1.07001C261.41 0.430006 261.23 -0.00999451 261.23 -0.00999451C261.23 -0.00999451 260.69 3.51001 260.69 3.96001C260.69 4.41001 260.6 11.72 260.78 12.62C260.96 13.52 260.15 18.49 260.15 19.3C260.15 20.11 259.79 28.14 259.97 28.87C260.15 29.6 260.06 35.82 260.06 36.18C260.06 36.54 259.79 40.24 259.79 41.96C259.79 43.68 259.61 48.01 259.7 48.82C259.79 49.63 260.24 54.51 260.24 54.78C260.24 55.05 259.97 59.74 260.15 60.74C260.33 61.73 260.69 64.35 260.69 64.35V66.61V66.6Z" fill="#C43D3D"/>
<path d="M262.04 67.23C262.04 67.23 264.84 66.06 265.92 65.61C267 65.16 268.99 63.53 271.15 62.99C273.31 62.45 273.59 61.73 275.12 61.37C276.65 61.01 276.56 60.56 277.38 60.02C278.2 59.48 282.61 57.49 284.15 56.68C285.68 55.87 286.14 55.33 289.11 54.24C292.09 53.16 293.08 51.98 294.89 51.08C296.69 50.18 299.31 48.01 302.47 47.02C305.63 46.03 305.9 45.76 306.89 45.4C307.88 45.04 308.06 44.5 309.42 43.69C310.78 42.88 313.12 41.61 314.02 40.98C314.92 40.35 315.37 39.81 317 39.18C318.63 38.55 319.26 38.1 320.52 37.47C321.78 36.84 321.24 37.11 322.6 36.39C323.96 35.67 324.86 35.13 325.4 34.68C325.94 34.23 325.94 34.14 326.75 33.69C327.56 33.24 329.1 31.98 329.1 31.98C329.1 31.98 326.03 33.24 325.49 33.6C324.95 33.96 321.34 35.59 319.35 36.31C317.36 37.03 313.39 38.75 312.13 39.29C310.87 39.83 307.62 41.82 305.27 42.9C302.92 43.98 299.86 45.43 298.32 46.15C296.78 46.87 291.64 50.21 290.29 50.75C288.94 51.29 284.97 52.65 284.24 53.1C283.51 53.55 278.37 56.71 277.2 57.43C276.03 58.15 274.22 58.87 272.96 59.14C271.7 59.41 269.62 60.4 269.08 60.67C268.54 60.94 266.46 61.66 265.65 62.11C264.84 62.56 264.48 62.56 264.12 62.74L261.59 64C261.59 64 256.72 62.83 256.27 62.47C255.82 62.11 252.75 61.03 252.12 60.67C251.49 60.31 247.16 58.23 246.07 57.87C244.98 57.51 240.2 55.7 240.2 55.7C240.2 55.7 235.6 54.26 235.15 53.99C234.7 53.72 231.81 52.73 231.45 52.55C231.09 52.37 229.1 51.11 228.11 50.84C227.12 50.57 223.15 49.31 221.97 48.85C220.79 48.39 219.17 47.5 217.37 47.14C215.57 46.78 213.31 45.43 211.87 44.88C210.43 44.33 208.8 43.53 207.63 43.08C206.46 42.63 204.29 42.09 203.48 41.73C202.67 41.37 200.23 40.02 199.24 39.74C198.25 39.46 195.54 38.84 195.54 38.84C195.54 38.84 193.1 37.76 191.66 37.13C190.22 36.5 187.78 35.69 186.97 35.23C186.16 34.77 184.53 34.33 183.9 34.15C183.27 33.97 182.28 33.43 181.91 33.16C181.54 32.89 179.74 32.53 179.47 32.44C179.2 32.35 180.73 33.43 181 33.61C181.27 33.79 181.81 34.42 183.8 35.05C185.79 35.68 189.58 38.03 189.58 38.03L195.27 40.29C195.27 40.29 197.59 41.45 198.7 41.82C200.05 42.27 200.78 42.9 202.13 43.53C203.48 44.16 206.64 45.33 207.27 45.61C207.27 45.61 208.98 46.24 210.16 46.87C211.34 47.5 213.95 48.4 215.03 48.86C216.11 49.32 220.26 51.03 221.08 51.21C221.9 51.39 224.33 52.56 226.31 53.2C228.29 53.84 232.36 55.1 233.17 55.46C233.98 55.82 240.3 58.35 240.3 58.35L244.18 60.15C244.18 60.15 247.88 62.05 250.14 62.77C252.4 63.49 254.65 64.85 256.1 65.3C257.55 65.75 259.08 66.38 259.53 66.65C259.98 66.92 261.43 67.46 261.43 67.46L262.06 67.28L262.04 67.23Z" fill="#C43D3D"/>
<path d="M274.59 45.93C275.67 45.57 276.49 44.85 276.85 44.4C277.21 43.95 277.93 43.41 278.47 42.78C279.01 42.15 280.09 41.16 280.46 40.98C280.83 40.8 282.08 40.08 282.9 39.08C283.72 38.08 283.71 37.64 284.61 36.73C285.51 35.82 286.32 34.83 287.05 34.02C287.78 33.21 287.23 32.85 287.95 31.94C288.67 31.04 288.31 30.77 288.85 30.23C289.39 29.69 289.93 28.7 289.93 28.7C289.93 28.7 287.13 30.23 286.86 30.78C286.59 31.33 284.24 32.95 283.61 33.67C282.98 34.39 281.35 37.01 280.63 37.73C279.91 38.45 278.55 39.99 278.19 40.62C277.83 41.25 275.75 43.33 275.75 43.33L275.12 44.68L274.58 45.94L274.59 45.93Z" fill="#C43D3D"/>
<path d="M245.8 47.02C245.8 47.02 245.08 45.31 244.81 45.03C244.54 44.75 243.19 43.77 242.82 42.5C242.46 41.24 240.47 39.7 239.93 38.98C239.39 38.26 237.4 36.72 237.31 36C237.22 35.28 234.24 32.93 233.97 32.21C233.7 31.49 231.17 30.13 230.99 29.59C230.81 29.05 229.46 27.79 229.09 27.42C228.72 27.05 227.47 26.61 227.1 26.25C226.73 25.89 226.29 25.53 225.75 25.35C225.21 25.17 223.95 24.45 223.95 24.45C223.95 24.45 224.85 26.53 225.3 26.98C225.75 27.43 226.56 29.06 227.01 29.6C227.46 30.14 229.18 31.68 230.26 32.58C231.34 33.48 232.43 35.02 233.42 35.92C234.41 36.82 236.31 38.81 236.85 39.62C237.39 40.43 238.29 41.15 238.56 41.42C238.83 41.69 239.73 41.6 240.18 42.14C240.63 42.68 242.08 44.49 242.35 44.85C242.62 45.21 243.79 45.84 243.79 45.84L245.78 47.01L245.8 47.02Z" fill="#C43D3D"/>
<path d="M306.8 73.1C306.62 72.47 306.17 69.76 305.9 68.86C305.63 67.96 304.73 65.7 304.64 65.25C304.55 64.8 303.02 63.08 302.93 61.28C302.84 59.48 302.48 58.12 302.12 57.58C301.76 57.04 301.04 55.96 300.77 55.5C300.5 55.04 299.06 53.06 298.42 52.07C297.78 51.08 296.34 49.09 296.34 48.64C296.34 48.19 293.72 46.47 292.82 45.21C291.92 43.95 290.83 42.77 289.84 42.05C288.85 41.33 287.9 40.27 286.59 39.43C285.6 38.8 284.6 38.35 284.06 37.72C283.52 37.09 281.53 36.55 280.63 35.92C279.73 35.29 276.57 34.12 275.58 33.39C274.59 32.66 273.59 32.22 271.88 31.77C270.17 31.32 267.46 30.15 266.19 29.78C264.92 29.41 261.5 28.7 258.79 28.7C256.08 28.7 253.83 28.43 251.66 28.7C249.49 28.97 244.26 29.33 243.18 30.14C242.1 30.95 239.3 31.22 238.4 31.76C237.5 32.3 233.8 33.66 232.17 34.83C230.54 36 228.02 36.91 227.3 37.45C226.58 37.99 224.95 39.35 223.87 40.34C222.79 41.33 221.79 41.24 221.25 41.69C220.71 42.14 220.35 42.59 220.08 43.04C219.81 43.49 218.64 44.48 217.64 45.84C216.65 47.19 214.66 49.36 214.12 50.26C213.58 51.16 212.41 52.25 212.13 52.88C211.85 53.51 210.78 54.14 210.51 55.23C210.24 56.32 209.25 57.85 208.98 58.12C208.71 58.39 207.27 59.47 207.18 60.02C207.09 60.57 206.64 62.64 206.28 63.54C205.92 64.44 205.02 64.98 204.93 65.53C204.84 66.08 205.11 66.7 204.48 67.88C203.85 69.06 204.03 70.05 203.67 70.86C203.31 71.67 202.86 73.93 202.86 73.93C202.86 73.93 203.85 72.22 204.3 71.67C204.75 71.12 204.84 69.87 205.47 69.41C206.1 68.95 205.65 68.42 206.28 67.61C206.91 66.8 207.72 65.08 208.27 64C208.81 62.92 209.53 61.65 209.98 61.02C210.43 60.39 211.24 58.22 211.69 57.5C212.14 56.78 213.86 53.89 214.76 52.9C215.66 51.91 217.02 51 217.47 49.92C217.92 48.84 218.91 47.84 219.82 46.94C220.73 46.04 220.9 45.5 221.62 45.41C222.34 45.32 222.7 44.69 223.33 43.97C223.96 43.25 223.42 42.53 224.77 42.35C226.12 42.17 226.3 41.54 227.12 41.09C227.94 40.64 228.92 39.47 230.64 38.56C232.35 37.66 233.62 37.57 234.7 36.66C235.78 35.75 235.96 35.76 238.4 34.86C240.84 33.96 241.56 34.05 243.81 33.24C246.07 32.43 246.88 32.43 249.04 32.25C251.2 32.07 252.02 31.71 253.64 31.71C255.26 31.71 256.35 31.8 257.88 31.8C259.41 31.8 262.21 32.16 263.48 32.34C264.75 32.52 265.1 32.79 266.91 33.33C268.72 33.87 271.6 34.5 272.87 35.04C274.14 35.58 274.49 35.85 275.85 36.3C277.21 36.75 280.18 38.47 281.17 39.19C282.16 39.91 283.7 40.54 284.6 41.36C285.5 42.18 287.58 43.26 288.66 44.43C289.74 45.6 290.83 46.51 291.82 47.59C292.81 48.67 293.53 49.3 294.17 50.12C294.81 50.94 295.97 52.02 296.34 52.74C296.71 53.46 297.24 54.36 297.69 55C298.14 55.64 299.49 58.07 299.77 58.7C300.05 59.33 300.67 61.05 300.94 61.77C301.21 62.49 301.57 63.94 302.2 64.57C302.83 65.2 303.46 66.19 303.64 66.74C303.82 67.29 304.27 68.36 304.45 68.82C304.63 69.28 305.08 70.26 305.08 70.26L306.79 73.15L306.8 73.1Z" fill="#C43D3D"/>
<path d="M328.43 126.6C328.43 125.95 327.88 121.88 327.6 120.22C327.32 118.56 326.12 114.58 325.94 113.66C325.76 112.74 323.81 108.57 322.98 107.65C322.15 106.73 320.21 103.77 319.65 102.93C319.1 102.1 316.97 99.88 316.04 98.95C315.11 98.02 312.99 96.45 312.34 96.08C311.69 95.71 309.2 93.86 308.64 93.4C308.09 92.94 305.87 92.11 304.39 91.37C302.91 90.63 299.77 89.71 298.38 89.52C296.99 89.34 295.7 88.87 295.05 88.78C294.4 88.69 292.92 88.32 292.37 88.32C291.82 88.32 290.15 88.23 290.15 88.23C288.86 88.23 287.65 88.32 286.54 88.41C285.43 88.5 281.73 89.06 281.73 89.06C281.73 89.06 279.51 89.24 278.4 89.8C277.29 90.35 275.72 91.56 273.78 92.11C271.84 92.66 270.54 93.13 269.34 94.24C268.14 95.35 264.25 98.03 262.96 99.33C261.67 100.63 258.8 104.14 258.8 104.14C258.8 104.14 255.84 107.84 255.66 108.39C255.48 108.94 253.63 110.89 253.44 112.09C253.26 113.29 252.7 116.07 251.87 118.38C251.04 120.69 250.95 122.82 250.85 123.74C250.75 124.66 250.76 130.77 250.94 132.52C251.12 134.28 251.96 139.27 252.33 140.1C252.7 140.93 253.99 144.54 255.01 146.02C256.03 147.5 258.62 151.57 259.63 152.68C260.65 153.79 261.85 155.55 263.14 156.66C264.43 157.77 265.82 159.25 266.93 159.8C268.04 160.35 272.66 162.85 273.77 163.22C274.88 163.59 275.71 164.05 276.54 164.33C277.37 164.61 279.04 165.07 279.59 165.16C280.14 165.25 282.18 165.71 283.94 166.08C285.7 166.45 288.66 166.82 289.95 166.63C291.24 166.45 293.65 166.35 294.76 166.35C295.87 166.35 298.46 165.98 299.85 165.61C301.24 165.24 302.72 164.69 303.55 164.41C304.38 164.13 309.56 161.27 310.02 160.99C310.48 160.71 314 158.77 315.2 157.11C316.4 155.45 318.25 154.05 319.36 153.04C320.38 152.12 322.6 149.8 323.06 148.6C323.52 147.4 323.98 145.09 324.82 144.35C325.65 143.61 326.95 140.47 327.32 139.26C327.69 138.06 327.97 134.45 328.24 133.62C328.52 132.79 328.42 127.24 328.42 126.59L328.43 126.6ZM326.49 130.67C325.94 133.17 326.12 136.22 325.2 137.88C324.28 139.54 323.54 143.34 322.24 144.63C320.95 145.92 320.95 147.31 319.56 149.16C318.17 151.01 316.79 153.69 315.4 154.8C314.01 155.91 312.07 157.76 310.13 158.68C308.19 159.6 307.63 160.16 305.97 161.18C304.31 162.2 300.33 163.49 298.48 163.95C296.63 164.41 292.47 165.15 291.08 165.06C289.69 164.97 286.18 164.6 283.59 164.41C281 164.23 279.89 163.21 278.23 162.65C276.57 162.1 274.99 161.45 271.67 159.78C268.34 158.12 269.82 158.39 267.97 157.47C266.12 156.55 263.72 154.23 262.51 153.03C261.31 151.83 260.01 149.15 258.81 147.48C257.61 145.82 255.94 142.86 255.57 141.38C255.2 139.9 254 136.66 253.54 135.56C253.08 134.45 253.26 131.31 253.08 129.46C252.9 127.61 252.99 123.91 253.26 122.06C253.54 120.21 255.2 114.48 255.66 112.91C256.12 111.34 258.71 108.29 259.27 107.45C259.82 106.62 262.32 104.4 262.78 102.92C263.24 101.44 265.74 99.96 266.94 98.85C268.14 97.74 271.84 95.34 273.13 94.69C274.42 94.04 279.42 91.64 280.43 91.27C281.45 90.9 284.68 90.72 285.89 90.35C287.09 89.98 289.59 90.26 289.87 90.26C289.87 90.26 291.53 90.44 292 90.44C292.47 90.44 294.59 90.99 295.51 91.18C296.43 91.36 299.49 92.29 300.6 92.66C301.71 93.03 303.93 93.58 306.33 94.88C308.73 96.17 310.58 97.28 311.51 97.93C312.43 98.58 314.38 100.24 315.3 101.17C316.22 102.1 318.17 104.68 319.37 105.98C320.57 107.27 321.59 109.12 322.14 110.51C322.69 111.9 324.82 115.13 324.73 117.63C324.64 120.13 325.93 121.51 326.12 122.9C326.3 124.29 327.04 128.17 326.49 130.67Z" fill="#C43D3D"/>
<path d="M276.82 103.49C276.74 104.18 276.28 105.88 276.05 107.11C275.82 108.34 274.59 110.11 274.43 111.11C274.28 112.11 272.89 114.03 272.81 114.65C272.73 115.27 272.89 116.03 272.19 117.42C271.5 118.8 271.5 120.73 271.04 121.34C271.04 121.34 270.04 123.11 269.89 123.88C269.74 124.65 269.12 126.42 268.89 127.19C268.66 127.96 268.27 129.27 267.97 129.88C267.67 130.49 266.97 131.96 266.89 132.27C266.81 132.58 266.43 134.27 266.43 134.27L266.05 135.19C266.05 135.19 267.13 134.57 267.36 134.34C267.59 134.11 268.44 133.19 269.82 132.34C271.2 131.49 271.21 131.11 271.97 130.57C272.73 130.03 273.82 129.49 274.59 129.11C275.36 128.73 276.51 127.88 276.51 127.88C276.51 127.88 276.36 124.88 276.43 124.49C276.51 124.11 276.74 119.03 276.81 118.33C276.89 117.64 276.5 114.71 276.89 113.33C277.27 111.95 277.2 109.79 277.2 109.25C277.2 108.71 277.28 106.02 277.28 106.02L277.36 104.17L277.51 102.09C277.51 102.09 276.89 102.78 276.82 103.47V103.49ZM274.97 120.19L274.74 123.11V126.03C274.74 126.03 273.97 126.72 273.66 127.11C273.35 127.49 272.35 127.88 271.97 128.26C271.59 128.64 270.51 129.49 270.51 129.49C270.51 129.49 271.59 126.8 271.59 126.49C271.59 126.18 272.28 124.72 272.44 123.72C272.59 122.72 273.52 120.95 273.59 120.49C273.67 120.03 274.59 118.18 274.59 118.18L275.05 117.18L274.97 120.18V120.19Z" fill="#C43D3D"/>
<path d="M308.21 118.03L305.13 116.49C305.13 116.49 301.51 113.87 300.67 113.34C299.82 112.8 296.44 110.49 295.82 110.11C295.2 109.73 292.2 107.88 291.2 107.19C290.2 106.5 286.43 104.27 285.97 103.73C285.51 103.19 283.28 101.73 282.89 101.5C282.51 101.27 279.89 100.04 279.89 100.04C279.89 100.04 279.66 103.81 279.74 104.66C279.82 105.51 279.51 109.82 279.43 110.43C279.35 111.05 279.28 115.2 279.28 115.89C279.28 116.58 279.05 120.2 279.05 120.66C279.05 121.12 278.97 123.58 278.97 123.89C278.97 124.2 278.82 127.28 278.82 127.28C278.82 127.28 281.59 126.59 282.28 126.43C282.97 126.28 286.2 125.2 286.2 125.2C286.2 125.2 287.43 124.66 289.2 124.51C290.97 124.36 292.12 124.43 293.43 124.05C294.74 123.67 297.59 122.82 298.28 122.59C298.97 122.36 301.67 121.67 302.51 121.51C303.36 121.36 305.36 120.74 306.05 120.59C306.74 120.44 308.51 120.21 308.74 120.05C308.97 119.9 310.28 119.59 310.28 119.59L308.2 118.05L308.21 118.03ZM302.82 119.57C302.36 119.72 300.05 120.26 298.82 120.49C297.59 120.72 294.74 121.11 293.13 121.64C291.51 122.18 288.28 122.79 288.28 122.79L283.74 123.64L281.05 124.18C281.05 124.18 281.13 121.79 281.13 121.26C281.13 120.73 281.44 118.64 281.36 117.64C281.28 116.64 281.36 115.33 281.36 114.02C281.36 112.71 281.82 110.4 281.82 110.1C281.82 109.95 281.86 107.87 281.97 106.33C282.09 104.75 281.97 103.33 281.97 103.33L283.66 104.71C283.66 104.71 284.89 105.56 285.12 105.79C285.35 106.02 287.97 107.41 288.35 107.64C288.73 107.87 291.27 109.56 291.58 109.79C291.89 110.02 294.97 112.33 294.97 112.33C294.97 112.33 297.59 114.1 298.05 114.64C298.51 115.18 301.05 116.26 301.36 116.41C301.67 116.56 303.13 117.49 303.13 117.49L304.98 119.03C304.98 119.03 303.29 119.41 302.83 119.57H302.82Z" fill="#C43D3D"/>
<path d="M294.67 153.65C294.67 153.65 292.28 151.26 292.05 150.8C291.82 150.34 290.13 148.65 289.9 147.88C289.67 147.11 286.67 143.73 286.44 143.26C286.21 142.8 284.36 140.41 284.05 140.11C283.74 139.8 280.97 136.26 280.97 136.26C280.97 136.26 279.28 133.87 279.2 133.64C279.12 133.41 277.58 131.56 277.58 131.56L276.73 130.64C276.73 130.64 274.88 131.56 274.58 131.95C274.27 132.33 272.43 133.33 271.96 133.72C271.5 134.1 270.34 134.87 270.04 135.03C269.73 135.18 268.96 135.65 268.89 135.88C268.81 136.11 267.66 136.88 267.35 137.11C267.04 137.34 266.27 137.8 266.27 137.8C266.27 137.8 268.04 138.34 268.42 138.8C268.8 139.26 269.57 140.11 270.27 140.49C270.97 140.87 272.81 141.8 272.81 141.8C272.81 141.8 274.81 143.18 276.04 143.88C277.27 144.57 278.58 145.8 278.89 145.96C279.2 146.11 281.2 147.19 282.04 147.58C282.89 147.96 284.12 148.66 284.35 148.73C284.58 148.81 286.04 150.19 286.81 150.65C287.58 151.11 288.66 151.27 288.89 151.42C289.12 151.57 290.35 152.88 290.97 153.34C291.59 153.8 292.51 154.11 292.89 154.26C293.27 154.41 295.2 155.49 295.2 155.49L296.74 156.11L294.66 153.65H294.67ZM287.74 148.34C287.74 148.34 286.2 147.42 285.89 147.11C285.58 146.8 283.43 146.11 283.43 146.11C283.43 146.11 281.12 144.8 280.89 144.49C280.66 144.18 278.5 143.03 278.27 142.72C278.04 142.41 276.19 141.49 275.58 141.1C274.96 140.72 273.35 139.64 272.81 139.1C272.27 138.56 270.73 137.48 270.73 137.48C270.73 137.48 272.27 136.33 272.65 136.02C273.03 135.71 274.5 134.56 274.5 134.56L276.58 133.56L277.27 134.48L277.96 135.79L279.65 137.79C279.65 137.79 282.27 140.71 282.5 141.18C282.73 141.64 284.5 143.8 284.81 144.1C285.12 144.41 286.89 146.79 286.89 146.79L288.89 148.94L287.74 148.32V148.34Z" fill="#C43D3D"/>
<path d="M306.67 122.95C305.52 123.26 303.05 123.8 301.98 124.03C300.9 124.26 296.9 125.03 295.9 125.26C294.9 125.49 293.75 126.03 292.13 126.57C290.51 127.11 288.21 127.19 287.44 127.42C286.67 127.65 284.13 128.5 283.13 128.88C282.13 129.26 279.51 130.03 279.51 130.03C279.51 130.03 280.43 131.57 280.97 132.03C280.97 132.03 281.97 133.65 282.59 134.26C283.21 134.88 284.36 136.18 285.13 137.03C285.9 137.88 286.98 139.95 287.59 140.65C288.21 141.34 289.82 143.73 290.51 144.57C291.2 145.42 292.9 147.72 293.66 148.65C294.43 149.57 296.35 151.73 296.66 152.11C296.97 152.49 298.58 154.73 298.58 154.73L299.66 156.19C299.66 156.19 300.89 154.34 300.97 154.04C301.05 153.73 301.2 152.89 301.59 152.19C301.98 151.49 302.67 149.73 302.74 149.27C302.82 148.81 303.04 146.58 303.04 145.89C303.04 145.2 302.55 143.54 302.35 143.17C302.04 142.6 301.05 141.88 301.05 141.88C301.05 141.88 301.21 143.14 301.13 143.52C301.05 143.9 300.47 145.34 299.74 145.72C299.13 146.05 297.35 146.18 297.35 146.18C297.35 146.18 294.66 145.56 294.5 145.18C294.35 144.8 293.19 143.49 293.27 142.56C293.35 141.63 293.96 139.94 294.42 139.56C294.88 139.18 298.27 135.17 298.96 134.64C299.65 134.1 301.35 131.79 301.35 131.79C301.35 131.79 304.04 128.94 304.43 128.33C304.81 127.71 306.89 125.56 307.58 124.94C308.27 124.32 309.04 123.56 309.04 123.56L310.12 121.94C310.12 121.94 307.81 122.63 306.66 122.94L306.67 122.95ZM296.28 148.11C296.28 148.11 297.28 148.26 297.67 148.34C298.06 148.42 298.98 148.19 299.44 148.19C299.9 148.19 300.9 147.19 300.9 147.19C300.9 147.19 301.28 148.27 301.05 149.04C300.82 149.81 300.59 150.73 300.43 151.04C300.27 151.35 299.43 152.5 299.43 152.5C299.43 152.5 298.43 151.35 298.35 151.12C298.27 150.89 296.96 149.5 296.96 149.5L295.57 147.81L296.26 148.12L296.28 148.11ZM302.67 127.8C302.67 127.8 300.67 129.8 300.44 130.19C300.21 130.58 297.52 133.04 296.59 134.04C295.67 135.04 293.59 137.43 293.13 137.73C292.67 138.04 291.9 139.65 291.44 140.35C290.98 141.04 291.44 142.35 291.44 142.35C291.44 142.35 290.52 141.2 290.13 140.81C289.75 140.43 289.21 139.19 288.9 138.73C288.59 138.27 287.59 137.19 286.98 136.5C286.36 135.81 285.13 134.19 284.52 133.04C283.9 131.89 282.75 130.73 282.75 130.73C282.75 130.73 284.13 130.5 284.37 130.5C284.61 130.5 286.68 129.81 287.6 129.65C288.52 129.5 292.06 128.96 292.68 128.73C293.3 128.5 295.76 127.73 296.99 127.42C298.22 127.11 300.68 126.65 301.45 126.57C302.22 126.49 304.6 125.8 304.6 125.8L302.68 127.8H302.67Z" fill="#C43D3D"/>
<path d="M469.76 115.75L471.78 113.78L473.23 111.91L475.71 108.76L477.87 106.64C477.87 106.64 475.69 105.5 474.52 104.81C473.54 104.23 471.35 103.19 470.78 102.88C470.38 102.66 467.49 101.34 467.49 101.34C467.49 101.34 463.81 100.05 463.27 100C462.5 99.93 459.51 99.66 458.82 99.56C458.24 99.48 455.47 99.2 454.26 99.31C453.05 99.42 449.63 99.52 448.64 99.85C447.65 100.18 444.4 100.91 443.19 101.35C441.98 101.79 439.13 103.04 438.1 103.86C437.14 104.63 435.34 105.97 434.09 107.09C432.84 108.21 431.38 110.39 430.94 111.05C430.5 111.71 429.27 114.08 428.92 114.68C428.53 115.36 427.84 117.2 427.18 118.62C426.52 120.05 426.19 121.59 425.86 123.01C425.53 124.44 425.09 125.87 424.87 126.41C424.65 126.95 423.55 128.28 423 128.83C422.45 129.38 421.24 130.15 420.47 130.37C419.7 130.59 417.83 131.14 417.83 131.14C417.83 131.14 419.7 131.69 420.36 132.13C421.02 132.57 423 133.89 423 133.89C423 133.89 424.87 134.99 425.09 135.76C425.31 136.53 426.19 138.18 426.41 138.94C426.59 139.57 427.29 142.01 427.73 143.66C428.17 145.31 428.66 146.16 428.99 146.93C429.32 147.7 430.78 150 431.22 150.55C431.66 151.1 433.06 153.08 433.93 154.07C434.8 155.06 436.68 157.04 437.11 157.25C437.54 157.46 438.8 158.4 440.18 159.12C441.71 159.91 442.74 160.39 444.93 161.27C447.13 162.15 448.96 162.2 450.61 162.64C452.26 163.08 453.03 162.86 455 162.86C456.97 162.86 459.31 162.68 460.19 162.57C461.07 162.46 464.12 161.65 465.32 161.32C466.52 160.99 468.55 160.2 469.49 159.78C470.27 159.43 472.89 158.02 473.33 157.91L475.09 156.81C475.09 156.81 473.33 153.84 472.89 152.97C472.45 152.09 471.47 150.05 471.03 149.17C470.59 148.29 469.73 146.8 469.73 146.8C469.73 146.8 468.91 148.13 468.03 149C467.15 149.87 465.44 151.97 463.76 152.81C462.01 153.69 459.11 154.76 457.58 154.87C456.23 154.97 453.85 155 452.33 154.87C451.53 154.8 448.51 154.12 447.1 153.33C445.69 152.54 443.52 151.62 442.64 150.64C441.76 149.66 440.36 149.01 438.94 146.6C437.52 144.19 437.14 143.65 436.78 142.74C436.28 141.48 435 137.73 434.76 136.51C434.52 135.29 434.52 132.36 434.46 130.48C434.4 128.6 434.9 126.51 435.25 124.92C435.69 122.94 435.83 120.74 436.69 119.16C437.6 117.49 439.52 113.75 440.29 112.98C441.06 112.21 444.22 109.55 445.53 109.11C446.84 108.67 450.44 106.91 452.74 106.91C455.04 106.91 456.84 107.16 458.5 107.53C460.16 107.9 461.9 109.15 462.99 109.65C463.17 109.73 464.64 110.42 465.94 111.31C466.93 111.98 468.16 112.83 468.84 113.64C469.58 114.52 469.72 115.77 469.72 115.77L469.76 115.75Z" fill="#C43D3D"/>
<path d="M405.47 108.38C405.47 108.38 404.98 108.03 404.31 107.53C403.88 107.21 403.34 106.1 402.85 105.71C402.03 105.06 401.22 104.89 400.87 104.47C400.5 104.03 400.04 103.56 399.42 102.92C398.55 102.02 397.5 101.32 397.5 101.32L396.41 100.11L395.12 99.26C395.12 99.26 395.61 98.64 395.95 97.98C396.46 97 397.22 96.19 397.54 95.69C397.88 95.17 398.25 93.98 398.62 93.14C398.99 92.3 400.27 90.25 400.56 89.97C401.07 89.46 401.68 87.69 401.68 87.69C402.02 87.94 402.32 88.12 402.8 88.45C403.12 88.67 403.39 89.23 403.95 89.65C404.37 89.97 404.94 90.23 405.41 90.61C405.86 90.97 406.56 91.22 407.03 91.6C407.71 92.15 407.98 93.09 408.61 93.58C408.82 93.74 409.54 93.8 410.17 94.38C410.66 94.83 411.21 95.34 411.69 95.78C412.42 96.46 413 97 413 97C413 97 412.31 97.97 411.66 98.87C411.28 99.4 411.01 100.23 410.81 100.49C410.29 101.19 409.32 102.61 408.97 103.31C408.62 104.01 407.1 105.57 407.1 105.57L406.32 107.1L405.46 108.38H405.47Z" fill="#C43D3D"/>
<path d="M396.59 111.96C396.59 111.96 397.88 112.93 398.44 113.49C399 114.05 400.21 115.66 400.53 116.15C400.85 116.64 401.82 117.84 401.82 117.84C401.82 117.84 401.82 123.47 401.74 124.04C401.66 124.61 401.74 128.63 401.9 130.16C402.06 131.69 401.74 135.79 401.74 135.79C401.74 135.79 401.9 140.78 401.9 141.02C401.9 141.26 402.14 146.98 402.14 147.78C402.14 148.58 401.98 152.61 401.98 152.61C401.98 152.61 401.9 155.02 401.9 155.35C401.9 155.68 401.74 157.28 401.58 157.68C401.42 158.08 399.47 159.64 399.47 159.64C399.47 159.64 401.72 159.81 403.39 159.86C404.95 159.9 407.89 159.52 408.98 159.53C409.88 159.53 412.36 159.69 413 159.77C413.64 159.85 416.75 159.67 416.75 159.67L415.27 158.74L413.37 157.64C413.37 157.64 411.77 156 411.45 155.68C411.13 155.36 410.27 154.14 410.27 154.14C410.27 154.14 409.95 147.62 410.03 146.65C410.11 145.68 410.11 139.65 410.11 139.24V132.32L409.87 124.43V119.52C409.87 119.52 410.03 117.02 409.95 116.54C409.87 116.06 410.27 114.37 410.27 114.37C410.27 114.37 410.67 112.6 411.56 112.28L409.23 112.12H405.77C405.21 112.12 402.87 112.36 402.47 112.28C402.07 112.2 399.65 112.12 399.65 112.12L396.59 111.96Z" fill="#C43D3D"/>
<path d="M388.3 118.21C387.08 115.76 385.41 113.19 383.72 110.89C381.8 108.27 376.73 104.72 374.63 103.67C373.19 102.95 368.24 101.09 364.56 100.74C360.89 100.39 356.83 100.84 355.43 100.67C354.03 100.5 349.61 100.76 347.21 100.72C345.45 100.69 343.36 100.72 343.36 100.72L339.87 100.77C339.87 100.77 341.3 101.87 342 102.57C342.31 102.88 342.87 103.71 343.42 104.37C344.1 105.18 344.75 105.81 344.75 105.81C344.75 105.81 344.78 107.72 344.81 110.19C344.83 111.88 345.26 113.13 345.28 114.91C345.31 117.31 345.06 118.6 345.06 119.34C345.06 121.44 344.98 124.18 344.98 125.05C344.98 125.49 344.45 126.57 343.81 127.38C343.17 128.19 342.13 128.64 341.87 128.81C341.35 129.16 339.03 130.12 339.03 130.12C339.03 130.12 341.71 130.91 342.2 131.17C343.12 131.65 344.51 132.87 344.62 133.5C344.68 133.86 344.82 135.5 344.8 136.59C344.78 137.68 345.1 143.77 345.1 145.87C345.1 147.97 344.75 152.69 344.75 153.22C344.75 153.75 344.57 155.14 344.57 155.14L342.12 157.41L337.57 160.21C337.57 160.21 341.24 159.86 345.79 160.21C350.34 160.56 357.16 159.86 358.39 159.86C359.62 159.86 367.38 159.06 370 158.01C372.62 156.96 377.47 155.14 380.26 152.68C382.33 150.85 385.65 147.09 387.45 143.7C388.48 141.75 389.59 138.22 390.13 135.11C390.38 133.69 390.51 128.25 390.5 127.72C390.43 124.83 389.13 119.9 388.28 118.21H388.3ZM382.02 130.77C381.79 133.28 381.05 137.18 380.41 138.95C379.61 141.14 377.61 143.87 376.85 144.68C375.52 146.08 373.4 147.95 372.14 148.87C370.88 149.78 366.57 151.58 364.66 152.01C363.32 152.31 358.65 153.01 357.73 152.97C355.25 152.88 352.93 152.28 352.93 152.28C352.93 152.28 353.16 150.34 352.82 148.74C352.48 147.14 353.05 144.06 352.93 143.49C352.82 142.92 352.82 137.32 352.82 134.92C352.82 132.52 352.71 127.84 352.82 127.04C352.93 126.24 353.05 118.24 353.05 116.76C353.05 115.28 353.07 108.14 353.07 108.14C353.07 108.14 356.66 107.66 357.92 107.77C359.18 107.88 362.39 107.91 364.11 108.14C365.83 108.37 368.6 109.13 371.22 110.82C373.81 112.48 375.77 114.66 376.89 115.96C377.75 116.97 379.96 120.75 380.77 122.7C381.15 123.6 382.25 128.26 382.02 130.77Z" fill="#C43D3D"/>
<path d="M482.57 100.71C482.57 100.71 483.42 101.56 483.9 101.8C484.38 102.04 485.72 103.25 485.72 103.25L486.81 104.1V110.04C486.81 111.01 486.93 117.55 486.81 118.88C486.69 120.21 485.84 126.15 486.2 128.09C486.56 130.03 486.08 135.84 486.08 136.33C486.08 136.82 485.96 141.66 486.08 142.99C486.2 144.32 486.08 147.35 486.2 149.05C486.32 150.75 486.56 154.5 486.56 154.5V155.71C486.56 155.71 484.14 157.16 484.02 157.53C483.9 157.9 480.51 159.95 480.51 159.95C480.51 159.95 485.6 159.71 487.17 159.83C488.74 159.95 492.62 159.83 494.92 159.95C497.22 160.07 505.95 159.1 508.13 159.47C510.31 159.84 512.61 159.71 514.43 159.71H518.91L521.82 159.59C521.82 159.59 523.15 154.86 523.52 154.02C523.89 153.18 525.94 148.2 526.31 147.84C526.68 147.48 527.04 145.42 527.04 145.42C527.04 145.42 524.13 147.48 523.41 148.33C522.69 149.18 518.81 150.87 517.84 151.36C516.87 151.85 512.63 152.33 510.09 152.33C507.55 152.33 503.79 152.57 502.21 152.57C500.63 152.57 494.33 152.33 494.33 152.33V146.51C494.33 145.54 494.21 141.91 494.33 140.33C494.45 138.75 494.09 135.24 494.09 134.51C494.09 133.78 494.33 129.66 494.33 129.66L494.09 126.12C494.09 126.12 494.63 126.77 495.17 127.47C495.71 128.17 495.79 128.77 496.08 129.1C496.32 129.37 496.25 130.63 496.25 130.63C496.25 130.63 497.5 129.85 499.44 129.97C501.38 130.09 502.46 130.02 504.52 130.15C506.58 130.28 508.88 130.15 509.73 130.15C510.58 130.15 511.79 131.24 512.27 131.73C512.75 132.22 513.6 133.79 513.6 133.79L513.72 125.91V123.12L511.42 123.73C511.42 123.73 507.06 123.85 505.85 123.85C504.64 123.85 502.34 123.73 501.49 123.85C500.64 123.97 496.16 123.73 496.16 123.73H494.1C494.1 123.73 494.1 117.16 494.34 116.19C494.58 115.22 494.34 113.72 494.46 112.75C494.58 111.78 494.46 108.05 494.46 108.05C494.46 108.05 505.12 107.93 507.18 107.93C509.24 107.93 510.69 108.17 512.27 108.17C513.85 108.17 514.45 108.05 515.3 108.29C516.15 108.53 517.24 109.5 517.6 110.35C517.6 110.35 517.48 107.93 517.36 107.32C517.24 106.71 517.36 102.89 517.36 102.16C517.36 101.43 517.12 99.25 517.12 99.25C517.12 99.25 515.67 100.34 515.18 100.46C514.69 100.58 509.73 100.58 508.76 100.7C507.79 100.82 501.13 100.82 499.92 100.82C498.71 100.82 493.5 100.7 492.04 100.7C490.58 100.7 486.71 100.58 486.35 100.58C485.99 100.58 482.59 100.7 482.59 100.7L482.57 100.71Z" fill="#C43D3D"/>
<path d="M51.93 114.04L53.95 112.07L55.4 110.2L57.88 107.05L60.04 104.93C60.04 104.93 57.86 103.79 56.69 103.1C55.71 102.52 53.52 101.48 52.95 101.17C52.55 100.95 49.66 99.63 49.66 99.63C49.66 99.63 45.98 98.34 45.44 98.29C44.67 98.22 41.68 97.95 40.99 97.85C40.41 97.77 37.64 97.49 36.43 97.6C35.22 97.71 31.8 97.81 30.81 98.14C29.82 98.47 26.57 99.2 25.36 99.64C24.15 100.08 21.3 101.33 20.27 102.15C19.31 102.92 17.51 104.26 16.26 105.38C15.01 106.5 13.55 108.68 13.11 109.34C12.67 110 11.44 112.37 11.09 112.97C10.7 113.65 10.01 115.49 9.35 116.91C8.69 118.33 8.36 119.88 8.03 121.3C7.7 122.72 7.26 124.16 7.04 124.7C6.82 125.24 5.72 126.57 5.17 127.12C4.62 127.67 3.41 128.44 2.64 128.66C1.87 128.88 0 129.43 0 129.43C0 129.43 1.87 129.98 2.53 130.42L5.17 132.18C5.17 132.18 7.04 133.28 7.26 134.05C7.48 134.82 8.36 136.47 8.58 137.23C8.76 137.86 9.46 140.3 9.9 141.95C10.34 143.6 10.83 144.45 11.16 145.22C11.49 145.99 12.95 148.29 13.39 148.84C13.83 149.39 15.23 151.37 16.1 152.36C16.97 153.35 18.85 155.33 19.28 155.54C19.71 155.75 20.97 156.69 22.35 157.41C23.88 158.2 24.91 158.68 27.1 159.56C29.29 160.44 31.13 160.49 32.78 160.93C34.43 161.37 35.2 161.15 37.17 161.15C39.14 161.15 41.48 160.97 42.36 160.86C43.24 160.75 46.29 159.94 47.49 159.61C48.69 159.28 50.72 158.49 51.66 158.07C52.44 157.72 55.06 156.31 55.5 156.2L57.26 155.1C57.26 155.1 55.5 152.13 55.06 151.26C54.62 150.39 53.64 148.34 53.2 147.46C52.76 146.58 51.9 145.09 51.9 145.09C51.9 145.09 51.08 146.42 50.2 147.29C49.32 148.16 47.61 150.26 45.93 151.1C44.25 151.94 41.28 153.05 39.75 153.16C38.4 153.26 36.02 153.29 34.5 153.16C33.7 153.09 30.68 152.41 29.27 151.62C27.86 150.83 25.69 149.91 24.81 148.93C23.93 147.95 22.53 147.3 21.11 144.89C19.69 142.48 19.31 141.94 18.95 141.03C18.45 139.77 17.17 136.02 16.93 134.8C16.69 133.58 16.69 130.65 16.63 128.77C16.57 126.89 17.07 124.8 17.42 123.21C17.86 121.23 18 119.03 18.86 117.45C19.77 115.78 21.69 112.04 22.46 111.27C23.23 110.5 26.39 107.84 27.7 107.4C29.01 106.96 32.61 105.2 34.91 105.2C37.21 105.2 39.01 105.45 40.67 105.82C42.33 106.19 44.07 107.44 45.16 107.94C45.34 108.02 46.81 108.71 48.11 109.6C49.1 110.27 50.33 111.12 51.01 111.93C51.75 112.81 51.89 114.06 51.89 114.06L51.93 114.04Z" fill="#C43D3D"/>
<path d="M75.15 160.81H72.08C71.2 160.81 68.68 160.92 67.69 160.81C66.7 160.7 64.4 160.7 64.4 160.7L61.65 160.81H58.79C58.79 160.81 60.88 158.72 61.21 158.5C61.54 158.28 63.85 155.75 63.85 155.75L65.17 154.43L66.16 150.15L67.7 144.55C67.7 144.55 69.13 139.94 69.24 139.28C69.35 138.62 70.78 133.9 70.78 133.9L72.32 128.85L73.86 122.92L75.18 117.87L75.95 114.69L76.61 111.29C76.61 111.29 76.94 109.75 76.94 109.09C76.94 108.43 76.61 107.22 76.17 106.67C76.17 106.67 79.14 106.34 80.12 106.56C81.1 106.78 82.87 106.67 83.52 106.78C84.17 106.89 86.7 106.89 86.7 106.89C86.7 106.89 85.82 104.14 85.82 103.82C85.82 103.5 85.16 100.85 85.16 100.85C85.16 100.85 84.28 98.32 83.95 97.12C83.62 95.92 82.96 93.28 82.74 92.18C82.52 91.08 81.97 89 81.97 89C81.97 89 84.28 88.56 84.72 88.45C85.16 88.34 88.67 87.79 88.67 87.79L92.07 86.91L95.25 86.36C95.25 86.36 94.26 88.23 94.04 88.78C93.82 89.33 93.27 91.09 93.16 91.42C93.05 91.75 93.05 93.95 93.05 94.39C93.05 94.83 94.26 100.76 94.26 101.53C94.26 102.3 95.69 107.46 95.91 108.56C96.13 109.66 97.45 115.37 97.89 117.02C98.33 118.67 99.98 124.05 100.2 125.15C100.42 126.25 101.63 130.64 101.96 131.63C102.29 132.62 103.61 137.56 104.05 139.1C104.49 140.64 106.36 145.91 106.69 147.23C107.02 148.55 108.67 152.94 108.89 153.6C109.11 154.26 109.77 155.69 109.77 155.69C109.77 155.69 111.31 156.79 112.19 157.67C113.07 158.55 114.83 159.65 114.83 159.65L116.59 160.86C116.59 160.86 113.08 161.08 112.09 160.97C111.1 160.86 107.37 160.75 106.82 160.75C106.27 160.75 102.21 160.86 102.21 160.86H97.6L99.58 159.32L101.67 157.45C101.67 157.45 100.24 153.5 99.69 151.3C99.14 149.1 97.49 144.93 97.27 143.61C97.05 142.29 93.98 133.07 93.65 130.43C93.32 127.79 90.9 120.99 90.9 120.33C90.9 119.67 89.25 114.4 89.25 114.4H86.07C85.74 114.4 83.98 114.29 83.98 114.29L81.74 114.36L79.36 114.32L82.26 115.45L84.12 116.1C84.12 116.1 83.51 116.73 83.23 117.72C82.88 119 82.45 120.6 82.33 121.22C82.11 122.32 80.57 127.81 80.46 128.14C80.35 128.47 78.59 135.28 78.59 135.28C78.59 135.28 76.28 142.97 76.17 143.52C76.06 144.07 74.85 148.79 74.63 149.56C74.41 150.33 73.31 154.5 73.2 154.94C73.09 155.38 72.65 156.59 72.65 156.59L74.08 158.35L77.05 160.88H75.18L75.15 160.81Z" fill="#C43D3D"/>
<path d="M72.66 152.7C73.27 152.18 75.77 149.57 76.98 148.62C78.19 147.67 80.61 146.11 81.3 145.77C81.99 145.43 86.13 142.95 87.51 142.52C88.89 142.09 91.32 140.65 92.62 140.3C93.92 139.95 96.97 138.99 97.66 138.99C98.35 138.99 100.01 138.49 100.01 138.49L98.5 132.63C98.5 132.63 93.74 133.41 92.88 133.75C92.02 134.09 87.06 135.62 85.96 136C84.71 136.43 80.36 138.34 79.17 138.85C77.59 139.52 75.04 141.28 73.83 141.98C72.62 142.68 70.84 144.39 70.84 144.39L68.59 154.77L72.65 152.71L72.66 152.7Z" fill="#C43D3D"/>
<path d="M208.2 160.81H205.13C204.25 160.81 201.73 160.92 200.74 160.81C199.75 160.7 197.45 160.7 197.45 160.7L194.7 160.81H191.84C191.84 160.81 193.93 158.72 194.26 158.5C194.59 158.28 196.9 155.75 196.9 155.75L198.22 154.43L199.21 150.15L200.75 144.55C200.75 144.55 202.18 139.94 202.29 139.28C202.4 138.62 203.83 133.9 203.83 133.9L205.37 128.85L206.91 122.92L208.23 117.87L209 114.69L209.66 111.29C209.66 111.29 209.99 109.75 209.99 109.09C209.99 108.43 209.66 107.22 209.22 106.67C209.22 106.67 212.19 106.34 213.17 106.56C214.15 106.78 215.92 106.67 216.57 106.78C217.22 106.89 219.75 106.89 219.75 106.89C219.75 106.89 218.87 104.14 218.87 103.82C218.87 103.5 218.21 100.85 218.21 100.85C218.21 100.85 217.33 98.32 217 97.12C216.67 95.91 216.01 93.28 215.79 92.18C215.57 91.08 215.02 89 215.02 89C215.02 89 217.33 88.56 217.77 88.45C218.21 88.34 221.72 87.79 221.72 87.79L225.12 86.91L228.3 86.36C228.3 86.36 227.31 88.23 227.09 88.78C226.87 89.33 226.32 91.09 226.21 91.42C226.1 91.75 226.1 93.95 226.1 94.39C226.1 94.83 227.31 100.76 227.31 101.53C227.31 102.3 228.74 107.46 228.96 108.56C229.18 109.66 230.5 115.37 230.94 117.02C231.38 118.67 233.03 124.05 233.25 125.15C233.47 126.25 234.68 130.64 235.01 131.63C235.34 132.62 236.66 137.56 237.1 139.1C237.54 140.64 239.41 145.91 239.74 147.23C240.07 148.55 241.72 152.94 241.94 153.6C242.16 154.26 242.82 155.69 242.82 155.69C242.82 155.69 244.36 156.79 245.24 157.67C246.12 158.55 247.88 159.65 247.88 159.65L249.64 160.86C249.64 160.86 246.13 161.08 245.14 160.97C244.15 160.86 240.42 160.75 239.87 160.75C239.32 160.75 235.26 160.86 235.26 160.86H230.65L232.63 159.32L234.72 157.45C234.72 157.45 233.29 153.5 232.74 151.3C232.19 149.1 230.54 144.93 230.32 143.61C230.1 142.29 227.03 133.07 226.7 130.43C226.37 127.79 223.95 120.99 223.95 120.33C223.95 119.67 222.3 114.4 222.3 114.4H219.12C218.79 114.4 217.03 114.29 217.03 114.29H213.63L215.94 115.28L216.93 115.5C216.93 115.5 215.61 120.11 215.39 121.21C215.17 122.31 213.63 127.8 213.52 128.13C213.41 128.46 211.65 135.27 211.65 135.27C211.65 135.27 209.34 142.96 209.23 143.51C209.12 144.06 207.91 148.78 207.69 149.55C207.47 150.32 206.37 154.49 206.26 154.93C206.15 155.37 205.71 156.58 205.71 156.58L207.14 158.34L210.11 160.87H208.24L208.2 160.81Z" fill="#C43D3D"/>
<path d="M205.7 152.34C206.31 151.82 208.81 149.57 210.02 148.62C211.23 147.67 213.65 146.11 214.34 145.77C215.03 145.43 219.01 143.35 220.39 142.92C221.77 142.49 224.02 141.71 225.32 141.36C226.62 141.01 230.16 140.5 230.85 140.5C231.54 140.5 233.53 140.41 233.53 140.41L231.54 132.63C231.54 132.63 226.78 133.41 225.92 133.75C225.06 134.09 220.04 135.48 219 136C217.96 136.52 213.29 138.33 212.26 139.11C211.23 139.89 207.85 141.79 206.64 142.48C205.43 143.17 203.87 144.38 203.87 144.38L201.62 154.76L205.68 152.34H205.7Z" fill="#C43D3D"/>
<path d="M161.13 99.48C161.53 99.68 162.12 100.47 162.12 100.47L162.81 101.86C162.81 101.86 163.2 104.75 163.2 105.45C163.2 106.15 162.91 109.39 162.91 109.69C162.91 109.99 162.81 111.37 162.81 111.37C162.81 111.37 164.47 109.74 165.12 109.15C166.05 108.3 167.28 107.22 167.28 107.22L170.75 107.14C170.75 107.14 177.38 106.91 179.7 106.83C181.58 106.77 186.3 106 187.72 105.75C189.03 105.52 191.23 105.09 193.27 104.44C195.31 103.79 197.23 103.48 197.23 103.48L198.83 103.59C198.83 103.59 198.81 100.75 198.91 100.35C199.01 99.95 199.12 96.8 199.22 96.11C199.32 95.42 199.22 92.84 199.22 92.84L197.93 94.92C197.93 94.92 195.88 96.3 194.75 96.65C192.98 97.19 189.31 98.15 186.96 98.58C184.42 99.04 180.09 99.45 178.01 99.58C175.54 99.73 172.88 99.76 171.15 99.73C169.65 99.71 167.81 99.75 166.52 99.65C165.23 99.55 163.2 99.57 163.2 99.57L161.13 99.47V99.48Z" fill="#C43D3D"/>
<path d="M174.61 105.03C174.61 105.03 174.41 111.07 174.31 112.07C174.21 113.07 174.61 119.9 174.61 120.89C174.61 121.88 174.51 127.73 174.51 129.02C174.51 130.31 174.81 136.85 174.61 137.54C174.41 138.23 174.61 143.58 174.51 144.77C174.41 145.96 174.31 150.52 174.21 151.31C174.11 152.1 174.01 154.68 174.01 154.68L173.98 155.66L171.73 157.95C171.73 157.95 170.54 158.94 170.14 159.14C169.74 159.34 167.56 160.82 167.56 160.82C167.56 160.82 170.33 160.72 171.33 160.82C172.33 160.92 175.43 160.95 176.23 160.95C177.03 160.95 179.48 160.68 181.07 160.78C182.66 160.88 184.22 161.01 185.01 161.01C185.8 161.01 187.6 160.9 187.6 160.9L185.51 158.75C185.51 158.75 183.53 156.67 183.43 156.37C183.33 156.07 182.84 155.28 182.84 155.28C182.84 155.28 182.44 148.84 182.64 148.34C182.84 147.84 182.94 139.22 182.84 138.73C182.74 138.24 182.15 133.38 182.74 131.79C183.33 130.2 182.74 127.53 182.94 127.03C183.14 126.53 182.64 122.47 182.64 121.08V113.45C182.64 111.77 182.54 110.58 182.64 109.88C182.74 109.18 182.74 105.42 182.74 105.42L174.61 105.02V105.03Z" fill="#C43D3D"/>
<path d="M141.85 133.48C141.85 133.48 145.76 131.71 146.88 131.09C148.94 129.94 151.07 128.06 152.81 126.01C153.61 125.06 154.93 123.03 155.53 121.35C156.23 119.38 156.38 117.22 156.38 116.45C156.38 115.56 156.42 113.45 155.77 111.61C155.38 110.5 154.54 108.45 154.02 107.5C153.05 105.75 150.98 103.98 148.77 102.4C147.22 101.29 141.82 99.24 140.08 98.92C138.34 98.6 133.44 98.6 130.76 98.45C128.08 98.3 123.65 98.88 122.38 98.88H116.18L118.12 100.35L120.96 102.88L123.33 104.78L123.49 106.83C123.49 106.83 123.96 113.47 123.81 114.1C123.65 114.73 124.06 121.72 123.91 123.14C123.75 124.56 123.81 132.11 123.81 132.11C123.81 132.11 123.65 139.85 123.65 141.28V149.18C123.65 150.13 123.55 156.51 123.55 156.51C123.55 156.51 121.94 158.64 121.26 159.04C120.34 159.59 118.91 161.03 118.91 161.03H126.18C127.29 161.03 132.47 160.94 132.95 160.94C133.43 160.94 136.31 160.89 136.31 160.89L134.89 159.84L133.04 158.41L131.92 157.14L131.96 154.93C131.96 154.93 131.79 152.34 131.79 151.55C131.79 151.13 131.98 149.16 131.99 147.35C131.99 145.75 131.78 144.46 131.93 143.8C132.07 143.17 131.88 141.02 132.03 139.27C132.21 137.15 132.08 135.08 132.08 135.08L135.78 134.84C137.15 134.75 140.43 134.09 141.86 133.49L141.85 133.48ZM129.93 106.11L128.49 105.69C128.49 105.69 129.58 105.58 130.58 105.59C131.52 105.59 132.49 105.61 132.67 105.61C133.09 105.61 133.67 105.62 134.19 105.71C135.18 105.87 137.32 105.87 137.98 106.04C138.64 106.2 140.78 106.78 141.77 107.03C142.76 107.28 144.49 108.27 144.99 108.6C145.49 108.93 146.47 110.41 146.97 110.91C147.46 111.4 148.54 113.63 148.62 114.37C148.7 115.11 148.78 117.26 148.62 118.33C148.46 119.4 147.88 121.38 147.14 122.29C146.4 123.2 145 124.6 144.16 125.27C143.01 126.18 141.65 126.8 141.07 127.04C140.49 127.29 138.39 127.99 137.81 128.15C137.23 128.31 134.91 128.36 134.49 128.44C134.07 128.52 131.96 128.64 131.96 128.64V123.28C131.96 121.55 131.71 116.44 131.88 115.28C132.04 114.13 131.8 111.49 131.96 110.74C132.12 109.99 131.96 107.28 131.96 107.28L130.81 106.62L129.93 106.1V106.11Z" fill="#C43D3D"/>
<path d="M162.5 152.37C162.5 152.37 160.08 151.9 158.62 151.27C157.16 150.64 155.11 149.37 153.25 147.82C151.4 146.27 148.27 142.95 147.54 141.46C146.81 139.97 145.52 137.35 145.19 136.04C144.86 134.73 144.59 131.57 144.59 131.57L136.69 133.59C137.29 136.98 138.78 140.52 139.85 142.57C140.92 144.62 141.7 146.69 142.81 148.24C143.92 149.79 145.13 151.72 146.32 153.01C147.51 154.3 149.18 155.93 150.41 156.72C151.65 157.51 153.15 158.69 155.51 159.54C157.87 160.39 160.11 161.27 161.07 161.11C161.07 161.11 161.42 159.45 162.43 157.31C163.44 155.17 164.03 154.21 164.49 153.28C164.96 152.34 165.4 150.54 165.4 150.54L162.49 152.37H162.5Z" fill="#C43D3D"/>
</g>
<defs>
<clipPath id="clip0_2_209">
<rect width="527.03" height="166.68" fill="white"/>
</clipPath>
</defs>
</svg>
